<svg width="140" height="89" viewBox="0 0 140 89" fill="none" xmlns="http://www.w3.org/2000/svg">
<path d="M22.2402 33.1172V60.6439C22.2402 62.5569 20.6895 64.1076 18.7766 64.1076V64.1076V39.771L12.3354 54.2332H9.93518L3.46364 39.771V58.453H3.20707C1.43586 58.453 0 57.0171 0 55.2459V33.1172H3.73708L11.1505 49.6758L18.5335 33.1172H22.2402Z" fill="#0069BD"/>
<path d="M71.2792 48.3671L71.3373 48.4352H71.4268H73.9103H74.3365L74.0569 48.1136L68.478 41.6985C69.3389 41.4977 70.0079 41.161 70.4649 40.6743C70.981 40.1282 71.2484 39.5115 71.2484 38.8296C71.2484 38.2514 71.0627 37.7268 70.6964 37.2616C70.3394 36.7926 69.8 36.4299 69.0964 36.164C68.3983 35.8955 67.5515 35.7648 66.5619 35.7648H62.1792H61.985V35.959V44.2003C61.985 45.0533 62.6765 45.7448 63.5295 45.7448H64.261H64.4552V45.5506V41.9081H65.7602L71.2792 48.3671ZM68.2002 39.8598L68.2002 39.8598L68.1979 39.8615C67.8569 40.1193 67.3222 40.2639 66.5619 40.2639H64.4552V37.4366H66.5619C67.3361 37.4366 67.8775 37.5773 68.2186 37.827L68.2185 37.827L68.221 37.8287C68.5568 38.0666 68.7234 38.3927 68.7234 38.8296C68.7234 39.2643 68.5522 39.6019 68.2002 39.8598Z" fill="#0069BD" stroke="#0069BD" stroke-width="0.388349"/>
<path d="M48.197 43.39L48.197 43.39L48.1989 43.3925C48.8059 44.1666 49.6188 44.7695 50.6308 45.2038L50.633 45.2047C51.657 45.6294 52.7721 45.8406 53.9762 45.8406C55.1921 45.8406 56.3076 45.6295 57.3201 45.2044L57.3207 45.2041C58.3451 44.7699 59.1591 44.1666 59.7547 43.3909L59.7554 43.39C60.3529 42.6021 60.6531 41.7145 60.6531 40.7333C60.6531 39.752 60.3529 38.8686 59.7547 38.0895C59.159 37.3137 58.3449 36.715 57.3204 36.2899C56.3078 35.8555 55.1922 35.6398 53.9762 35.6398C52.7717 35.6398 51.6562 35.8557 50.6319 36.2899C49.6195 36.7151 48.8061 37.3135 48.1989 38.0879L48.1989 38.0879L48.1977 38.0895C47.5995 38.8686 47.2992 39.752 47.2992 40.7333C47.2992 41.7145 47.5994 42.6021 48.197 43.39ZM57.596 38.9798L57.596 38.9799L57.5977 38.9823C57.95 39.4804 58.1282 40.0615 58.1282 40.7333C58.1282 41.4051 57.95 41.9914 57.5968 42.4994L57.596 42.5005C57.2535 43.0011 56.7721 43.3931 56.144 43.6746C55.5151 43.9473 54.7937 44.086 53.9762 44.086C53.1587 44.086 52.4373 43.9473 51.8084 43.6746C51.1806 43.3933 50.6927 43.0012 50.3377 42.4999C49.9966 41.9922 49.8242 41.4056 49.8242 40.7333C49.8242 40.0606 49.9968 39.4791 50.3372 38.9811C50.6921 38.4798 51.1798 38.0923 51.8073 37.82C52.4365 37.5471 53.1582 37.4082 53.9762 37.4082C54.7941 37.4082 55.5159 37.5471 56.145 37.82C56.7726 38.0923 57.2537 38.4796 57.596 38.9798Z" fill="#0069BD" stroke="#0069BD" stroke-width="0.388349"/>
<path d="M47.7416 37.2425H47.9358C47.9358 36.4264 47.2742 35.7648 46.4581 35.7648H40.1684C39.3523 35.7648 38.6907 36.4264 38.6907 37.2425H38.8849V37.4366H42.0873V47.0823V47.2765H42.2815H44.3633H44.5575V47.0823V37.4366H47.7416V37.2425Z" fill="#0069BD" stroke="#0069BD" stroke-width="0.388349"/>
<path d="M25.9163 43.39L25.9163 43.39L25.9182 43.3925C26.5252 44.1666 27.3382 44.7695 28.3502 45.2038L28.3524 45.2047C29.3763 45.6294 30.4915 45.8406 31.6955 45.8406C32.9114 45.8406 34.027 45.6295 35.0395 45.2044L35.0401 45.2041C36.0644 44.7699 36.8785 44.1666 37.474 43.3909L37.4747 43.39C38.0723 42.6021 38.3725 41.7145 38.3725 40.7333C38.3725 39.752 38.0722 38.8686 37.474 38.0895C36.8784 37.3137 36.0642 36.715 35.0398 36.2899C34.0272 35.8555 32.9115 35.6398 31.6955 35.6398C30.4911 35.6398 29.3755 35.8557 28.3513 36.2899C27.3388 36.7151 26.5255 37.3135 25.9182 38.0879L25.9182 38.0879L25.917 38.0895C25.3188 38.8686 25.0186 39.752 25.0186 40.7333C25.0186 41.7145 25.3188 42.6021 25.9163 43.39ZM35.3154 38.9798L35.3154 38.9799L35.3171 38.9823C35.6693 39.4804 35.8476 40.0615 35.8476 40.7333C35.8476 41.4051 35.6693 41.9914 35.3162 42.4994L35.3154 42.5005C34.9728 43.0011 34.4914 43.3931 33.8634 43.6746C33.2344 43.9473 32.513 44.086 31.6955 44.086C30.878 44.086 30.1567 43.9473 29.5277 43.6746C28.9 43.3933 28.412 43.0012 28.057 42.4999C27.716 41.9922 27.5435 41.4056 27.5435 40.7333C27.5435 40.0606 27.7161 39.4791 28.0566 38.9811C28.4114 38.4798 28.8991 38.0923 29.5267 37.82C30.1559 37.5471 30.8776 37.4082 31.6955 37.4082C32.5135 37.4082 33.2352 37.5471 33.8644 37.82C34.492 38.0923 34.973 38.4796 35.3154 38.9798Z" fill="#0069BD" stroke="#0069BD" stroke-width="0.388349"/>
<path d="M44.4917 50.0898V49.8957H44.2975H42.3564H42.1622V50.0898V60.8408C42.1622 61.3126 42.0424 61.676 41.8192 61.9484C41.606 62.1979 41.2895 62.3346 40.8372 62.3346C40.3851 62.3346 40.0687 62.198 39.8555 61.9487C39.6437 61.6879 39.5228 61.3238 39.5122 60.8366L39.3181 60.8408V60.6466C38.7291 60.6466 38.1671 60.9035 37.8228 61.2984C37.4721 61.7008 37.3437 62.2569 37.6657 62.8024C37.8084 63.0444 37.9825 63.2642 38.1874 63.4618L38.1887 63.463C38.8723 64.1106 39.7614 64.4277 40.8372 64.4277C41.9126 64.4277 42.7967 64.1109 43.4695 63.4625C44.1563 62.8115 44.4917 61.9297 44.4917 60.8408V50.0898Z" fill="#009400" stroke="#009400" stroke-width="0.388349"/>
<path d="M27.7318 57.272L27.7338 57.2731C27.9372 57.3861 28.2413 57.477 28.5792 57.5515C28.9221 57.6271 29.3179 57.6895 29.716 57.7392C30.5114 57.8384 31.3299 57.8884 31.7785 57.8884C32.2337 57.8884 32.9545 57.8382 33.6539 57.7387C34.3442 57.6405 35.0486 57.4896 35.4484 57.2744L35.4493 57.2739C36.223 56.8518 36.834 56.2585 37.2794 55.4966C37.7263 54.7321 37.9473 53.8592 37.9473 52.8836C37.9473 51.9089 37.7324 51.0367 37.2974 50.2725C36.8637 49.5106 36.2696 48.9218 35.517 48.5103L35.4246 48.6792L35.517 48.5103C35.1223 48.2944 34.4214 48.1435 33.7341 48.0453C33.0376 47.9458 32.3181 47.8957 31.8629 47.8957C31.4088 47.8957 30.5846 47.9456 29.7837 48.0448C29.3828 48.0945 28.9843 48.1569 28.6387 48.2325C28.2978 48.307 27.9914 48.3977 27.7856 48.5103C27.033 48.9218 26.4389 49.5106 26.0052 50.2725C25.5702 51.0367 25.3553 51.9089 25.3553 52.8836C25.3553 53.8682 25.564 54.7454 25.9872 55.5096L25.9872 55.5096L25.9879 55.5107C26.41 56.2611 26.992 56.8493 27.7318 57.272ZM34.2177 55.4977L34.2177 55.4977L34.2159 55.4987C34.1373 55.5421 33.9826 55.5893 33.7649 55.6334C33.5538 55.6762 33.3031 55.7124 33.0475 55.7416C32.5351 55.8001 32.0168 55.829 31.7785 55.829C31.4049 55.829 30.6687 55.7631 29.9617 55.6298C29.6088 55.5632 29.2689 55.4809 28.9883 55.3839C28.7014 55.2846 28.5044 55.1791 28.4085 55.0799C27.9458 54.5751 27.7016 53.8521 27.7016 52.8836C27.7016 52.2314 27.8212 51.6967 28.0499 51.2706L28.0499 51.2706L28.0508 51.2689C28.2829 50.8258 28.5896 50.5007 28.9694 50.2848C29.044 50.244 29.2191 50.1964 29.4799 50.1517C29.7315 50.1085 30.0357 50.0721 30.3449 50.0428C30.9644 49.9841 31.5896 49.9551 31.8292 49.9551C32.0674 49.9551 32.5857 49.9839 33.0981 50.0424C33.3538 50.0716 33.6044 50.1078 33.8156 50.1506C34.0333 50.1947 34.188 50.2419 34.2665 50.2853C34.6586 50.502 34.9767 50.8282 35.2198 51.272L35.2197 51.272L35.2207 51.2738C35.4594 51.6992 35.5841 52.2327 35.5841 52.8836C35.5841 53.533 35.4543 54.0719 35.2046 54.5089C34.9508 54.953 34.6217 55.2802 34.2177 55.4977Z" fill="#009400" stroke="#009400" stroke-width="0.388349"/>
<path d="M50.0125 57.3404L50.0145 57.3415C50.2179 57.4545 50.522 57.5454 50.8599 57.6199C51.2028 57.6954 51.5985 57.7579 51.9966 57.8075C52.792 57.9068 53.6106 57.9567 54.0592 57.9567C54.5143 57.9567 55.2352 57.9066 55.9345 57.8071C56.6249 57.7088 57.3292 57.558 57.729 57.3427L57.7299 57.3422C58.5037 56.9202 59.1146 56.3268 59.56 55.565C60.007 54.8004 60.228 53.9275 60.228 52.9519C60.228 51.9772 60.013 51.105 59.578 50.3409C59.1443 49.579 58.5502 48.9902 57.7976 48.5786L57.7052 48.7476L57.7976 48.5786C57.403 48.3628 56.7021 48.2119 56.0148 48.1137C55.3182 48.0141 54.5987 47.964 54.1436 47.964C53.6894 47.964 52.8653 48.014 52.0643 48.1132C51.6634 48.1629 51.2649 48.2253 50.9193 48.3008C50.5785 48.3753 50.272 48.4661 50.0663 48.5786C49.3136 48.9902 48.7196 49.579 48.2859 50.3409C47.8509 51.105 47.6359 51.9772 47.6359 52.9519C47.6359 53.9365 47.8446 54.8138 48.2679 55.5779L48.2679 55.5779L48.2685 55.579C48.6906 56.3294 49.2726 56.9176 50.0125 57.3404ZM56.4984 55.5661L56.4984 55.566L56.4965 55.5671C56.418 55.6105 56.2633 55.6577 56.0456 55.7018C55.8344 55.7446 55.5838 55.7808 55.3281 55.81C54.8157 55.8684 54.2974 55.8973 54.0592 55.8973C53.6855 55.8973 52.9494 55.8314 52.2423 55.6981C51.8895 55.6316 51.5496 55.5493 51.269 55.4522C50.9821 55.353 50.7851 55.2475 50.6892 55.1483C50.2265 54.6435 49.9823 53.9205 49.9823 52.9519C49.9823 52.2998 50.1019 51.7651 50.3305 51.3389L50.3305 51.3389L50.3314 51.3372C50.5635 50.8941 50.8703 50.569 51.2501 50.3532C51.3247 50.3124 51.4998 50.2647 51.7605 50.22C52.0121 50.1769 52.3163 50.1405 52.6256 50.1112C53.245 50.0525 53.8703 50.0234 54.1098 50.0234C54.3481 50.0234 54.8663 50.0523 55.3787 50.1108C55.6344 50.14 55.885 50.1762 56.0962 50.219C56.3139 50.2631 56.4686 50.3103 56.5471 50.3537C56.9393 50.5704 57.2574 50.8966 57.5004 51.3404L57.5004 51.3404L57.5014 51.3421C57.74 51.7675 57.8647 52.301 57.8647 52.9519C57.8647 53.6014 57.735 54.1403 57.4852 54.5773C57.2315 55.0214 56.9023 55.3485 56.4984 55.5661Z" fill="#009400" stroke="#009400" stroke-width="0.388349"/>
<path d="M81.6193 32.6574L100.082 17.7154L112.876 37.726L116.585 61.1858L92.858 62.2607L70.6868 53.7429L81.6193 32.6574Z" stroke="url(#paint0_radial_6333_4761)" stroke-width="0.545086"/>
<path d="M80.6652 33.9384L97.7549 17.4442L112.245 36.2635L117.984 59.3108L94.4413 62.4495L71.612 55.8965L80.6652 33.9384Z" stroke="url(#paint1_radial_6333_4761)" stroke-width="0.545086"/>
<path d="M79.8279 35.2923L95.4151 17.3714L111.49 34.8563L119.216 57.3156L96.0365 62.4943L72.7229 57.9559L79.8279 35.2923Z" stroke="url(#paint2_radial_6333_4761)" stroke-width="0.545086"/>
<path d="M79.1109 36.7166L93.0768 17.5054L110.614 33.5227L120.269 55.2232L97.6286 62.4024L74.0082 59.9132L79.1109 36.7166Z" stroke="url(#paint3_radial_6333_4761)" stroke-width="0.545085"/>
<path d="M78.521 38.1962L90.7595 17.8408L109.626 32.2687L121.135 53.0452L99.207 62.1703L75.4595 61.7492L78.521 38.1962Z" stroke="url(#paint4_radial_6333_4761)" stroke-width="0.545086"/>
<path d="M78.0621 39.7245L88.4798 18.38L108.532 31.1086L121.808 50.8029L100.759 61.8045L77.065 63.4547L78.0621 39.7245Z" stroke="url(#paint5_radial_6333_4761)" stroke-width="0.545085"/>
<path d="M77.7377 41.2864L86.2555 19.1152L107.341 30.0477L122.283 48.51L102.272 61.3043L78.8126 65.0133L77.7377 41.2864Z" stroke="url(#paint6_radial_6333_4761)" stroke-width="0.545086"/>
<path d="M77.5525 42.8695L84.1055 20.0402L106.064 29.0934L122.558 46.1832L103.738 60.6728L80.6912 66.4124L77.5525 42.8695Z" stroke="url(#paint7_radial_6333_4761)" stroke-width="0.545086"/>
<path d="M77.5049 44.4698L82.0433 21.1562L104.707 28.2612L122.628 43.8483L105.143 59.9231L82.6836 67.6495L77.5049 44.4698Z" stroke="url(#paint8_radial_6333_4761)" stroke-width="0.545086"/>
<path d="M77.5957 46.0605L80.0849 22.4402L103.281 27.5428L122.493 41.5088L106.475 59.0462L84.7749 68.7007L77.5957 46.0605Z" stroke="url(#paint9_radial_6333_4761)" stroke-width="0.545086"/>
<path d="M77.8257 47.6352L78.2469 23.8878L101.8 26.9493L122.155 39.1878L107.727 58.0545L86.9509 69.5635L77.8257 47.6352Z" stroke="url(#paint10_radial_6333_4761)" stroke-width="0.545086"/>
<path d="M78.192 49.1897L76.5418 25.4959L100.272 26.493L121.617 36.9108L108.888 56.9632L89.1936 70.2393L78.192 49.1897Z" stroke="url(#paint11_radial_6333_4761)" stroke-width="0.545086"/>
<path d="M78.693 50.7006L74.984 27.2408L98.7108 26.1659L120.882 34.6837L109.95 55.7692L91.4873 70.7112L78.693 50.7006Z" stroke="url(#paint12_radial_6333_4761)" stroke-width="0.545086"/>
<path d="M79.3236 52.1644L73.5841 29.1171L97.127 25.9783L119.956 32.5314L110.903 54.4895L93.8133 70.9837L79.3236 52.1644Z" stroke="url(#paint13_radial_6333_4761)" stroke-width="0.545086"/>
<path d="M80.0801 53.5737L72.3537 31.1143L95.5335 25.9356L118.847 30.474L111.742 53.1376L96.1549 71.0585L80.0801 53.5737Z" stroke="url(#paint14_radial_6333_4761)" stroke-width="0.545086"/>
<path d="M80.9552 54.9056L71.3008 33.2052L93.9409 26.0259L117.561 28.5152L112.459 51.7117L98.4927 70.9229L80.9552 54.9056Z" stroke="url(#paint15_radial_6333_4761)" stroke-width="0.545085"/>
<path d="M81.9429 56.1529L70.4339 35.3765L92.3622 26.2513L116.11 26.6724L113.048 50.2255L100.81 70.5808L81.9429 56.1529Z" stroke="url(#paint16_radial_6333_4761)" stroke-width="0.545086"/>
<path d="M105.941 57.2485C106.438 56.829 106.621 56.1764 106.474 55.5865C120.922 42.1149 101.887 18.9308 85.4666 31.4686C84.8627 31.9375 84.6871 32.5456 84.7903 33.0923C78.6721 38.1778 77.7761 48.5847 83.6899 54.2322C88.99 60.9724 99.1605 63.116 105.941 57.2485ZM85.7516 34.3284C86.2301 34.5503 86.8272 34.5428 87.4184 34.1327C101.457 23.0648 117.026 42.5871 105.438 54.438C104.878 54.2347 104.227 54.3411 103.757 54.7716C98.5056 59.7705 89.7583 57.8484 85.455 52.5092C80.1905 47.8812 80.7992 38.9675 85.7516 34.3284Z" fill="#009400"/>
<path d="M78.3556 64.5965C82.6533 63.6429 84.9015 65.6346 88.2324 68.0509C89.2003 72.9175 96.7338 73.3587 98.5161 68.8484C101.316 68.4759 104.057 67.6088 106.559 66.3004C110.507 69.1021 116.689 64.0026 114.572 59.557C116.323 57.2858 117.667 54.7056 118.521 51.9739C120.492 51.595 122.21 49.9122 122.357 47.8611C122.82 45.3998 121.184 43.2272 119.822 41.4142C118.292 38.9948 118.048 35.432 117.221 32.9349C118.961 30.5707 117.582 27.7048 115.482 26.1378C114.073 25.1046 112.234 25.5183 110.681 25.2128C107.822 24.3653 105.474 22.5911 102.602 21.6143C102.108 18.2103 97.9726 16.9408 94.985 18.0584C93.9015 18.5281 93.3515 19.6682 92.6804 20.526C90.2946 21.229 85.5773 23.5205 83.3599 22.6275C82.5854 22.3219 81.4444 22.0427 80.5185 22.373C77.8346 23.5464 75.1945 26.6046 76.398 29.6842C74.691 31.7982 73.3575 34.2041 72.4368 36.7598C72.2065 37.397 72.5538 38.1035 73.1993 38.3098C73.8309 38.5132 74.5078 38.1659 74.7111 37.5344C75.1187 36.2664 75.6469 35.0343 76.289 33.8657C76.9348 32.6865 77.6884 31.5646 78.5431 30.5278C79.6614 29.1619 75.9727 27.92 80.8867 24.4822C81.7821 23.9077 82.8407 24.7457 83.8265 24.9421C85.6046 25.0878 87.482 24.2527 89.1965 23.8459C90.7019 23.3872 92.1803 22.8628 93.6381 22.2942C95.8569 20.5287 94.6292 18.9698 98.982 19.9882C101.188 20.7133 100.03 22.797 101.393 23.3594C104.725 24.3167 107.728 27.0356 111.301 27.4327C112.26 27.4994 113.164 27.4136 114.006 27.748C114.179 27.8307 114.334 27.9408 114.467 28.0777C117.312 31.0667 114.964 30.7013 115.034 33.2794C116.013 36.348 116.137 39.9103 117.96 42.7117C118.727 43.7919 119.605 44.8701 119.987 46.0912C120.546 47.8348 119.464 49.7235 117.554 49.7301C117.064 49.7497 116.618 50.0787 116.476 50.5761C115.636 53.525 114.167 56.2907 112.184 58.6274C111.852 59.02 111.794 59.6003 112.083 60.0588C112.741 61.1309 112.665 62.5363 111.627 63.3018C110.783 64.1136 109.678 64.8908 108.516 64.4258C107.741 64.1438 106.998 63.0489 106.039 63.6404C103.367 65.1185 100.4 66.0151 97.3591 66.2671C96.7831 66.3162 96.2823 66.7375 96.1609 67.3327C95.8134 69.3652 92.9964 69.7344 91.5805 68.6022C90.9217 67.8198 90.9775 66.4767 90.03 65.8533C87.3124 63.8852 84.5489 61.4339 80.9626 61.3482C77.6922 61.4495 78.6549 62.3367 76.4156 59.27C76.421 59.2736 76.4248 59.2839 76.4276 59.2858C76.4278 59.288 76.4284 59.2877 76.4289 59.2876C76.3611 58.0666 77.0559 56.6679 76.7825 55.376C76.4598 52.6152 75.7936 52.9644 75.0864 50.4019C75.4636 51.8725 74.8564 49.5052 75.0864 50.4019C72.2516 51.4087 72.5124 51.639 72.9651 53.4103C74.7029 56.7862 72.2487 58.4855 73.9341 61.1066C75.0141 62.5952 76.2988 64.5063 78.3556 64.5965Z" fill="#009400"/>
<path d="M99.3216 36.1719L96.7781 36.8432L95.0711 36.1719L92.2834 45.4714H95.2246L92.6494 52.4137L98.9561 43.1147H95.1599L99.3216 36.1719Z" fill="#0069BD"/>
<defs>
<radialGradient id="paint0_radial_6333_4761" cx="0" cy="0" r="1" gradientUnits="userSpaceOnUse" gradientTransform="translate(95.7844 44.2147) rotate(99.211) scale(27.2543)">
<stop stop-color="#009400"/>
<stop offset="0.541667" stop-color="#0069BD"/>
<stop offset="1" stop-color="#D9D9D9" stop-opacity="0"/>
</radialGradient>
<radialGradient id="paint1_radial_6333_4761" cx="0" cy="0" r="1" gradientUnits="userSpaceOnUse" gradientTransform="translate(95.7837 44.2171) rotate(94.211) scale(27.2543)">
<stop stop-color="#009400"/>
<stop offset="0.541667" stop-color="#0069BD"/>
<stop offset="1" stop-color="#D9D9D9" stop-opacity="0"/>
</radialGradient>
<radialGradient id="paint2_radial_6333_4761" cx="0" cy="0" r="1" gradientUnits="userSpaceOnUse" gradientTransform="translate(95.7847 44.2143) rotate(89.211) scale(27.2543)">
<stop stop-color="#009400"/>
<stop offset="0.541667" stop-color="#0069BD"/>
<stop offset="1" stop-color="#D9D9D9" stop-opacity="0"/>
</radialGradient>
<radialGradient id="paint3_radial_6333_4761" cx="0" cy="0" r="1" gradientUnits="userSpaceOnUse" gradientTransform="translate(95.7846 44.2139) rotate(84.211) scale(27.2543)">
<stop stop-color="#009400"/>
<stop offset="0.541667" stop-color="#0069BD"/>
<stop offset="1" stop-color="#D9D9D9" stop-opacity="0"/>
</radialGradient>
<radialGradient id="paint4_radial_6333_4761" cx="0" cy="0" r="1" gradientUnits="userSpaceOnUse" gradientTransform="translate(95.7847 44.2117) rotate(79.211) scale(27.2543)">
<stop stop-color="#009400"/>
<stop offset="0.541667" stop-color="#0069BD"/>
<stop offset="1" stop-color="#D9D9D9" stop-opacity="0"/>
</radialGradient>
<radialGradient id="paint5_radial_6333_4761" cx="0" cy="0" r="1" gradientUnits="userSpaceOnUse" gradientTransform="translate(95.7843 44.2125) rotate(74.211) scale(27.2543)">
<stop stop-color="#009400"/>
<stop offset="0.541667" stop-color="#0069BD"/>
<stop offset="1" stop-color="#D9D9D9" stop-opacity="0"/>
</radialGradient>
<radialGradient id="paint6_radial_6333_4761" cx="0" cy="0" r="1" gradientUnits="userSpaceOnUse" gradientTransform="translate(95.7837 44.2128) rotate(69.211) scale(27.2543)">
<stop stop-color="#009400"/>
<stop offset="0.541667" stop-color="#0069BD"/>
<stop offset="1" stop-color="#D9D9D9" stop-opacity="0"/>
</radialGradient>
<radialGradient id="paint7_radial_6333_4761" cx="0" cy="0" r="1" gradientUnits="userSpaceOnUse" gradientTransform="translate(95.7849 44.2119) rotate(64.211) scale(27.2543)">
<stop stop-color="#009400"/>
<stop offset="0.541667" stop-color="#0069BD"/>
<stop offset="1" stop-color="#D9D9D9" stop-opacity="0"/>
</radialGradient>
<radialGradient id="paint8_radial_6333_4761" cx="0" cy="0" r="1" gradientUnits="userSpaceOnUse" gradientTransform="translate(95.7849 44.218) rotate(59.211) scale(27.2543)">
<stop stop-color="#009400"/>
<stop offset="0.541667" stop-color="#0069BD"/>
<stop offset="1" stop-color="#D9D9D9" stop-opacity="0"/>
</radialGradient>
<radialGradient id="paint9_radial_6333_4761" cx="0" cy="0" r="1" gradientUnits="userSpaceOnUse" gradientTransform="translate(95.7842 44.2165) rotate(54.211) scale(27.2543)">
<stop stop-color="#009400"/>
<stop offset="0.541667" stop-color="#0069BD"/>
<stop offset="1" stop-color="#D9D9D9" stop-opacity="0"/>
</radialGradient>
<radialGradient id="paint10_radial_6333_4761" cx="0" cy="0" r="1" gradientUnits="userSpaceOnUse" gradientTransform="translate(95.7843 44.213) rotate(49.211) scale(27.2543)">
<stop stop-color="#009400"/>
<stop offset="0.541667" stop-color="#0069BD"/>
<stop offset="1" stop-color="#D9D9D9" stop-opacity="0"/>
</radialGradient>
<radialGradient id="paint11_radial_6333_4761" cx="0" cy="0" r="1" gradientUnits="userSpaceOnUse" gradientTransform="translate(95.784 44.2153) rotate(44.211) scale(27.2543)">
<stop stop-color="#009400"/>
<stop offset="0.541667" stop-color="#0069BD"/>
<stop offset="1" stop-color="#D9D9D9" stop-opacity="0"/>
</radialGradient>
<radialGradient id="paint12_radial_6333_4761" cx="0" cy="0" r="1" gradientUnits="userSpaceOnUse" gradientTransform="translate(95.7844 44.2119) rotate(39.211) scale(27.2543)">
<stop stop-color="#009400"/>
<stop offset="0.541667" stop-color="#0069BD"/>
<stop offset="1" stop-color="#D9D9D9" stop-opacity="0"/>
</radialGradient>
<radialGradient id="paint13_radial_6333_4761" cx="0" cy="0" r="1" gradientUnits="userSpaceOnUse" gradientTransform="translate(95.7846 44.2107) rotate(34.211) scale(27.2543)">
<stop stop-color="#009400"/>
<stop offset="0.541667" stop-color="#0069BD"/>
<stop offset="1" stop-color="#D9D9D9" stop-opacity="0"/>
</radialGradient>
<radialGradient id="paint14_radial_6333_4761" cx="0" cy="0" r="1" gradientUnits="userSpaceOnUse" gradientTransform="translate(95.7852 44.2156) rotate(29.211) scale(27.2543)">
<stop stop-color="#009400"/>
<stop offset="0.541667" stop-color="#0069BD"/>
<stop offset="1" stop-color="#D9D9D9" stop-opacity="0"/>
</radialGradient>
<radialGradient id="paint15_radial_6333_4761" cx="0" cy="0" r="1" gradientUnits="userSpaceOnUse" gradientTransform="translate(95.7849 44.2144) rotate(24.211) scale(27.2543)">
<stop stop-color="#009400"/>
<stop offset="0.541667" stop-color="#0069BD"/>
<stop offset="1" stop-color="#D9D9D9" stop-opacity="0"/>
</radialGradient>
<radialGradient id="paint16_radial_6333_4761" cx="0" cy="0" r="1" gradientUnits="userSpaceOnUse" gradientTransform="translate(95.7844 44.2099) rotate(19.211) scale(27.2543)">
<stop stop-color="#009400"/>
<stop offset="0.541667" stop-color="#0069BD"/>
<stop offset="1" stop-color="#D9D9D9" stop-opacity="0"/>
</radialGradient>
</defs>
</svg>
