<svg width="580" height="64" viewBox="0 0 580 64" fill="none" xmlns="http://www.w3.org/2000/svg">
<path d="M76.2225 25.7148C76.2331 25.7136 76.2433 25.7104 76.2526 25.7052C76.2618 25.7001 76.27 25.6932 76.2766 25.6849C76.2832 25.6765 76.288 25.667 76.2909 25.6568C76.2937 25.6466 76.2945 25.6359 76.2932 25.6253L76.2752 25.3752C76.2694 25.2618 76.2098 25.208 76.0965 25.2138C65.612 25.731 55.1161 26.4448 44.6086 27.3552C41.4196 27.6301 38.6401 27.1448 36.2698 25.8994C35.9378 25.7234 35.7333 25.4551 35.6561 25.0945L35.4636 24.1429C35.3931 23.7824 35.1919 23.5208 34.8598 23.3582C34.5278 23.1955 34.2931 22.947 34.1557 22.6126C33.9594 22.1377 34.1178 21.9189 34.6309 21.9563C34.9974 21.9792 35.3347 21.9019 35.6427 21.7243C35.8285 21.6158 35.9777 21.4538 36.0709 21.2596C36.1641 21.0655 36.1969 20.8482 36.1651 20.6362C36.1333 20.4241 36.0383 20.2272 35.8925 20.0713C35.7468 19.9153 35.5571 19.8074 35.3482 19.7619C32.4066 19.1053 29.9026 17.9189 27.8361 16.2025C27.761 16.1392 27.7054 16.0559 27.6757 15.9623C27.646 15.8687 27.6434 15.7686 27.6682 15.6736C27.693 15.5786 27.7443 15.4925 27.8159 15.4254C27.8876 15.3583 27.9768 15.3129 28.0733 15.2943C31.6787 14.6228 35.2757 13.7411 38.9597 13.2602C56.9923 10.9025 75.089 9.25534 93.2504 8.31871C121.843 6.85108 148.712 6.24319 173.857 6.49506C186.277 6.61979 534.479 3.99457 548.898 5.10176C551.756 5.31434 554.591 5.89673 557.427 6.40914C557.687 6.45799 557.925 6.58798 558.105 6.78011C558.285 6.97224 558.399 7.21645 558.429 7.47708C558.648 9.27885 558.554 11.0849 558.146 12.895C557.656 15.0712 557.406 16.716 557.397 17.8293C557.384 19.4892 557.371 21.1725 557.357 22.8791C557.358 22.9967 557.332 23.1129 557.281 23.2189C557.23 23.325 557.155 23.4182 557.062 23.4915C556.969 23.5648 556.86 23.6164 556.744 23.6424C556.628 23.6683 556.508 23.668 556.391 23.6415C555.533 23.448 554.679 23.478 553.831 23.7313C553.396 23.8678 553.351 24.0808 553.696 24.3702C554.013 24.6394 554.375 24.8089 554.782 24.8788C554.992 24.9202 555.189 25.0151 555.354 25.1545C555.519 25.294 555.647 25.4735 555.725 25.6763C555.869 26.0508 555.896 26.421 555.807 26.787C555.696 27.2794 555.887 27.561 556.38 27.6315C561.614 28.4129 567.394 29.2785 573.72 30.2285C574.739 30.3765 575.827 30.6518 576.984 31.0543C577.231 31.141 577.45 31.2926 577.617 31.4929C577.784 31.6931 577.894 31.9347 577.935 32.1918C578.393 34.9355 578.575 37.6071 578.481 40.2064C578.379 42.9956 578.473 37.4163 578.481 40.2064C578.483 40.8264 578.805 38.9722 578.461 39.4562C578.259 39.7413 578.34 39.5922 578.491 39.9068L578.227 40.4544C578.404 40.8091 578.061 38.093 577.885 38.4516C577.099 40.0988 580.673 40.3904 578.481 40.2064C577.495 40.1253 577.843 39.5097 578.693 40.0097C579.244 40.3341 577.747 40.2806 578.481 40.2064C579.055 40.1509 578.699 39.9314 578.475 40.4563C577.833 41.9413 579.832 38.877 578.481 40.2064C577.769 40.9008 577.054 41.5885 576.335 42.2695C576.1 42.4943 576.018 42.767 576.089 43.0876C576.192 43.5484 576.086 43.9176 575.77 44.1951C575.555 44.3868 575.298 44.4747 574.998 44.459C573.372 44.3528 571.708 44.4664 570.005 44.7996C569.909 44.8169 569.822 44.8651 569.756 44.937C569.691 45.0088 569.651 45.1006 569.642 45.1984C569.634 45.2963 569.657 45.395 569.708 45.4798C569.76 45.5646 569.837 45.631 569.928 45.669L575.002 47.7192C575.146 47.7773 575.274 47.8676 575.377 47.9831C575.48 48.0986 575.555 48.2363 575.596 48.3855C575.638 48.5347 575.644 48.6913 575.615 48.8434C575.587 48.9955 575.523 49.1389 575.43 49.2626C575.039 49.7862 574.548 49.9556 573.956 49.771C573.643 49.6752 573.333 49.6794 573.026 49.7836C565.926 52.2476 557.287 52.0994 549.989 51.8018C546.504 51.6543 208.231 54.8246 204.737 54.8303C200.037 54.8332 195.329 54.5461 190.718 54.6797C182.009 54.9376 173.024 55.0733 163.764 55.0869C161.81 55.0848 159.829 55.2325 157.82 55.5299C156.058 55.7827 153.945 55.746 151.481 55.4199C151.248 55.3914 151.162 55.264 151.224 55.0378C151.251 54.9447 151.292 54.855 151.346 54.7688C151.393 54.6958 151.464 54.6464 151.557 54.6205C152.018 54.4841 152.423 54.2506 152.773 53.92C153.088 53.6092 153.027 53.432 152.587 53.3885C150.795 53.2077 149.178 53.2683 147.735 53.5702C147.408 53.6343 147.085 53.6184 146.766 53.5226C145.256 53.084 143.788 53.1758 142.363 53.7979C142.056 53.9354 141.739 53.9629 141.413 53.8804L139.985 53.5091C139.573 53.3991 139.577 53.2958 139.998 53.1992L141.671 52.8023C141.737 52.7878 141.797 52.7527 141.84 52.7025C141.884 52.6523 141.91 52.5897 141.913 52.5243L141.935 52.2644C141.943 52.166 141.927 52.0673 141.888 51.9764C141.85 51.8856 141.79 51.8052 141.714 51.742C141.638 51.6788 141.549 51.6346 141.452 51.6131C141.356 51.5916 141.256 51.5934 141.16 51.6183C139.751 51.9872 138.253 52.152 136.666 52.1128C136.5 52.1048 136.4 52.0207 136.368 51.8605L136.233 51.3194C136.168 51.0388 136.279 50.9231 136.565 50.972C138.163 51.2246 139.828 51.1277 141.558 50.6814C143.201 50.2644 144.737 50.7565 146.386 50.9895C146.732 51.0389 147.036 50.9547 147.298 50.7367C147.418 50.631 147.519 50.5085 147.601 50.3691C147.756 50.1037 147.99 49.9888 148.303 50.0246C150.201 50.2596 152.076 50.1544 153.926 49.709C154.955 49.4638 155.995 49.3587 157.049 49.3937C157.247 49.4004 157.445 49.3599 157.625 49.2755C157.806 49.1911 157.963 49.0652 158.086 48.9081C158.208 48.751 158.291 48.5672 158.329 48.3717C158.366 48.1762 158.357 47.9747 158.301 47.7835C158.015 46.8212 157.44 46.27 156.574 46.1298C156.5 46.1194 156.424 46.1241 156.351 46.1437C156.278 46.1634 156.211 46.1974 156.152 46.2439C156.094 46.2903 156.046 46.3481 156.011 46.4136C155.976 46.4792 155.956 46.5511 155.95 46.6249C155.841 47.8041 155.155 48.5954 153.892 48.9987C153.544 49.1093 153.295 48.9974 153.144 48.6628L152.093 46.3045C151.922 45.9298 151.995 45.6136 152.31 45.3561C152.86 44.9138 153.437 44.9117 154.04 45.3498C154.312 45.5386 154.605 45.5909 154.919 45.5067C155.18 45.4288 155.391 45.2671 155.553 45.0217C155.587 44.969 155.605 44.9079 155.606 44.8453C155.608 44.7827 155.591 44.721 155.56 44.6669C155.528 44.6129 155.482 44.5687 155.427 44.5391C155.372 44.5095 155.31 44.4957 155.247 44.4993L148.955 44.7196C148.855 44.7188 148.795 44.7717 148.774 44.8782L148.71 45.3177C148.669 45.5574 148.768 45.6782 149.008 45.6801L150.797 45.7342C150.922 45.7392 151.042 45.781 151.143 45.8544C151.244 45.9278 151.321 46.0295 151.364 46.1466C151.406 46.2636 151.414 46.3908 151.384 46.512C151.355 46.6332 151.29 46.743 151.199 46.8274L148.57 49.2167C148.281 49.4744 147.964 49.5186 147.619 49.3492C146.815 48.9428 145.986 48.8063 145.132 48.9396C144.969 48.9656 144.803 48.9289 144.666 48.8368C144.529 48.7448 144.433 48.6043 144.396 48.4437L143.737 45.6685C143.654 45.3144 143.432 45.1327 143.072 45.1232C141.659 45.0787 140.387 45.3354 139.256 45.8931C138.961 46.0374 138.685 46.0153 138.426 45.8266C137.584 45.2332 136.819 45.4305 136.131 46.4184C135.929 46.7235 135.675 46.7715 135.37 46.5624C135.158 46.4274 135.023 46.2397 134.965 45.9992C134.93 45.8567 134.847 45.7303 134.73 45.6404C134.612 45.5505 134.467 45.5025 134.318 45.5041L133.818 45.5201C133.398 45.5301 133.277 45.7259 133.454 46.1073C133.67 46.5623 133.96 46.9613 134.324 47.3042C134.668 47.6336 134.603 47.8297 134.13 47.8927C133.509 47.9678 132.874 48.1861 132.224 48.5477C131.943 48.7121 131.65 48.7331 131.344 48.6107C131.218 48.563 131.091 48.5187 130.965 48.4777C130.639 48.3751 130.388 48.4665 130.213 48.7518C129.659 49.6474 128.952 49.7418 128.09 49.035C127.693 48.7052 127.346 48.7491 127.049 49.1668C126.658 49.7104 126.109 50.0428 125.401 50.1638C125.128 50.215 124.868 50.1929 124.622 50.0977C123.851 49.7849 123.882 49.6385 124.715 49.6584C125.955 49.6815 126.682 48.8739 126.895 47.2355C126.972 46.6628 126.754 46.5144 126.238 46.7903C126.144 46.8429 126.047 46.8988 125.947 46.958C125.766 47.0699 125.625 47.2155 125.523 47.3947C125.07 48.1978 124.398 48.4492 123.507 48.1488C123.451 48.1327 123.392 48.1285 123.335 48.1367C123.278 48.1449 123.224 48.1652 123.177 48.1962C123.009 48.3082 122.938 48.4477 122.964 48.6145C123.002 48.7949 122.931 48.8909 122.751 48.9029C121.644 48.9808 121.189 49.5772 121.387 50.6922C121.47 51.1528 121.296 51.2948 120.864 51.118C120.312 50.887 119.733 50.8191 119.125 50.9143C116.816 51.2761 114.683 51.1992 112.727 50.6838C112.638 50.6597 112.557 50.6117 112.493 50.5452C112.429 50.4787 112.385 50.3962 112.365 50.307C112.345 50.2177 112.35 50.1252 112.38 50.0396C112.409 49.9541 112.463 49.8788 112.534 49.8222C112.99 49.4458 113.24 48.9778 113.285 48.4181C113.314 48.065 113.149 47.8804 112.789 47.8642C110.11 47.7364 107.636 47.8602 105.366 48.2356C98.9774 49.2985 92.7419 49.986 86.6592 50.2979C85.592 50.3495 84.7132 50.6226 84.0226 51.1172C83.9232 51.1858 83.8042 51.2203 83.6835 51.2158C83.5628 51.2112 83.4468 51.1678 83.3528 51.0919C83.1871 50.9639 83.055 50.8062 82.9565 50.6187C82.7923 50.3041 82.53 50.1753 82.1695 50.2325C80.7345 50.4412 79.3444 50.4435 77.9993 50.2396C76.8107 50.0602 75.9049 50.7931 74.7739 50.9141C68.1278 51.6517 61.6095 52.7003 54.9861 53.098C52.5382 53.2387 49.9561 53.4949 47.2398 53.8668C42.5146 54.4995 37.7037 54.6016 32.8069 55.433C30.6707 55.7894 28.5452 56.066 26.4302 56.2626C20.8059 56.7782 14.0841 57.8319 6.26459 59.4235C6.19052 59.4373 6.1138 59.4207 6.05068 59.3773C5.98756 59.3339 5.943 59.267 5.92642 59.1908L5.86871 58.9004C5.83045 58.6801 5.92147 58.5541 6.14172 58.5225C8.53411 58.2314 10.5425 57.1672 12.9668 56.6363C19.5518 55.195 25.8414 53.9979 31.8358 53.0452C47.8898 50.5052 67.4783 47.7797 90.6021 44.8689C93.6319 44.4928 96.4406 44.245 99.0283 44.1254C99.5218 44.1026 99.9431 43.946 100.292 43.6554C100.601 43.4045 100.562 43.2342 100.176 43.1445C97.8001 42.6157 96.2012 43.7431 93.9902 43.8656C89.5814 44.1042 85.6855 44.4234 82.3022 44.8234C69.3365 46.3344 56.2732 47.9947 43.1117 49.8041C37.7256 50.5516 32.627 50.3614 27.1778 51.4984C26.0559 51.7362 25.1616 51.4291 24.495 50.5772C24.2772 50.3021 24.0045 50.2233 23.6769 50.3407C22.2129 50.8425 20.6449 51.0001 18.973 50.8136C18.8417 50.7975 18.7088 50.8186 18.5898 50.8743C18.4708 50.93 18.3704 51.0181 18.3005 51.1283C18.0778 51.4665 17.8108 51.5077 17.4995 51.2519C17.2147 51.0164 17.2557 50.8833 17.6226 50.8529C19.9442 50.6579 21.7164 49.9752 22.939 48.8048C23.1673 48.5933 23.4382 48.4854 23.7515 48.4812C24.985 48.4776 26.1342 48.15 27.1994 47.4984C27.588 47.2615 28.0017 47.2048 28.4408 47.3282C30.7891 47.9801 32.9427 47.5238 34.9018 45.9592C35.0291 45.8589 35.1122 45.7126 35.134 45.5508C35.1558 45.3889 35.1145 45.224 35.0187 45.0901C34.5041 44.3994 34.4097 43.6852 34.7356 42.9478C34.8917 42.5957 34.7761 42.4548 34.3889 42.525C33.7078 42.6597 33.0632 42.8246 32.4549 43.0198C32.0272 43.1564 32.0091 43.3363 32.4007 43.5594L32.7789 43.7824C33.0245 43.9176 33.1196 44.1217 33.0641 44.3946C32.9949 44.7208 32.7401 44.9054 32.2997 44.9486C31.0454 45.0654 30.0046 44.7438 29.1772 43.9839C28.9256 43.7619 28.6298 43.6596 28.2896 43.6769C27.6026 43.7182 26.945 43.8396 26.3167 44.0413C25.782 44.2105 25.7807 44.3771 26.3127 44.5413C26.4989 44.6028 26.6987 44.6344 26.912 44.6361C28.1918 44.6662 28.2758 45.0035 27.164 45.6481C26.5813 45.9835 25.8967 46.1481 25.1101 46.1419C24.6234 46.1381 24.422 45.8965 24.5057 45.4171L24.5999 44.8878C24.6975 44.3486 24.5053 44.2137 24.0231 44.4833C22.8915 45.1077 21.7601 45.2754 20.629 44.9865C20.2498 44.8902 19.8763 44.9106 19.5085 45.0477C18.0375 45.5894 16.6401 45.6817 15.3162 45.3246C14.9636 45.2284 14.6267 45.2591 14.3054 45.4166L12.0667 46.5189C11.9083 46.5932 11.737 46.6343 11.5632 46.6398C11.3894 46.6453 11.2169 46.6151 11.0564 46.551C9.44807 45.9049 7.80999 45.662 6.14199 45.8221C5.73501 45.8589 5.3556 45.7826 5.00375 45.5931C3.86862 44.9708 2.71858 44.9751 1.55356 45.6059C1.51479 45.6268 1.47177 45.6386 1.42776 45.6404C1.38376 45.6422 1.33993 45.634 1.29959 45.6163C1.25925 45.5986 1.22344 45.572 1.19492 45.5384C1.1664 45.5049 1.1459 45.4653 1.13498 45.4226L1.03766 45.0818C0.990386 44.8979 1.00904 44.7025 1.09049 44.5285C1.17194 44.3544 1.31126 44.2121 1.48523 44.1253C4.10198 42.8593 7.01355 41.8255 10.22 41.0242C10.3356 40.9949 10.4434 40.9407 10.5359 40.8655C10.6284 40.7903 10.7034 40.6959 10.7556 40.5887C10.8079 40.4815 10.8362 40.3642 10.8384 40.245C10.8407 40.1258 10.817 40.0076 10.7689 39.8985C10.1796 38.5405 10.5075 37.543 11.7526 36.9061C12.4822 36.5386 12.4369 36.3582 11.6168 36.365L10.1766 36.3837C9.74325 36.3869 9.50492 36.1751 9.46162 35.748C8.96008 30.874 4.32111 47.1378 4.54161 42.0094C4.54844 41.8749 4.60182 41.7473 4.69228 41.6492C4.78275 41.551 4.90448 41.4887 5.03588 41.4733C6.04363 41.3412 7.04555 41.0991 8.04171 40.747C13.5774 38.7906 19.4772 37.5572 24.8239 36.7293C39.302 34.5136 53.9934 33.0995 68.6933 30.6555C68.8268 30.6365 68.8873 30.5637 68.875 30.4369L68.8751 30.4269C68.8562 30.2801 68.7735 30.2094 68.6268 30.215C58.2214 30.8395 47.8862 31.8946 37.6208 33.3803C35.9188 33.6268 34.5041 32.9456 33.0295 32.254C32.9382 32.2124 32.8611 32.1447 32.808 32.0595C32.7549 31.9743 32.7282 31.8753 32.7311 31.775C32.734 31.6746 32.7665 31.5773 32.8245 31.4954C32.8824 31.4134 32.9633 31.3504 33.057 31.3142C34.408 30.7715 35.6775 30.4082 36.8657 30.2242C49.6554 28.2185 62.7741 26.7153 76.2225 25.7148ZM84.5953 25.0901C84.5948 25.073 84.5021 25.0588 84.3223 25.0481C84.1425 25.0375 83.8793 25.0308 83.5475 25.0282C83.2158 25.0257 82.8221 25.0274 82.3889 25.0334C81.9558 25.0393 81.4917 25.0493 81.023 25.0627C80.0767 25.09 79.1696 25.1298 78.5011 25.1734C77.8326 25.217 77.4575 25.2609 77.4583 25.2953C77.4587 25.3124 77.5515 25.3266 77.7313 25.3372C77.9111 25.3479 78.1743 25.3546 78.506 25.3572C78.8378 25.3597 79.2314 25.3579 79.6646 25.352C80.0978 25.3461 80.5619 25.3361 81.0306 25.3226C81.9769 25.2954 82.884 25.2556 83.5525 25.212C84.221 25.1684 84.5961 25.1245 84.5953 25.0901ZM36.4919 43.4217C36.5701 43.5244 36.6789 43.5996 36.8026 43.6365C36.9263 43.6734 37.0586 43.6701 37.1803 43.6271C37.6615 43.4709 37.8938 43.1794 37.8772 42.7526C37.8608 42.2991 37.629 42.1039 37.1818 42.1671L36.2907 42.3001C35.8903 42.3569 35.8121 42.5463 36.0562 42.8682L36.4919 43.4217ZM41.393 43.3004C41.1349 43.0516 40.9439 42.7601 40.8199 42.4258C40.7089 42.1249 40.5128 42.0567 40.2315 42.2211L39.498 42.6554C39.2033 42.8264 39.1114 43.069 39.2223 43.3832C40.3463 46.6822 44.9061 44.1781 47.0817 43.4853C47.1218 43.4722 47.1553 43.4492 47.1823 43.4161C47.263 43.3167 47.2706 43.2001 47.205 43.0662C47.1733 43.0018 47.1219 42.9487 47.0577 42.9142C46.9936 42.8797 46.9199 42.8655 46.8465 42.8734L42.1012 43.526C41.9763 43.5437 41.8479 43.5327 41.7255 43.4937C41.603 43.4547 41.4895 43.3886 41.393 43.3004ZM162.99 44.1204C161.807 43.6577 161.028 43.5649 160.652 43.8419C159.667 44.5675 159.786 45.0318 161.011 45.2348C161.657 45.3466 162.284 45.3415 162.892 45.2197C164.16 44.963 164.193 44.5966 162.99 44.1204ZM176.933 44.5219C176.938 44.4656 176.897 44.4064 176.814 44.3476C176.731 44.2887 176.607 44.2315 176.449 44.1792C176.291 44.1268 176.102 44.0803 175.893 44.0424C175.685 44.0045 175.46 43.9758 175.232 43.9581C175.004 43.9403 174.778 43.9338 174.566 43.939C174.353 43.9441 174.16 43.9608 173.995 43.9881C173.831 44.0154 173.7 44.0527 173.609 44.0979C173.517 44.1431 173.468 44.1954 173.464 44.2517C173.459 44.308 173.5 44.3672 173.583 44.4261C173.666 44.4849 173.79 44.5421 173.948 44.5944C174.106 44.6468 174.295 44.6933 174.504 44.7312C174.713 44.7692 174.937 44.7978 175.165 44.8155C175.393 44.8333 175.62 44.8398 175.832 44.8346C176.044 44.8295 176.238 44.8128 176.402 44.7855C176.566 44.7582 176.697 44.7209 176.789 44.6757C176.88 44.6305 176.929 44.5782 176.933 44.5219ZM167.81 46.6585C166.271 47.3664 164.406 47.615 162.214 47.4044C161.095 47.2955 160.419 47.7102 160.184 48.6484C160.154 48.7732 160.16 48.9042 160.202 49.0259C160.243 49.1475 160.318 49.2547 160.417 49.3346C160.517 49.4144 160.637 49.4636 160.763 49.4762C160.889 49.4889 161.016 49.4645 161.129 49.4059C162.909 48.5066 164.713 48.0541 166.539 48.0486C166.879 48.0446 167.194 47.9504 167.482 47.766C168.273 47.2389 169.004 46.6647 169.675 46.0433C169.884 45.8449 170.006 45.5992 170.041 45.3061C170.084 44.9531 169.983 44.659 169.738 44.4237C169.387 44.0809 169.144 44.1423 169.007 44.6079L168.699 45.6255C168.561 46.1045 168.265 46.4488 167.81 46.6585ZM147.855 45.841C147.87 45.733 147.851 45.6214 147.799 45.5126C147.747 45.4038 147.663 45.2999 147.552 45.2068C147.442 45.1137 147.306 45.0332 147.153 44.97C147 44.9068 146.833 44.8621 146.661 44.8384C146.489 44.8147 146.316 44.8125 146.152 44.832C145.988 44.8514 145.835 44.8921 145.703 44.9517C145.571 45.0113 145.462 45.0887 145.383 45.1794C145.303 45.2701 145.255 45.3723 145.24 45.4803C145.225 45.5883 145.244 45.6999 145.296 45.8087C145.348 45.9175 145.432 46.0214 145.543 46.1145C145.654 46.2076 145.79 46.2881 145.942 46.3513C146.095 46.4145 146.263 46.4592 146.434 46.4829C146.606 46.5065 146.779 46.5087 146.943 46.4893C147.108 46.4699 147.26 46.4292 147.392 46.3696C147.524 46.31 147.633 46.2326 147.712 46.1419C147.792 46.0512 147.84 45.949 147.855 45.841ZM36.0985 45.1086C36.052 45.0949 36.0087 45.0946 35.9686 45.1076C35.5074 45.2506 35.5132 45.3674 35.9858 45.4578C36.5449 45.5755 37.0614 45.5962 37.5353 45.52C37.6822 45.4945 37.7429 45.4083 37.7174 45.2614C37.7049 45.1613 37.6722 45.0711 37.6195 44.9906C37.4747 44.7628 37.2752 44.6879 37.0213 44.7659C36.8208 44.831 36.6367 44.9262 36.469 45.0516C36.3551 45.1307 36.2316 45.1497 36.0985 45.1086ZM129.834 47.3087C130.353 47.4795 130.631 47.325 130.668 46.8453C130.69 46.5588 130.558 46.3844 130.272 46.3222C129.999 46.26 129.782 46.315 129.621 46.487C129.562 46.5486 129.52 46.6241 129.499 46.7064C129.478 46.7886 129.478 46.8749 129.499 46.9572C129.52 47.0394 129.562 47.1148 129.621 47.1764C129.68 47.2379 129.753 47.2834 129.834 47.3087ZM118.893 47.4024C117.442 47.0576 115.999 47.0295 114.564 47.3182C114.513 47.3285 114.466 47.3517 114.428 47.3853C114.389 47.4189 114.36 47.4618 114.343 47.5095C114.326 47.5572 114.323 47.608 114.333 47.6568C114.343 47.7055 114.366 47.7504 114.4 47.7869C115.9 49.4521 117.4 49.444 118.9 47.7624C118.967 47.6867 119.053 47.6307 119.15 47.6007C119.246 47.5707 119.349 47.5679 119.447 47.5924C119.545 47.6169 119.634 47.6679 119.705 47.7398C119.776 47.8117 119.825 47.9017 119.848 47.9999C119.939 48.3473 120.117 48.6487 120.381 48.9042C120.626 49.1394 120.833 49.111 121.002 48.819C121.292 48.3413 121.754 48.1016 122.388 48.1C122.648 48.0954 122.789 47.9665 122.811 47.7133L122.833 47.4535C122.84 47.4135 122.823 47.3901 122.783 47.3831C121.778 47.1485 120.775 47.1539 119.773 47.3993C119.479 47.4703 119.186 47.4713 118.893 47.4024ZM149.618 51.9851C149.956 52.1877 150.329 52.284 150.736 52.2739C151.229 52.2645 151.273 52.1215 150.869 51.8449C150.524 51.6089 150.146 51.3992 149.734 51.216C149.555 51.1345 149.391 51.1099 149.244 51.1421C149.004 51.1935 148.86 51.3391 148.811 51.5787C148.79 51.6519 148.81 51.712 148.87 51.7591C148.976 51.84 149.105 51.881 149.259 51.8822C149.385 51.8899 149.505 51.9242 149.618 51.9851ZM164.954 53.4753C165.025 53.3419 164.977 53.152 164.821 52.9474C164.664 52.7429 164.412 52.5404 164.119 52.3845C163.974 52.3073 163.824 52.2438 163.677 52.1978C163.529 52.1517 163.388 52.124 163.261 52.1161C163.133 52.1082 163.022 52.1204 162.934 52.1519C162.847 52.1834 162.783 52.2336 162.748 52.2996C162.677 52.4331 162.725 52.6229 162.882 52.8275C163.038 53.0321 163.29 53.2346 163.583 53.3905C163.728 53.4677 163.878 53.5311 164.026 53.5772C164.173 53.6232 164.314 53.651 164.442 53.6588C164.569 53.6667 164.68 53.6546 164.768 53.6231C164.856 53.5916 164.919 53.5414 164.954 53.4753ZM155.575 53.6321C156.011 54.1889 156.52 54.223 157.104 53.7342C157.167 53.6834 157.214 53.6155 157.24 53.5385C157.265 53.4616 157.268 53.379 157.247 53.3006C157.227 53.2222 157.184 53.1514 157.124 53.0968C157.064 53.0422 156.99 53.006 156.91 52.9927C156.431 52.9089 155.924 52.9215 155.39 53.0307C155.056 53.1014 155.018 53.2444 155.276 53.4598C155.362 53.5338 155.462 53.5913 155.575 53.6321Z" fill="#009400"/>
<path d="M186.745 28.2102C186.745 26.0128 187.236 24.0502 188.217 22.3222C189.22 20.5728 190.575 19.2182 192.281 18.2582C194.009 17.2768 195.94 16.7862 198.073 16.7862C200.569 16.7862 202.756 17.4262 204.633 18.7062C206.511 19.9862 207.823 21.7568 208.569 24.0182H203.417C202.905 22.9515 202.18 22.1515 201.241 21.6182C200.324 21.0848 199.257 20.8182 198.041 20.8182C196.74 20.8182 195.577 21.1275 194.553 21.7462C193.551 22.3435 192.761 23.1968 192.185 24.3062C191.631 25.4155 191.353 26.7168 191.353 28.2102C191.353 29.6822 191.631 30.9835 192.185 32.1142C192.761 33.2235 193.551 34.0875 194.553 34.7062C195.577 35.3035 196.74 35.6022 198.041 35.6022C199.257 35.6022 200.324 35.3355 201.241 34.8022C202.18 34.2475 202.905 33.4368 203.417 32.3702H208.569C207.823 34.6528 206.511 36.4342 204.633 37.7142C202.777 38.9728 200.591 39.6022 198.073 39.6022C195.94 39.6022 194.009 39.1222 192.281 38.1622C190.575 37.1808 189.22 35.8262 188.217 34.0982C187.236 32.3702 186.745 30.4075 186.745 28.2102ZM220.268 39.6982C218.561 39.6982 217.025 39.3248 215.66 38.5782C214.294 37.8102 213.217 36.7328 212.428 35.3462C211.66 33.9595 211.276 32.3595 211.276 30.5462C211.276 28.7328 211.67 27.1328 212.46 25.7462C213.27 24.3595 214.369 23.2928 215.756 22.5462C217.142 21.7782 218.689 21.3942 220.396 21.3942C222.102 21.3942 223.649 21.7782 225.036 22.5462C226.422 23.2928 227.51 24.3595 228.3 25.7462C229.11 27.1328 229.516 28.7328 229.516 30.5462C229.516 32.3595 229.1 33.9595 228.268 35.3462C227.457 36.7328 226.348 37.8102 224.94 38.5782C223.553 39.3248 221.996 39.6982 220.268 39.6982ZM220.268 35.7942C221.078 35.7942 221.836 35.6022 222.54 35.2182C223.265 34.8128 223.841 34.2155 224.268 33.4262C224.694 32.6368 224.908 31.6768 224.908 30.5462C224.908 28.8608 224.46 27.5702 223.564 26.6742C222.689 25.7568 221.612 25.2982 220.332 25.2982C219.052 25.2982 217.974 25.7568 217.1 26.6742C216.246 27.5702 215.82 28.8608 215.82 30.5462C215.82 32.2315 216.236 33.5328 217.068 34.4502C217.921 35.3462 218.988 35.7942 220.268 35.7942ZM237.282 24.4342C237.858 23.4955 238.605 22.7595 239.522 22.2262C240.461 21.6928 241.527 21.4262 242.722 21.4262V26.1302H241.538C240.13 26.1302 239.063 26.4608 238.338 27.1222C237.634 27.7835 237.282 28.9355 237.282 30.5782V39.4102H232.802V21.6822H237.282V24.4342ZM262.219 30.1622C262.219 30.8022 262.177 31.3782 262.091 31.8902H249.131C249.238 33.1702 249.686 34.1728 250.475 34.8982C251.265 35.6235 252.235 35.9862 253.387 35.9862C255.051 35.9862 256.235 35.2715 256.939 33.8422H261.771C261.259 35.5488 260.278 36.9568 258.827 38.0662C257.377 39.1542 255.595 39.6982 253.483 39.6982C251.777 39.6982 250.241 39.3248 248.875 38.5782C247.531 37.8102 246.475 36.7328 245.707 35.3462C244.961 33.9595 244.587 32.3595 244.587 30.5462C244.587 28.7115 244.961 27.1008 245.707 25.7142C246.454 24.3275 247.499 23.2608 248.843 22.5142C250.187 21.7675 251.734 21.3942 253.483 21.3942C255.169 21.3942 256.673 21.7568 257.995 22.4822C259.339 23.2075 260.374 24.2422 261.099 25.5862C261.846 26.9088 262.219 28.4342 262.219 30.1622ZM257.579 28.8822C257.558 27.7302 257.142 26.8128 256.331 26.1302C255.521 25.4262 254.529 25.0742 253.355 25.0742C252.246 25.0742 251.307 25.4155 250.539 26.0982C249.793 26.7595 249.334 27.6875 249.163 28.8822H257.579ZM286.906 17.0742V20.6902H277.594V26.4182H284.73V29.9702H277.594V39.4102H273.114V17.0742H286.906ZM306.563 30.1622C306.563 30.8022 306.521 31.3782 306.435 31.8902H293.475C293.582 33.1702 294.03 34.1728 294.819 34.8982C295.609 35.6235 296.579 35.9862 297.731 35.9862C299.395 35.9862 300.579 35.2715 301.283 33.8422H306.115C305.603 35.5488 304.622 36.9568 303.171 38.0662C301.721 39.1542 299.939 39.6982 297.827 39.6982C296.121 39.6982 294.585 39.3248 293.219 38.5782C291.875 37.8102 290.819 36.7328 290.051 35.3462C289.305 33.9595 288.931 32.3595 288.931 30.5462C288.931 28.7115 289.305 27.1008 290.051 25.7142C290.798 24.3275 291.843 23.2608 293.187 22.5142C294.531 21.7675 296.078 21.3942 297.827 21.3942C299.513 21.3942 301.017 21.7568 302.339 22.4822C303.683 23.2075 304.718 24.2422 305.443 25.5862C306.19 26.9088 306.563 28.4342 306.563 30.1622ZM301.923 28.8822C301.902 27.7302 301.486 26.8128 300.675 26.1302C299.865 25.4262 298.873 25.0742 297.699 25.0742C296.59 25.0742 295.651 25.4155 294.883 26.0982C294.137 26.7595 293.678 27.6875 293.507 28.8822H301.923ZM308.681 30.4822C308.681 28.6902 309.033 27.1008 309.737 25.7142C310.463 24.3275 311.433 23.2608 312.649 22.5142C313.887 21.7675 315.263 21.3942 316.777 21.3942C318.1 21.3942 319.252 21.6608 320.233 22.1942C321.236 22.7275 322.036 23.3995 322.633 24.2102V21.6822H327.145V39.4102H322.633V36.8182C322.057 37.6502 321.257 38.3435 320.233 38.8982C319.231 39.4315 318.068 39.6982 316.745 39.6982C315.252 39.6982 313.887 39.3142 312.649 38.5462C311.433 37.7782 310.463 36.7008 309.737 35.3142C309.033 33.9062 308.681 32.2955 308.681 30.4822ZM322.633 30.5462C322.633 29.4582 322.42 28.5302 321.993 27.7622C321.567 26.9728 320.991 26.3755 320.265 25.9702C319.54 25.5435 318.761 25.3302 317.929 25.3302C317.097 25.3302 316.329 25.5328 315.625 25.9382C314.921 26.3435 314.345 26.9408 313.897 27.7302C313.471 28.4982 313.257 29.4155 313.257 30.4822C313.257 31.5488 313.471 32.4875 313.897 33.2982C314.345 34.0875 314.921 34.6955 315.625 35.1222C316.351 35.5488 317.119 35.7622 317.929 35.7622C318.761 35.7622 319.54 35.5595 320.265 35.1542C320.991 34.7275 321.567 34.1302 321.993 33.3622C322.42 32.5728 322.633 31.6342 322.633 30.5462ZM336.737 25.3622V33.9382C336.737 34.5355 336.875 34.9728 337.153 35.2502C337.451 35.5062 337.942 35.6342 338.625 35.6342H340.705V39.4102H337.889C334.113 39.4102 332.225 37.5755 332.225 33.9062V25.3622H330.113V21.6822H332.225V17.2982H336.737V21.6822H340.705V25.3622H336.737ZM360.663 21.6822V39.4102H356.151V37.1702C355.575 37.9382 354.818 38.5462 353.879 38.9942C352.962 39.4208 351.959 39.6342 350.871 39.6342C349.484 39.6342 348.258 39.3462 347.191 38.7702C346.124 38.1728 345.282 37.3088 344.663 36.1782C344.066 35.0262 343.767 33.6608 343.767 32.0822V21.6822H348.247V31.4422C348.247 32.8502 348.599 33.9382 349.303 34.7062C350.007 35.4528 350.967 35.8262 352.183 35.8262C353.42 35.8262 354.391 35.4528 355.095 34.7062C355.799 33.9382 356.151 32.8502 356.151 31.4422V21.6822H360.663ZM369.563 24.4342C370.139 23.4955 370.886 22.7595 371.803 22.2262C372.742 21.6928 373.809 21.4262 375.003 21.4262V26.1302H373.819C372.411 26.1302 371.345 26.4608 370.619 27.1222C369.915 27.7835 369.563 28.9355 369.563 30.5782V39.4102H365.083V21.6822H369.563V24.4342ZM394.501 30.1622C394.501 30.8022 394.458 31.3782 394.373 31.8902H381.413C381.519 33.1702 381.967 34.1728 382.757 34.8982C383.546 35.6235 384.517 35.9862 385.669 35.9862C387.333 35.9862 388.517 35.2715 389.221 33.8422H394.053C393.541 35.5488 392.559 36.9568 391.109 38.0662C389.658 39.1542 387.877 39.6982 385.765 39.6982C384.058 39.6982 382.522 39.3248 381.157 38.5782C379.813 37.8102 378.757 36.7328 377.989 35.3462C377.242 33.9595 376.869 32.3595 376.869 30.5462C376.869 28.7115 377.242 27.1008 377.989 25.7142C378.735 24.3275 379.781 23.2608 381.125 22.5142C382.469 21.7675 384.015 21.3942 385.765 21.3942C387.45 21.3942 388.954 21.7568 390.277 22.4822C391.621 23.2075 392.655 24.2422 393.381 25.5862C394.127 26.9088 394.501 28.4342 394.501 30.1622ZM389.861 28.8822C389.839 27.7302 389.423 26.8128 388.613 26.1302C387.802 25.4262 386.81 25.0742 385.637 25.0742C384.527 25.0742 383.589 25.4155 382.821 26.0982C382.074 26.7595 381.615 27.6875 381.445 28.8822H389.861ZM404.555 39.6982C403.104 39.6982 401.803 39.4422 400.651 38.9302C399.499 38.3968 398.581 37.6822 397.899 36.7862C397.237 35.8902 396.875 34.8982 396.811 33.8102H401.323C401.408 34.4928 401.739 35.0582 402.315 35.5062C402.912 35.9542 403.648 36.1782 404.523 36.1782C405.376 36.1782 406.037 36.0075 406.507 35.6662C406.997 35.3248 407.243 34.8875 407.243 34.3542C407.243 33.7782 406.944 33.3515 406.347 33.0742C405.771 32.7755 404.843 32.4555 403.563 32.1142C402.24 31.7942 401.152 31.4635 400.299 31.1222C399.467 30.7808 398.741 30.2582 398.123 29.5542C397.525 28.8502 397.227 27.9008 397.227 26.7062C397.227 25.7248 397.504 24.8288 398.059 24.0182C398.635 23.2075 399.445 22.5675 400.491 22.0982C401.557 21.6288 402.805 21.3942 404.235 21.3942C406.347 21.3942 408.032 21.9275 409.291 22.9942C410.549 24.0395 411.243 25.4582 411.371 27.2502H407.083C407.019 26.5462 406.72 25.9915 406.187 25.5862C405.675 25.1595 404.981 24.9462 404.107 24.9462C403.296 24.9462 402.667 25.0955 402.219 25.3942C401.792 25.6928 401.579 26.1088 401.579 26.6422C401.579 27.2395 401.877 27.6982 402.475 28.0182C403.072 28.3168 404 28.6262 405.259 28.9462C406.539 29.2662 407.595 29.5968 408.427 29.9382C409.259 30.2795 409.973 30.8128 410.571 31.5382C411.189 32.2422 411.509 33.1808 411.531 34.3542C411.531 35.3782 411.243 36.2955 410.667 37.1062C410.112 37.9168 409.301 38.5568 408.235 39.0262C407.189 39.4742 405.963 39.6982 404.555 39.6982Z" fill="white"/>
</svg>
