<svg width="618" height="66" viewBox="0 0 618 66" fill="none" xmlns="http://www.w3.org/2000/svg">
<path d="M104.408 27.4685C104.422 27.4674 104.437 27.4642 104.449 27.4591C104.462 27.454 104.473 27.4471 104.483 27.4388C104.492 27.4305 104.498 27.4209 104.502 27.4107C104.506 27.4005 104.507 27.3898 104.505 27.3793L104.48 27.1291C104.471 27.0157 104.389 26.9617 104.232 26.9671C89.7444 27.4527 75.2414 28.135 60.7229 29.0137C56.3166 29.2789 52.4738 28.7852 49.1944 27.5326C48.7351 27.3556 48.4517 27.0867 48.3439 26.7259L48.075 25.7737C47.9765 25.4129 47.6976 25.1507 47.2382 24.9871C46.7788 24.8235 46.4537 24.5742 46.2629 24.2394C45.9902 23.7639 46.2085 23.5456 46.9176 23.5845C47.4242 23.6085 47.89 23.5322 48.3153 23.3556C48.5716 23.2476 48.7773 23.0861 48.9056 22.8922C49.0338 22.6983 49.0785 22.4811 49.0338 22.269C48.9892 22.0568 48.8574 21.8597 48.6555 21.7032C48.4536 21.5468 48.1911 21.4384 47.9023 21.3922C43.8351 20.7268 40.3711 19.5327 37.51 17.8101C37.406 17.7465 37.329 17.6631 37.2876 17.5694C37.2463 17.4757 37.2424 17.3756 37.2764 17.2807C37.3104 17.1857 37.3809 17.0998 37.4798 17.0329C37.5786 16.966 37.7018 16.9208 37.835 16.9026C42.8156 16.2419 47.784 15.3711 52.8737 14.9013C77.7874 12.5979 102.792 11.0053 127.888 10.1234C167.398 8.74195 204.528 8.21508 239.28 8.54279C256.444 8.70498 554.965 4.15876 574.895 5.30947C578.846 5.53067 582.766 6.12163 586.687 6.6426C587.046 6.69223 587.375 6.82295 587.624 7.01563C587.874 7.20831 588.032 7.45286 588.074 7.71358C588.383 9.51606 588.258 11.3218 587.7 13.1308C587.029 15.3056 586.688 16.9496 586.68 18.0629C586.666 19.7228 586.653 21.4061 586.64 23.1127C586.641 23.2304 586.605 23.3465 586.535 23.4524C586.464 23.5583 586.361 23.6512 586.233 23.7243C586.105 23.7973 585.955 23.8486 585.795 23.8742C585.634 23.8998 585.468 23.8991 585.307 23.8722C584.12 23.6762 582.94 23.7035 581.768 23.9543C581.168 24.0896 581.107 24.3024 581.584 24.5928C582.024 24.863 582.525 25.0336 583.086 25.1047C583.377 25.1468 583.65 25.2423 583.878 25.3822C584.107 25.5221 584.284 25.702 584.393 25.9051C584.592 26.28 584.631 26.6503 584.508 27.016C584.357 27.5082 584.622 27.7903 585.303 27.8623C592.539 28.6595 600.529 29.5426 609.275 30.5117C610.683 30.6628 612.187 30.9413 613.787 31.3473C614.129 31.4348 614.432 31.587 614.664 31.7878C614.896 31.9886 615.049 32.2305 615.105 32.4877C615.747 35.2329 616.007 37.905 615.885 40.5042C615.752 43.2932 615.865 37.7139 615.885 40.5042C615.889 41.1242 616.328 39.2709 615.855 39.7539C615.576 40.0383 615.688 39.8896 615.897 40.2046L615.534 40.7514C615.78 41.1067 615.298 38.3894 615.056 38.7475C613.974 40.3924 618.915 40.6947 615.885 40.5042C614.522 40.4201 615.001 39.8055 616.177 40.3081C616.939 40.6342 614.871 40.5761 615.885 40.5042C616.678 40.4504 616.184 40.2298 615.876 40.7541C614.994 42.2371 617.747 39.1788 615.885 40.5042C614.903 41.1964 613.917 41.882 612.925 42.5609C612.601 42.785 612.488 43.0574 612.587 43.3782C612.731 43.8394 612.585 44.2082 612.15 44.4848C611.854 44.6758 611.498 44.763 611.084 44.7464C608.837 44.6353 606.537 44.7438 604.185 45.0719C604.052 45.0889 603.932 45.1368 603.841 45.2085C603.751 45.2802 603.696 45.3718 603.684 45.4697C603.673 45.5675 603.705 45.6663 603.777 45.7512C603.848 45.8362 603.955 45.9028 604.081 45.9411L611.1 48.0066C611.298 48.0652 611.475 48.1559 611.618 48.2717C611.761 48.3875 611.865 48.5255 611.923 48.6747C611.98 48.824 611.99 48.9807 611.95 49.1327C611.911 49.2847 611.824 49.428 611.696 49.5514C611.157 50.0738 610.478 50.2418 609.66 50.0553C609.228 49.9586 608.799 49.9619 608.375 50.0652C598.57 52.5078 586.631 52.3336 576.544 52.0139C571.727 51.8559 286.929 56.9771 282.101 56.9723C275.605 56.9611 269.098 56.6597 262.726 56.7794C250.691 57.011 238.275 57.1197 225.477 57.1053C222.778 57.0973 220.04 57.2391 217.264 57.5305C214.83 57.7779 211.91 57.7349 208.503 57.4013C208.181 57.3721 208.062 57.2445 208.147 57.0185C208.184 56.9254 208.24 56.8359 208.315 56.7498C208.38 56.677 208.477 56.6278 208.606 56.6021C209.243 56.4671 209.802 56.2349 210.284 55.9053C210.72 55.5954 210.633 55.4181 210.026 55.3733C207.549 55.187 205.314 55.2427 203.321 55.5403C202.869 55.6034 202.423 55.5866 201.981 55.4897C199.893 55.0466 197.865 55.1339 195.898 55.7518C195.473 55.8884 195.035 55.9149 194.584 55.8314L192.611 55.4558C192.041 55.3446 192.046 55.2413 192.627 55.1459L194.938 54.7541C195.03 54.7398 195.112 54.7049 195.172 54.6548C195.232 54.6047 195.268 54.5422 195.272 54.4768L195.302 54.217C195.312 54.1186 195.289 54.0198 195.236 53.9288C195.182 53.8379 195.1 53.7573 194.995 53.6939C194.89 53.6304 194.766 53.586 194.632 53.5642C194.499 53.5424 194.361 53.5439 194.229 53.5685C192.282 53.9331 190.213 54.0935 188.02 54.0495C187.79 54.041 187.652 53.9566 187.607 53.7962L187.418 53.2547C187.328 52.974 187.481 52.8585 187.877 52.9083C190.086 53.1658 192.386 53.0739 194.776 52.6328C197.045 52.2207 199.17 52.7175 201.448 52.9555C201.927 53.0059 202.347 52.9226 202.708 52.7054C202.875 52.6001 203.014 52.4778 203.125 52.3387C203.339 52.0737 203.663 51.9596 204.096 51.9964C206.72 52.2371 209.309 52.1375 211.865 51.6977C213.286 51.4555 214.724 51.3536 216.18 51.3917C216.454 51.3991 216.728 51.3592 216.976 51.2753C217.225 51.1914 217.443 51.066 217.611 50.9093C217.78 50.7526 217.894 50.569 217.945 50.3736C217.997 50.1783 217.983 49.9767 217.906 49.7853C217.508 48.8222 216.711 48.2692 215.514 48.1264C215.411 48.1157 215.306 48.1202 215.206 48.1396C215.106 48.159 215.012 48.1929 214.931 48.2392C214.851 48.2854 214.784 48.343 214.737 48.4085C214.689 48.4739 214.661 48.5458 214.654 48.6196C214.506 49.7985 213.56 50.5877 211.815 50.9873C211.335 51.0968 210.991 50.9841 210.782 50.6491L209.321 48.2875C209.085 47.9123 209.184 47.5964 209.619 47.3398C210.378 46.8991 211.175 46.8988 212.01 47.3387C212.386 47.5283 212.791 47.5815 213.225 47.4983C213.585 47.4211 213.876 47.2601 214.1 47.0152C214.146 46.9625 214.171 46.9015 214.173 46.8389C214.174 46.7763 214.152 46.7145 214.108 46.6604C214.064 46.6063 214 46.5619 213.924 46.5322C213.848 46.5024 213.762 46.4884 213.675 46.4918L204.981 46.6932C204.842 46.6921 204.759 46.7448 204.731 46.8512L204.644 47.2905C204.587 47.5301 204.724 47.6512 205.056 47.6538L207.529 47.7133C207.702 47.7187 207.868 47.7609 208.007 47.8346C208.147 47.9083 208.253 48.0102 208.313 48.1274C208.373 48.2446 208.383 48.3718 208.343 48.493C208.303 48.6141 208.214 48.7236 208.087 48.8078L204.461 51.1892C204.063 51.4461 203.625 51.4893 203.147 51.3188C202.036 50.91 200.89 50.771 199.709 50.9017C199.485 50.9272 199.254 50.89 199.065 50.7975C198.876 50.7051 198.742 50.5643 198.691 50.4036L197.773 47.6263C197.656 47.272 197.348 47.0896 196.851 47.079C194.898 47.0302 193.141 47.2831 191.579 47.8374C191.173 47.9809 190.791 47.9579 190.433 47.7684C189.267 47.1725 188.211 47.3675 187.263 48.3533C186.985 48.6578 186.634 48.705 186.212 48.495C185.918 48.3594 185.731 48.1712 185.65 47.9306C185.601 47.788 185.486 47.6613 185.324 47.5711C185.161 47.4808 184.961 47.4323 184.755 47.4335L184.064 47.448C183.484 47.4568 183.316 47.6522 183.562 48.0341C183.862 48.4898 184.265 48.8897 184.769 49.2337C185.245 49.5641 185.156 49.7601 184.502 49.8216C183.644 49.8948 182.767 50.1112 181.87 50.4708C181.482 50.6344 181.077 50.6546 180.654 50.5312C180.479 50.4832 180.304 50.4385 180.13 50.3971C179.679 50.2935 179.333 50.3841 179.091 50.6689C178.328 51.5629 177.351 51.6552 176.159 50.9457C175.609 50.6147 175.129 50.6576 174.721 51.0744C174.182 51.6168 173.424 51.9475 172.446 52.0665C172.068 52.1168 171.709 52.094 171.369 51.9979C170.302 51.6829 170.345 51.5365 171.497 51.559C173.21 51.5858 174.211 50.7804 174.501 49.1426C174.607 48.5701 174.304 48.421 173.592 48.6954C173.463 48.7477 173.329 48.8033 173.19 48.8622C172.94 48.9736 172.746 49.1188 172.606 49.2977C171.983 50.0994 171.055 50.3488 169.822 50.0457C169.744 50.0294 169.663 50.0251 169.584 50.0331C169.506 50.0411 169.431 50.0612 169.366 50.0921C169.135 50.2036 169.037 50.3428 169.072 50.5098C169.126 50.6902 169.029 50.7861 168.78 50.7975C167.25 50.8721 166.623 51.4672 166.9 52.5827C167.016 53.0436 166.775 53.1851 166.178 53.007C165.415 52.7743 164.614 52.7047 163.775 52.798C160.584 53.1529 157.636 53.0696 154.932 52.5482C154.809 52.5238 154.697 52.4756 154.608 52.4089C154.519 52.3422 154.458 52.2596 154.43 52.1703C154.402 52.081 154.409 51.9885 154.45 51.903C154.491 51.8175 154.564 51.7424 154.662 51.686C155.292 51.311 155.636 50.8437 155.696 50.2842C155.736 49.9311 155.507 49.746 155.009 49.7287C151.306 49.5928 147.887 49.7092 144.752 50.0778C135.926 51.1214 127.311 51.7901 118.905 52.0837C117.431 52.1321 116.217 52.4026 115.264 52.895C115.127 52.9633 114.963 52.9976 114.796 52.9926C114.629 52.9877 114.468 52.9439 114.338 52.8677C114.109 52.7392 113.926 52.5811 113.789 52.3934C113.561 52.0782 113.199 51.9487 112.701 52.0048C110.718 52.2091 108.797 52.2073 106.937 51.9993C105.294 51.8163 104.045 52.5465 102.482 52.6641C93.2994 53.3816 84.2943 54.4106 75.1421 54.7883C71.7596 54.9216 68.192 55.1701 64.4391 55.5338C57.9109 56.1523 51.2626 56.2399 44.4979 57.0565C41.5467 57.4065 38.6101 57.6766 35.6878 57.8669C27.9167 58.3656 18.6305 59.399 7.82882 60.9671C7.7265 60.9806 7.62043 60.9638 7.53307 60.9202C7.44571 60.8766 7.38392 60.8096 7.36077 60.7334L7.28015 60.4427C7.22661 60.2223 7.35201 60.0966 7.65631 60.0657C10.9617 59.7818 13.7341 58.7236 17.0828 58.2C26.1788 56.7785 34.8672 55.6004 43.1485 54.6657C65.3273 52.1741 92.3901 49.5076 124.338 46.6665C128.524 46.2995 132.405 46.0602 135.981 45.9484C136.663 45.9271 137.244 45.7717 137.726 45.4821C138.152 45.2322 138.098 45.0617 137.564 44.9709C134.279 44.4349 132.073 45.5575 129.017 45.6734C122.925 45.8986 117.542 46.2062 112.868 46.5959C94.9537 48.0679 76.9054 49.6888 58.7219 51.4586C51.2807 52.1898 44.2339 51.9842 36.7067 53.1048C35.1569 53.3393 33.9201 53.0295 32.9963 52.1755C32.6944 51.8998 32.3173 51.8201 31.8649 51.9366C29.8432 52.4339 27.6768 52.5868 25.3656 52.3953C25.1842 52.3788 25.0006 52.3995 24.8363 52.4548C24.6719 52.5102 24.5335 52.5979 24.4372 52.7079C24.1305 53.0455 23.7616 53.0859 23.3306 52.8292C22.9363 52.5927 22.9926 52.4598 23.4996 52.4305C26.7075 52.2425 29.1544 51.5651 30.8405 50.3984C31.1555 50.1876 31.5295 50.0805 31.9625 50.0773C33.6671 50.0774 35.2544 49.7533 36.7245 49.1048C37.2607 48.8691 37.8324 48.8136 38.4395 48.9384C41.6868 49.5974 44.6616 49.1475 47.3644 47.5888C47.5399 47.4889 47.6544 47.3429 47.684 47.1811C47.7136 47.0193 47.6561 46.8542 47.5233 46.72C46.8101 46.0277 46.6775 45.3133 47.1256 44.5768C47.3403 44.2252 47.1802 44.0839 46.6452 44.153C45.7044 44.2856 44.814 44.4486 43.974 44.6419C43.3833 44.7773 43.3588 44.9571 43.9006 45.1814L44.424 45.4055C44.7639 45.5415 44.8959 45.7459 44.82 46.0187C44.7253 46.3446 44.3737 46.5285 43.7653 46.5704C42.0322 46.6834 40.5928 46.3586 39.4471 45.5962C39.0988 45.3735 38.6896 45.2703 38.2196 45.2865C37.2703 45.3257 36.3618 45.4452 35.4941 45.645C34.7557 45.8125 34.7544 45.9792 35.4902 46.145C35.7477 46.207 36.0238 46.2392 36.3186 46.2416C38.0874 46.2755 38.2045 46.6131 36.6699 47.2544C35.8657 47.588 34.9201 47.7506 33.8329 47.742C33.1603 47.7367 32.8812 47.4945 32.9956 47.0153L33.1241 46.4864C33.2574 45.9474 32.9913 45.8119 32.3258 46.08C30.7637 46.701 29.2007 46.8654 27.6367 46.573C27.1123 46.4756 26.5962 46.4948 26.0883 46.6308C24.0571 47.1681 22.1261 47.2562 20.2955 46.8951C19.8079 46.7979 19.3424 46.8275 18.8989 46.984L15.8083 48.0797C15.5897 48.1535 15.353 48.1941 15.1129 48.1991C14.8727 48.204 14.6342 48.1733 14.4122 48.1087C12.1876 47.4577 9.92303 47.2098 7.61837 47.365C7.05605 47.4006 6.53147 47.3231 6.04465 47.1326C4.47404 46.5068 2.88472 46.5076 1.27658 47.1349C1.22307 47.1557 1.16364 47.1674 1.10284 47.169C1.04203 47.1707 0.981439 47.1623 0.925633 47.1445C0.869827 47.1267 0.820254 47.1 0.78074 47.0664C0.741225 47.0327 0.712784 46.993 0.697555 46.9504L0.562034 46.6093C0.49615 46.4252 0.521341 46.2299 0.633379 46.0561C0.745417 45.8822 0.937526 45.7403 1.17768 45.6541C4.79018 44.3959 8.8108 43.3709 13.2397 42.5792C13.3993 42.5503 13.5481 42.4965 13.6757 42.4215C13.8033 42.3466 13.9067 42.2524 13.9786 42.1454C14.0505 42.0383 14.0892 41.9211 14.092 41.8019C14.0948 41.6827 14.0616 41.5644 13.9948 41.4552C13.1763 40.0953 13.6265 39.0988 15.3452 38.4657C16.3524 38.1003 16.2893 37.9198 15.156 37.9242L13.1657 37.9385C12.5668 37.9404 12.2368 37.7278 12.1757 37.3007C11.4678 32.425 5.10592 48.6752 5.39517 43.5473C5.4042 43.4129 5.47759 43.2854 5.60232 43.1876C5.72705 43.0897 5.89509 43.0278 6.07663 43.0127C7.46892 42.8837 8.85284 42.6446 10.2284 42.2954C17.8727 40.3557 26.0225 39.14 33.4091 38.3283C53.4109 36.1562 73.7099 34.7864 94.0175 32.3866C94.2019 32.3681 94.2854 32.2954 94.268 32.1686L94.2681 32.1586C94.2416 32.0117 94.127 31.9408 93.9242 31.9459C79.5462 32.5391 65.2662 33.563 51.084 35.0178C48.7326 35.2592 46.7755 34.5737 44.7356 33.8776C44.6092 33.8357 44.5025 33.7678 44.4289 33.6825C44.3553 33.5971 44.318 33.498 44.3217 33.3977C44.3255 33.2973 44.3701 33.2002 44.4499 33.1184C44.5298 33.0366 44.6414 32.9738 44.7707 32.9379C46.6361 32.3992 48.3895 32.0397 50.031 31.8594C67.7001 29.8921 85.8254 28.4285 104.408 27.4685ZM115.977 26.869C115.976 26.852 115.848 26.8374 115.6 26.8263C115.351 26.8151 114.987 26.8076 114.529 26.8041C114.07 26.8005 113.526 26.8011 112.928 26.8057C112.329 26.8103 111.688 26.8189 111.04 26.831C109.732 26.8553 108.479 26.8924 107.555 26.934C106.631 26.9756 106.113 27.0183 106.114 27.0528C106.115 27.0698 106.243 27.0844 106.492 27.0955C106.74 27.1067 107.104 27.1142 107.563 27.1178C108.021 27.1213 108.565 27.1207 109.164 27.1161C109.762 27.1115 110.404 27.1029 111.051 27.0909C112.359 27.0665 113.613 27.0294 114.536 26.9878C115.46 26.9462 115.978 26.9035 115.977 26.869ZM49.5542 45.056C49.6626 45.1589 49.8132 45.2345 49.9843 45.2718C50.1554 45.309 50.3381 45.3062 50.5062 45.2635C51.1708 45.1088 51.4909 44.818 51.4667 44.3911C51.4426 43.9376 51.1217 43.7417 50.5039 43.8035L49.2728 43.9338C48.7196 43.9894 48.6121 44.1785 48.9505 44.5012L49.5542 45.056ZM56.3271 44.9495C55.9697 44.7 55.7048 44.4079 55.5324 44.0732C55.3782 43.772 55.1069 43.7031 54.7186 43.8667L53.7063 44.2988C53.2996 44.4689 53.1733 44.7112 53.3274 45.0258C54.8907 48.3282 61.1849 45.8378 64.1893 45.1515C64.2447 45.1386 64.291 45.1157 64.3281 45.0827C64.4395 44.9835 64.4496 44.8669 64.3585 44.7329C64.3145 44.6683 64.2432 44.6151 64.1545 44.5804C64.0658 44.5457 63.9639 44.5312 63.8625 44.539L57.3066 45.1772C57.1339 45.1946 56.9565 45.1832 56.7872 45.1438C56.6178 45.1044 56.4607 45.0381 56.3271 44.9495ZM224.375 46.1363C222.739 45.67 221.662 45.5748 221.143 45.8508C219.783 46.5734 219.95 47.038 221.644 47.2447C222.537 47.3585 223.403 47.3553 224.242 47.2353C225.995 46.9824 226.039 46.6161 224.375 46.1363ZM243.645 46.5798C243.651 46.5235 243.595 46.4642 243.48 46.4051C243.365 46.3461 243.193 46.2885 242.975 46.2356C242.756 46.1828 242.495 46.1357 242.207 46.0972C241.918 46.0586 241.607 46.0293 241.292 46.0108C240.978 45.9924 240.665 45.9852 240.371 45.9898C240.078 45.9943 239.811 46.0104 239.584 46.0372C239.357 46.0639 239.175 46.1008 239.049 46.1458C238.923 46.1907 238.856 46.2429 238.85 46.2992C238.844 46.3554 238.9 46.4148 239.015 46.4739C239.13 46.5329 239.302 46.5905 239.52 46.6434C239.739 46.6962 240 46.7432 240.288 46.7818C240.577 46.8204 240.888 46.8497 241.203 46.8681C241.518 46.8866 241.831 46.8938 242.124 46.8892C242.417 46.8847 242.685 46.8686 242.911 46.8418C243.138 46.8151 243.32 46.7781 243.446 46.7332C243.572 46.6882 243.64 46.6361 243.645 46.5798ZM231.044 48.689C228.919 49.3922 226.342 49.6352 223.313 49.418C221.766 49.3058 220.832 49.7184 220.511 50.6559C220.47 50.7806 220.479 50.9116 220.536 51.0334C220.593 51.1552 220.697 51.2626 220.835 51.3428C220.973 51.4229 221.139 51.4725 221.313 51.4855C221.487 51.4985 221.663 51.4745 221.818 51.4163C224.276 50.5223 226.767 50.0753 229.292 50.0752C229.762 50.0723 230.195 49.979 230.593 49.7955C231.684 49.2708 232.693 48.6987 233.62 48.0793C233.907 47.8816 234.074 47.6362 234.123 47.3433C234.181 46.9904 234.04 46.6959 233.701 46.4599C233.216 46.1161 232.879 46.1767 232.691 46.6419L232.268 47.6586C232.08 48.1372 231.672 48.4806 231.044 48.689ZM203.464 47.8112C203.484 47.7033 203.457 47.5916 203.385 47.4827C203.313 47.3737 203.197 47.2695 203.044 47.1761C202.89 47.0827 202.702 47.0018 202.491 46.9381C202.279 46.8745 202.048 46.8293 201.81 46.8051C201.573 46.7809 201.334 46.7781 201.107 46.7971C200.88 46.816 200.669 46.8563 200.487 46.9155C200.305 46.9747 200.155 47.0517 200.045 47.1422C199.936 47.2326 199.869 47.3347 199.849 47.4427C199.828 47.5506 199.855 47.6623 199.927 47.7712C199.999 47.8802 200.115 47.9844 200.269 48.0778C200.423 48.1713 200.61 48.2521 200.822 48.3158C201.034 48.3794 201.265 48.4247 201.502 48.4489C201.739 48.4731 201.978 48.4758 202.206 48.4568C202.433 48.4379 202.643 48.3977 202.825 48.3385C203.008 48.2792 203.158 48.2022 203.267 48.1117C203.377 48.0213 203.444 47.9192 203.464 47.8112ZM49.0157 46.7418C48.9513 46.728 48.8915 46.7275 48.8361 46.7404C48.1992 46.8821 48.2075 46.9988 48.8609 47.0906C49.6339 47.2101 50.3478 47.2323 51.0026 47.1575C51.2055 47.1325 51.2891 47.0464 51.2534 46.8995C51.2358 46.7993 51.1904 46.709 51.1173 46.6284C50.9164 46.4002 50.6406 46.3246 50.2899 46.4019C50.013 46.4663 49.7589 46.561 49.5275 46.6859C49.3703 46.7646 49.1996 46.7833 49.0157 46.7418ZM178.563 49.2247C179.281 49.397 179.664 49.2434 179.714 48.7638C179.744 48.4773 179.561 48.3025 179.165 48.2394C178.788 48.1764 178.488 48.2307 178.266 48.4023C178.185 48.4637 178.127 48.5391 178.098 48.6213C178.069 48.7035 178.07 48.7898 178.099 48.8721C178.129 48.9544 178.187 49.03 178.269 49.0917C178.35 49.1533 178.451 49.1991 178.563 49.2247ZM163.443 49.2853C161.437 48.9361 159.443 48.9037 157.46 49.1881C157.39 49.1983 157.326 49.2213 157.272 49.2548C157.219 49.2883 157.178 49.3311 157.156 49.3787C157.133 49.4264 157.128 49.4772 157.142 49.526C157.156 49.5747 157.188 49.6197 157.235 49.6563C159.313 51.3261 161.386 51.3225 163.454 49.6454C163.546 49.5699 163.665 49.5142 163.798 49.4845C163.931 49.4548 164.073 49.4522 164.209 49.477C164.344 49.5018 164.468 49.5531 164.566 49.6252C164.664 49.6973 164.733 49.7874 164.765 49.8858C164.892 50.2334 165.138 50.5354 165.504 50.7916C165.843 51.0277 166.129 50.9999 166.362 50.7084C166.762 50.2315 167.4 49.9932 168.275 49.9935C168.634 49.9897 168.829 49.8612 168.858 49.6081L168.888 49.3483C168.898 49.3084 168.875 49.2849 168.82 49.2778C167.43 49.0401 166.043 49.0425 164.659 49.2849C164.254 49.3551 163.848 49.3552 163.443 49.2853ZM205.918 53.9608C206.387 54.1645 206.902 54.2619 207.464 54.253C208.146 54.245 208.207 54.1022 207.647 53.8244C207.17 53.5873 206.646 53.3765 206.076 53.192C205.828 53.1101 205.603 53.0849 205.4 53.1167C205.068 53.1674 204.868 53.3125 204.802 53.552C204.774 53.6251 204.801 53.6853 204.884 53.7326C205.03 53.8138 205.21 53.8552 205.422 53.8569C205.597 53.8649 205.762 53.8995 205.918 53.9608ZM227.118 55.4973C227.215 55.3641 227.148 55.1741 226.931 54.969C226.714 54.764 226.365 54.5607 225.96 54.4039C225.76 54.3263 225.552 54.2624 225.348 54.2159C225.144 54.1694 224.949 54.1412 224.773 54.133C224.597 54.1247 224.444 54.1365 224.322 54.1678C224.201 54.199 224.113 54.249 224.065 54.315C223.967 54.4482 224.034 54.6382 224.251 54.8432C224.468 55.0483 224.817 55.2516 225.222 55.4083C225.423 55.486 225.631 55.5499 225.834 55.5964C226.038 55.6429 226.234 55.6711 226.41 55.6793C226.586 55.6876 226.739 55.6757 226.86 55.6445C226.982 55.6133 227.069 55.5633 227.118 55.4973ZM214.156 55.6259C214.76 56.184 215.464 56.2195 216.27 55.7326C216.357 55.682 216.422 55.6142 216.456 55.5373C216.491 55.4604 216.495 55.3778 216.466 55.2993C216.437 55.2209 216.378 55.15 216.295 55.0952C216.212 55.0404 216.11 55.004 215.999 54.9904C215.336 54.9052 214.636 54.9163 213.898 55.0238C213.437 55.0935 213.385 55.2365 213.743 55.4526C213.862 55.5269 214 55.5846 214.156 55.6259Z" fill="#009400"/>
<path d="M121.733 17.8339L113.541 40.1699H108.101L99.9087 17.8339H104.709L110.853 35.5939L116.965 17.8339H121.733ZM126.691 20.3299C125.901 20.3299 125.24 20.0846 124.707 19.5939C124.195 19.0819 123.939 18.4526 123.939 17.7059C123.939 16.9593 124.195 16.3406 124.707 15.8499C125.24 15.3379 125.901 15.0819 126.691 15.0819C127.48 15.0819 128.131 15.3379 128.643 15.8499C129.176 16.3406 129.443 16.9593 129.443 17.7059C129.443 18.4526 129.176 19.0819 128.643 19.5939C128.131 20.0846 127.48 20.3299 126.691 20.3299ZM128.899 22.4419V40.1699H124.419V22.4419H128.899ZM140.109 40.4579C138.658 40.4579 137.357 40.2019 136.205 39.6899C135.053 39.1566 134.136 38.4419 133.453 37.5459C132.792 36.6499 132.429 35.6579 132.365 34.5699H136.877C136.962 35.2526 137.293 35.8179 137.869 36.2659C138.466 36.7139 139.202 36.9379 140.077 36.9379C140.93 36.9379 141.592 36.7673 142.061 36.4259C142.552 36.0846 142.797 35.6473 142.797 35.1139C142.797 34.5379 142.498 34.1113 141.901 33.8339C141.325 33.5353 140.397 33.2153 139.117 32.8739C137.794 32.5539 136.706 32.2233 135.853 31.8819C135.021 31.5406 134.296 31.0179 133.677 30.3139C133.08 29.6099 132.781 28.6606 132.781 27.4659C132.781 26.4846 133.058 25.5886 133.613 24.7779C134.189 23.9673 135 23.3273 136.045 22.8579C137.112 22.3886 138.36 22.1539 139.789 22.1539C141.901 22.1539 143.586 22.6873 144.845 23.7539C146.104 24.7993 146.797 26.2179 146.925 28.0099H142.637C142.573 27.3059 142.274 26.7513 141.741 26.3459C141.229 25.9193 140.536 25.7059 139.661 25.7059C138.85 25.7059 138.221 25.8553 137.773 26.1539C137.346 26.4526 137.133 26.8686 137.133 27.4019C137.133 27.9993 137.432 28.4579 138.029 28.7779C138.626 29.0766 139.554 29.3859 140.813 29.7059C142.093 30.0259 143.149 30.3566 143.981 30.6979C144.813 31.0393 145.528 31.5726 146.125 32.2979C146.744 33.0019 147.064 33.9406 147.085 35.1139C147.085 36.1379 146.797 37.0553 146.221 37.8659C145.666 38.6766 144.856 39.3166 143.789 39.7859C142.744 40.2339 141.517 40.4579 140.109 40.4579ZM167.498 22.4419V40.1699H162.986V37.9299C162.41 38.6979 161.653 39.3059 160.714 39.7539C159.797 40.1806 158.794 40.3939 157.706 40.3939C156.32 40.3939 155.093 40.1059 154.026 39.5299C152.96 38.9326 152.117 38.0686 151.498 36.9379C150.901 35.7859 150.602 34.4206 150.602 32.8419V22.4419H155.082V32.2019C155.082 33.6099 155.434 34.6979 156.138 35.4659C156.842 36.2126 157.802 36.5859 159.018 36.5859C160.256 36.5859 161.226 36.2126 161.93 35.4659C162.634 34.6979 162.986 33.6099 162.986 32.2019V22.4419H167.498ZM170.767 31.2419C170.767 29.4499 171.119 27.8606 171.823 26.4739C172.548 25.0873 173.519 24.0206 174.735 23.2739C175.972 22.5273 177.348 22.1539 178.863 22.1539C180.185 22.1539 181.337 22.4206 182.319 22.9539C183.321 23.4873 184.121 24.1593 184.719 24.9699V22.4419H189.231V40.1699H184.719V37.5779C184.143 38.4099 183.343 39.1033 182.319 39.6579C181.316 40.1913 180.153 40.4579 178.831 40.4579C177.337 40.4579 175.972 40.0739 174.735 39.3059C173.519 38.5379 172.548 37.4606 171.823 36.0739C171.119 34.6659 170.767 33.0553 170.767 31.2419ZM184.719 31.3059C184.719 30.2179 184.505 29.2899 184.079 28.5219C183.652 27.7326 183.076 27.1353 182.351 26.7299C181.625 26.3033 180.847 26.0899 180.015 26.0899C179.183 26.0899 178.415 26.2926 177.711 26.6979C177.007 27.1033 176.431 27.7006 175.983 28.4899C175.556 29.2579 175.343 30.1753 175.343 31.2419C175.343 32.3086 175.556 33.2473 175.983 34.0579C176.431 34.8473 177.007 35.4553 177.711 35.8819C178.436 36.3086 179.204 36.5219 180.015 36.5219C180.847 36.5219 181.625 36.3193 182.351 35.9139C183.076 35.4873 183.652 34.8899 184.079 34.1219C184.505 33.3326 184.719 32.3939 184.719 31.3059ZM198.086 16.4899V40.1699H193.606V16.4899H198.086ZM204.784 20.3299C203.995 20.3299 203.334 20.0846 202.8 19.5939C202.288 19.0819 202.032 18.4526 202.032 17.7059C202.032 16.9593 202.288 16.3406 202.8 15.8499C203.334 15.3379 203.995 15.0819 204.784 15.0819C205.574 15.0819 206.224 15.3379 206.736 15.8499C207.27 16.3406 207.536 16.9593 207.536 17.7059C207.536 18.4526 207.27 19.0819 206.736 19.5939C206.224 20.0846 205.574 20.3299 204.784 20.3299ZM206.992 22.4419V40.1699H202.512V22.4419H206.992ZM215.515 36.4899H223.419V40.1699H210.427V36.5539L218.171 26.1219H210.459V22.4419H223.323V26.0579L215.515 36.4899ZM243.367 30.9219C243.367 31.5619 243.325 32.1379 243.239 32.6499H230.279C230.386 33.9299 230.834 34.9326 231.623 35.6579C232.413 36.3833 233.383 36.7459 234.535 36.7459C236.199 36.7459 237.383 36.0313 238.087 34.6019H242.919C242.407 36.3086 241.426 37.7166 239.975 38.8259C238.525 39.9139 236.743 40.4579 234.631 40.4579C232.925 40.4579 231.389 40.0846 230.023 39.3379C228.679 38.5699 227.623 37.4926 226.855 36.1059C226.109 34.7193 225.735 33.1193 225.735 31.3059C225.735 29.4713 226.109 27.8606 226.855 26.4739C227.602 25.0873 228.647 24.0206 229.991 23.2739C231.335 22.5273 232.882 22.1539 234.631 22.1539C236.317 22.1539 237.821 22.5166 239.143 23.2419C240.487 23.9673 241.522 25.0019 242.247 26.3459C242.994 27.6686 243.367 29.1939 243.367 30.9219ZM238.727 29.6419C238.706 28.4899 238.29 27.5726 237.479 26.8899C236.669 26.1859 235.677 25.8339 234.503 25.8339C233.394 25.8339 232.455 26.1753 231.687 26.8579C230.941 27.5193 230.482 28.4473 230.311 29.6419H238.727ZM248.621 40.3939C247.811 40.3939 247.139 40.1486 246.605 39.6579C246.093 39.1459 245.837 38.5166 245.837 37.7699C245.837 37.0233 246.093 36.4046 246.605 35.9139C247.139 35.4019 247.811 35.1459 248.621 35.1459C249.411 35.1459 250.061 35.4019 250.573 35.9139C251.085 36.4046 251.341 37.0233 251.341 37.7699C251.341 38.5166 251.085 39.1459 250.573 39.6579C250.061 40.1486 249.411 40.3939 248.621 40.3939ZM276.271 35.9139H267.375L265.903 40.1699H261.199L269.231 17.8019H274.447L282.479 40.1699H277.743L276.271 35.9139ZM275.055 32.3299L271.823 22.9859L268.591 32.3299H275.055ZM295.305 22.1859C297.417 22.1859 299.124 22.8579 300.425 24.2019C301.727 25.5246 302.377 27.3806 302.377 29.7699V40.1699H297.897V30.3779C297.897 28.9699 297.545 27.8926 296.841 27.1459C296.137 26.3779 295.177 25.9939 293.961 25.9939C292.724 25.9939 291.743 26.3779 291.017 27.1459C290.313 27.8926 289.961 28.9699 289.961 30.3779V40.1699H285.481V22.4419H289.961V24.6499C290.559 23.8819 291.316 23.2846 292.233 22.8579C293.172 22.4099 294.196 22.1859 295.305 22.1859ZM305.485 31.2419C305.485 29.4499 305.837 27.8606 306.541 26.4739C307.267 25.0873 308.237 24.0206 309.453 23.2739C310.691 22.5273 312.067 22.1539 313.581 22.1539C314.904 22.1539 316.056 22.4206 317.037 22.9539C318.04 23.4873 318.84 24.1593 319.437 24.9699V22.4419H323.949V40.1699H319.437V37.5779C318.861 38.4099 318.061 39.1033 317.037 39.6579C316.035 40.1913 314.872 40.4579 313.549 40.4579C312.056 40.4579 310.691 40.0739 309.453 39.3059C308.237 38.5379 307.267 37.4606 306.541 36.0739C305.837 34.6659 305.485 33.0553 305.485 31.2419ZM319.437 31.3059C319.437 30.2179 319.224 29.2899 318.797 28.5219C318.371 27.7326 317.795 27.1353 317.069 26.7299C316.344 26.3033 315.565 26.0899 314.733 26.0899C313.901 26.0899 313.133 26.2926 312.429 26.6979C311.725 27.1033 311.149 27.7006 310.701 28.4899C310.275 29.2579 310.061 30.1753 310.061 31.2419C310.061 32.3086 310.275 33.2473 310.701 34.0579C311.149 34.8473 311.725 35.4553 312.429 35.8819C313.155 36.3086 313.923 36.5219 314.733 36.5219C315.565 36.5219 316.344 36.3193 317.069 35.9139C317.795 35.4873 318.371 34.8899 318.797 34.1219C319.224 33.3326 319.437 32.3939 319.437 31.3059ZM332.805 16.4899V40.1699H328.325V16.4899H332.805ZM354.191 22.4419L343.215 48.5539H338.447L342.287 39.7219L335.183 22.4419H340.207L344.783 34.8259L349.423 22.4419H354.191ZM360.702 36.4899H368.606V40.1699H355.614V36.5539L363.358 26.1219H355.646V22.4419H368.51V26.0579L360.702 36.4899ZM388.555 30.9219C388.555 31.5619 388.512 32.1379 388.427 32.6499H375.467C375.574 33.9299 376.022 34.9326 376.811 35.6579C377.6 36.3833 378.571 36.7459 379.723 36.7459C381.387 36.7459 382.571 36.0313 383.275 34.6019H388.107C387.595 36.3086 386.614 37.7166 385.163 38.8259C383.712 39.9139 381.931 40.4579 379.819 40.4579C378.112 40.4579 376.576 40.0846 375.211 39.3379C373.867 38.5699 372.811 37.4926 372.043 36.1059C371.296 34.7193 370.923 33.1193 370.923 31.3059C370.923 29.4713 371.296 27.8606 372.043 26.4739C372.79 25.0873 373.835 24.0206 375.179 23.2739C376.523 22.5273 378.07 22.1539 379.819 22.1539C381.504 22.1539 383.008 22.5166 384.331 23.2419C385.675 23.9673 386.71 25.0019 387.435 26.3459C388.182 27.6686 388.555 29.1939 388.555 30.9219ZM383.915 29.6419C383.894 28.4899 383.478 27.5726 382.667 26.8899C381.856 26.1859 380.864 25.8339 379.691 25.8339C378.582 25.8339 377.643 26.1753 376.875 26.8579C376.128 27.5193 375.67 28.4473 375.499 29.6419H383.915ZM393.809 40.3939C392.998 40.3939 392.326 40.1486 391.793 39.6579C391.281 39.1459 391.025 38.5166 391.025 37.7699C391.025 37.0233 391.281 36.4046 391.793 35.9139C392.326 35.4019 392.998 35.1459 393.809 35.1459C394.598 35.1459 395.249 35.4019 395.761 35.9139C396.273 36.4046 396.529 37.0233 396.529 37.7699C396.529 38.5166 396.273 39.1459 395.761 39.6579C395.249 40.1486 394.598 40.3939 393.809 40.3939ZM418.13 40.3939C416.04 40.3939 414.12 39.9033 412.37 38.9219C410.621 37.9406 409.234 36.5859 408.21 34.8579C407.186 33.1086 406.674 31.1353 406.674 28.9379C406.674 26.7619 407.186 24.8099 408.21 23.0819C409.234 21.3326 410.621 19.9673 412.37 18.9859C414.12 18.0046 416.04 17.5139 418.13 17.5139C420.242 17.5139 422.162 18.0046 423.89 18.9859C425.64 19.9673 427.016 21.3326 428.018 23.0819C429.042 24.8099 429.554 26.7619 429.554 28.9379C429.554 31.1353 429.042 33.1086 428.018 34.8579C427.016 36.5859 425.64 37.9406 423.89 38.9219C422.141 39.9033 420.221 40.3939 418.13 40.3939ZM418.13 36.3939C419.474 36.3939 420.658 36.0953 421.682 35.4979C422.706 34.8793 423.506 34.0046 424.082 32.8739C424.658 31.7433 424.946 30.4313 424.946 28.9379C424.946 27.4446 424.658 26.1433 424.082 25.0339C423.506 23.9033 422.706 23.0393 421.682 22.4419C420.658 21.8446 419.474 21.5459 418.13 21.5459C416.786 21.5459 415.592 21.8446 414.546 22.4419C413.522 23.0393 412.722 23.9033 412.146 25.0339C411.57 26.1433 411.282 27.4446 411.282 28.9379C411.282 30.4313 411.57 31.7433 412.146 32.8739C412.722 34.0046 413.522 34.8793 414.546 35.4979C415.592 36.0953 416.786 36.3939 418.13 36.3939ZM437.367 25.0019C437.943 24.1913 438.733 23.5193 439.735 22.9859C440.759 22.4313 441.922 22.1539 443.223 22.1539C444.738 22.1539 446.103 22.5273 447.319 23.2739C448.557 24.0206 449.527 25.0873 450.231 26.4739C450.957 27.8393 451.319 29.4286 451.319 31.2419C451.319 33.0553 450.957 34.6659 450.231 36.0739C449.527 37.4606 448.557 38.5379 447.319 39.3059C446.103 40.0739 444.738 40.4579 443.223 40.4579C441.922 40.4579 440.77 40.1913 439.767 39.6579C438.786 39.1246 437.986 38.4526 437.367 37.6419V48.6179H432.887V22.4419H437.367V25.0019ZM446.743 31.2419C446.743 30.1753 446.519 29.2579 446.071 28.4899C445.645 27.7006 445.069 27.1033 444.343 26.6979C443.639 26.2926 442.871 26.0899 442.039 26.0899C441.229 26.0899 440.461 26.3033 439.735 26.7299C439.031 27.1353 438.455 27.7326 438.007 28.5219C437.581 29.3113 437.367 30.2393 437.367 31.3059C437.367 32.3726 437.581 33.3006 438.007 34.0899C438.455 34.8793 439.031 35.4873 439.735 35.9139C440.461 36.3193 441.229 36.5219 442.039 36.5219C442.871 36.5219 443.639 36.3086 444.343 35.8819C445.069 35.4553 445.645 34.8473 446.071 34.0579C446.519 33.2686 446.743 32.3299 446.743 31.2419ZM459.791 26.1219V34.6979C459.791 35.2953 459.93 35.7326 460.207 36.0099C460.506 36.2659 460.996 36.3939 461.679 36.3939H463.759V40.1699H460.943C457.167 40.1699 455.279 38.3353 455.279 34.6659V26.1219H453.167V22.4419H455.279V18.0579H459.791V22.4419H463.759V26.1219H459.791ZM469.253 20.3299C468.464 20.3299 467.803 20.0846 467.269 19.5939C466.757 19.0819 466.501 18.4526 466.501 17.7059C466.501 16.9593 466.757 16.3406 467.269 15.8499C467.803 15.3379 468.464 15.0819 469.253 15.0819C470.043 15.0819 470.693 15.3379 471.205 15.8499C471.739 16.3406 472.005 16.9593 472.005 17.7059C472.005 18.4526 471.739 19.0819 471.205 19.5939C470.693 20.0846 470.043 20.3299 469.253 20.3299ZM471.461 22.4419V40.1699H466.981V22.4419H471.461ZM497.903 22.1859C500.079 22.1859 501.829 22.8579 503.151 24.2019C504.495 25.5246 505.167 27.3806 505.167 29.7699V40.1699H500.687V30.3779C500.687 28.9913 500.335 27.9353 499.631 27.2099C498.927 26.4633 497.967 26.0899 496.751 26.0899C495.535 26.0899 494.565 26.4633 493.839 27.2099C493.135 27.9353 492.783 28.9913 492.783 30.3779V40.1699H488.303V30.3779C488.303 28.9913 487.951 27.9353 487.247 27.2099C486.543 26.4633 485.583 26.0899 484.367 26.0899C483.13 26.0899 482.149 26.4633 481.423 27.2099C480.719 27.9353 480.367 28.9913 480.367 30.3779V40.1699H475.887V22.4419H480.367V24.5859C480.943 23.8393 481.679 23.2526 482.575 22.8259C483.493 22.3993 484.495 22.1859 485.583 22.1859C486.97 22.1859 488.207 22.4846 489.295 23.0819C490.383 23.6579 491.226 24.4899 491.823 25.5779C492.399 24.5539 493.231 23.7326 494.319 23.1139C495.429 22.4953 496.623 22.1859 497.903 22.1859ZM511.691 20.3299C510.901 20.3299 510.24 20.0846 509.707 19.5939C509.195 19.0819 508.939 18.4526 508.939 17.7059C508.939 16.9593 509.195 16.3406 509.707 15.8499C510.24 15.3379 510.901 15.0819 511.691 15.0819C512.48 15.0819 513.131 15.3379 513.643 15.8499C514.176 16.3406 514.443 16.9593 514.443 17.7059C514.443 18.4526 514.176 19.0819 513.643 19.5939C513.131 20.0846 512.48 20.3299 511.691 20.3299ZM513.899 22.4419V40.1699H509.419V22.4419H513.899ZM522.421 36.4899H530.325V40.1699H517.333V36.5539L525.077 26.1219H517.365V22.4419H530.229V26.0579L522.421 36.4899ZM550.274 30.9219C550.274 31.5619 550.231 32.1379 550.146 32.6499H537.186C537.292 33.9299 537.74 34.9326 538.53 35.6579C539.319 36.3833 540.29 36.7459 541.442 36.7459C543.106 36.7459 544.29 36.0313 544.994 34.6019H549.826C549.314 36.3086 548.332 37.7166 546.882 38.8259C545.431 39.9139 543.65 40.4579 541.538 40.4579C539.831 40.4579 538.295 40.0846 536.93 39.3379C535.586 38.5699 534.53 37.4926 533.762 36.1059C533.015 34.7193 532.642 33.1193 532.642 31.3059C532.642 29.4713 533.015 27.8606 533.762 26.4739C534.508 25.0873 535.554 24.0206 536.898 23.2739C538.242 22.5273 539.788 22.1539 541.538 22.1539C543.223 22.1539 544.727 22.5166 546.05 23.2419C547.394 23.9673 548.428 25.0019 549.154 26.3459C549.9 27.6686 550.274 29.1939 550.274 30.9219ZM545.634 29.6419C545.612 28.4899 545.196 27.5726 544.386 26.8899C543.575 26.1859 542.583 25.8339 541.41 25.8339C540.3 25.8339 539.362 26.1753 538.594 26.8579C537.847 27.5193 537.388 28.4473 537.218 29.6419H545.634ZM555.528 40.3939C554.717 40.3939 554.045 40.1486 553.512 39.6579C553 39.1459 552.744 38.5166 552.744 37.7699C552.744 37.0233 553 36.4046 553.512 35.9139C554.045 35.4019 554.717 35.1459 555.528 35.1459C556.317 35.1459 556.968 35.4019 557.48 35.9139C557.992 36.4046 558.248 37.0233 558.248 37.7699C558.248 38.5166 557.992 39.1459 557.48 39.6579C556.968 40.1486 556.317 40.3939 555.528 40.3939Z" fill="white"/>
</svg>
