<svg width="448" height="64" viewBox="0 0 448 64" fill="none" xmlns="http://www.w3.org/2000/svg">
<path d="M76.1843 26.8076C76.1949 26.8064 76.2051 26.8032 76.2144 26.798C76.2237 26.7929 76.2318 26.786 76.2384 26.7777C76.245 26.7693 76.2498 26.7598 76.2527 26.7496C76.2556 26.7394 76.2564 26.7287 76.2551 26.7181L76.237 26.468C76.2312 26.3546 76.1717 26.3008 76.0583 26.3066C65.5738 26.8238 55.078 27.5376 44.5704 28.448C41.3814 28.7229 38.6019 28.2376 36.2316 26.9922C35.8997 26.8162 35.6951 26.5479 35.618 26.1873L35.4255 25.2357C35.355 24.8752 35.1537 24.6136 34.8216 24.4509C34.4896 24.2883 34.2549 24.0398 34.1175 23.7054C33.9213 23.2305 34.0797 23.0117 34.5927 23.0491C34.9592 23.072 35.2965 22.9947 35.6046 22.8171C35.7903 22.7086 35.9395 22.5466 36.0327 22.3524C36.1259 22.1583 36.1587 21.941 36.1269 21.729C36.0951 21.5169 36.0001 21.32 35.8543 21.1641C35.7086 21.0081 35.5189 20.9002 35.31 20.8547C32.3685 20.1981 29.8645 19.0116 27.7979 17.2953C27.7229 17.232 27.6673 17.1487 27.6376 17.0551C27.6079 16.9615 27.6052 16.8614 27.63 16.7664C27.6549 16.6714 27.7061 16.5853 27.7778 16.5182C27.8494 16.4511 27.9387 16.4056 28.0351 16.3871C31.6405 15.7156 35.2375 14.8339 38.9215 14.353C56.9541 11.9953 75.0508 10.3481 93.2122 9.4115C121.805 7.94387 148.673 7.33598 173.819 7.58785C186.239 7.71258 402.259 2.51499 416.678 3.62218C419.536 3.83476 422.372 4.41715 425.208 4.92956C425.468 4.97841 425.705 5.1084 425.885 5.30053C426.066 5.49266 426.179 5.73687 426.209 5.9975C426.429 7.79927 426.334 9.60528 425.927 11.4154C425.436 13.5916 425.186 15.2364 425.178 16.3497C425.165 18.0096 425.151 19.6929 425.138 21.3995C425.139 21.5171 425.112 21.6333 425.061 21.7394C425.01 21.8454 424.935 21.9386 424.842 22.0119C424.749 22.0852 424.641 22.1368 424.525 22.1628C424.408 22.1888 424.288 22.1884 424.172 22.1619C423.313 21.9684 422.46 21.9984 421.611 22.2517C421.177 22.3883 421.132 22.6012 421.476 22.8906C421.794 23.1598 422.156 23.3293 422.562 23.3992C422.773 23.4407 422.97 23.5355 423.135 23.675C423.3 23.8144 423.427 23.9939 423.506 24.1967C423.649 24.5712 423.677 24.9414 423.587 25.3074C423.476 25.7999 423.667 26.0814 424.16 26.1519C429.394 26.9333 435.174 27.7989 441.5 28.7489C442.519 28.897 443.607 29.1722 444.764 29.5747C445.011 29.6614 445.23 29.813 445.397 30.0133C445.565 30.2136 445.675 30.4551 445.715 30.7122C446.173 33.4559 446.356 36.1275 446.262 38.7268C446.16 41.5161 446.254 35.9367 446.262 38.7268C446.263 39.3468 446.585 37.4926 446.241 37.9766C446.039 38.2617 446.12 38.1127 446.271 38.4272L446.007 38.9748C446.184 39.3295 445.842 36.6134 445.666 36.972C444.879 38.6192 448.454 38.9108 446.262 38.7268C445.276 38.6457 445.624 38.0301 446.473 38.5302C447.024 38.8545 445.528 38.801 446.262 38.7268C446.835 38.6713 446.479 38.4518 446.255 38.9767C445.613 40.4617 447.612 37.3974 446.262 38.7268C445.55 39.4212 444.835 40.1089 444.116 40.7899C443.881 41.0148 443.799 41.2875 443.869 41.608C443.972 42.0689 443.866 42.438 443.551 42.7155C443.336 42.9072 443.078 42.9951 442.778 42.9794C441.153 42.8733 439.488 42.9868 437.786 43.32C437.689 43.3373 437.602 43.3855 437.537 43.4574C437.471 43.5293 437.431 43.621 437.423 43.7188C437.414 43.8167 437.437 43.9154 437.489 44.0002C437.54 44.0851 437.617 44.1514 437.709 44.1894L442.783 46.2396C442.926 46.2977 443.054 46.388 443.157 46.5035C443.26 46.6191 443.335 46.7567 443.377 46.9059C443.418 47.0551 443.425 47.2118 443.396 47.3638C443.367 47.5159 443.304 47.6593 443.211 47.783C442.82 48.3066 442.328 48.4761 441.736 48.2914C441.424 48.1956 441.114 48.1998 440.806 48.3041C433.707 50.7681 425.068 50.6198 417.77 50.3222C414.284 50.1747 208.192 55.9174 204.699 55.9231C199.999 55.926 195.291 55.6389 190.68 55.7725C181.971 56.0304 172.986 56.1661 163.726 56.1797C161.772 56.1776 159.791 56.3253 157.782 56.6227C156.02 56.8755 153.907 56.8388 151.443 56.5127C151.209 56.4842 151.124 56.3568 151.186 56.1306C151.213 56.0375 151.254 55.9479 151.308 55.8616C151.355 55.7886 151.425 55.7392 151.519 55.7133C151.98 55.5769 152.385 55.3434 152.734 55.0128C153.05 54.702 152.988 54.5248 152.549 54.4813C150.757 54.3005 149.139 54.3611 147.697 54.6631C147.37 54.7271 147.047 54.7112 146.727 54.6154C145.217 54.1768 143.75 54.2686 142.325 54.8907C142.017 55.0282 141.7 55.0557 141.374 54.9732L139.947 54.6019C139.535 54.4919 139.539 54.3886 139.96 54.292L141.633 53.8951C141.699 53.8806 141.758 53.8455 141.802 53.7953C141.846 53.7451 141.872 53.6825 141.875 53.6171L141.897 53.3572C141.905 53.2588 141.888 53.1601 141.85 53.0692C141.811 52.9784 141.752 52.898 141.676 52.8348C141.6 52.7716 141.51 52.7274 141.414 52.7059C141.318 52.6844 141.218 52.6862 141.122 52.7111C139.713 53.08 138.215 53.2448 136.628 53.2056C136.462 53.1976 136.362 53.1135 136.33 52.9533L136.194 52.4122C136.13 52.1317 136.241 52.0159 136.527 52.0648C138.125 52.3174 139.789 52.2205 141.52 51.7742C143.163 51.3572 144.699 51.8493 146.347 52.0823C146.694 52.1317 146.998 52.0475 147.259 51.8295C147.38 51.7238 147.481 51.6013 147.562 51.4619C147.718 51.1965 147.952 51.0816 148.265 51.1174C150.163 51.3524 152.037 51.2472 153.888 50.8018C154.916 50.5566 155.957 50.4515 157.01 50.4865C157.209 50.4932 157.407 50.4527 157.587 50.3683C157.767 50.2839 157.925 50.158 158.047 50.0009C158.17 49.8438 158.253 49.66 158.29 49.4645C158.328 49.269 158.318 49.0675 158.263 48.8763C157.977 47.914 157.402 47.3628 156.536 47.2226C156.461 47.2122 156.385 47.2169 156.313 47.2365C156.24 47.2562 156.173 47.2902 156.114 47.3367C156.056 47.3831 156.007 47.4409 155.973 47.5064C155.938 47.572 155.917 47.6439 155.912 47.7177C155.803 48.8969 155.117 49.6882 153.853 50.0915C153.506 50.2021 153.257 50.0902 153.106 49.7556L152.055 47.3973C151.884 47.0226 151.957 46.7064 152.272 46.4489C152.822 46.0066 153.399 46.0045 154.002 46.4426C154.274 46.6314 154.567 46.6837 154.881 46.5995C155.142 46.5216 155.353 46.3599 155.515 46.1145C155.548 46.0618 155.567 46.0007 155.568 45.9381C155.569 45.8755 155.553 45.8138 155.522 45.7597C155.49 45.7057 155.444 45.6615 155.389 45.6319C155.334 45.6023 155.271 45.5885 155.209 45.5921L148.917 45.8124C148.817 45.8116 148.757 45.8645 148.736 45.971L148.672 46.4105C148.63 46.6502 148.729 46.771 148.969 46.7729L150.759 46.827C150.884 46.832 151.004 46.8738 151.105 46.9472C151.206 47.0206 151.282 47.1223 151.325 47.2394C151.368 47.3564 151.376 47.4836 151.346 47.6048C151.317 47.726 151.252 47.8358 151.16 47.9202L148.531 50.3095C148.243 50.5672 147.926 50.6114 147.58 50.442C146.777 50.0356 145.948 49.8991 145.094 50.0324C144.931 50.0584 144.764 50.0217 144.628 49.9296C144.491 49.8376 144.394 49.6971 144.357 49.5365L143.699 46.7613C143.615 46.4072 143.394 46.2255 143.034 46.216C141.621 46.1715 140.349 46.4282 139.217 46.9859C138.923 47.1302 138.646 47.1081 138.388 46.9194C137.546 46.326 136.781 46.5233 136.093 47.5112C135.891 47.8163 135.637 47.8643 135.332 47.6552C135.12 47.5202 134.985 47.3325 134.926 47.092C134.892 46.9496 134.809 46.8231 134.691 46.7332C134.574 46.6433 134.429 46.5953 134.28 46.5969L133.78 46.6129C133.36 46.6229 133.239 46.8187 133.416 47.2001C133.632 47.6551 133.922 48.0541 134.286 48.397C134.63 48.7264 134.565 48.9225 134.091 48.9855C133.471 49.0606 132.836 49.2789 132.186 49.6405C131.905 49.8049 131.611 49.8259 131.306 49.7035C131.179 49.6558 131.053 49.6115 130.927 49.5705C130.601 49.4679 130.35 49.5593 130.175 49.8446C129.621 50.7402 128.913 50.8346 128.052 50.1278C127.655 49.798 127.308 49.8419 127.011 50.2596C126.62 50.8032 126.071 51.1356 125.363 51.2566C125.09 51.3078 124.83 51.2857 124.584 51.1905C123.813 50.8777 123.844 50.7313 124.677 50.7512C125.917 50.7743 126.643 49.9667 126.856 48.3284C126.934 47.7556 126.715 47.6072 126.2 47.8831C126.106 47.9357 126.009 47.9916 125.909 48.0508C125.728 48.1627 125.587 48.3083 125.485 48.4875C125.032 49.2906 124.36 49.542 123.469 49.2416C123.413 49.2255 123.354 49.2214 123.297 49.2295C123.24 49.2377 123.186 49.258 123.139 49.289C122.971 49.401 122.9 49.5405 122.925 49.7073C122.964 49.8877 122.893 49.9837 122.713 49.9957C121.606 50.0736 121.151 50.67 121.349 51.785C121.432 52.2456 121.258 52.3876 120.826 52.2108C120.274 51.9798 119.695 51.9119 119.087 52.0071C116.778 52.3689 114.645 52.292 112.689 51.7766C112.6 51.7525 112.519 51.7045 112.455 51.638C112.391 51.5715 112.346 51.489 112.326 51.3998C112.306 51.3105 112.312 51.218 112.341 51.1324C112.371 51.0469 112.425 50.9716 112.496 50.915C112.952 50.5386 113.202 50.0706 113.247 49.5109C113.276 49.1578 113.111 48.9732 112.751 48.957C110.072 48.8292 107.598 48.953 105.328 49.3284C98.9392 50.3913 92.7037 51.0788 86.621 51.3907C85.5539 51.4423 84.675 51.7154 83.9844 52.21C83.885 52.2786 83.766 52.3131 83.6453 52.3086C83.5246 52.304 83.4086 52.2606 83.3146 52.1847C83.149 52.0567 83.0169 51.899 82.9183 51.7115C82.7542 51.3969 82.4918 51.2681 82.1314 51.3253C80.6963 51.534 79.3063 51.5363 77.9612 51.3324C76.7725 51.153 75.8667 51.8859 74.7357 52.0069C68.0896 52.7445 61.5713 53.7931 54.9479 54.1908C52.5 54.3315 49.918 54.5877 47.2016 54.9596C42.4764 55.5923 37.6655 55.6944 32.7688 56.5258C30.6325 56.8822 28.507 57.1588 26.392 57.3554C20.7677 57.871 14.0459 58.9247 6.22641 60.5163C6.15234 60.5301 6.07562 60.5135 6.0125 60.4701C5.94938 60.4267 5.90482 60.3598 5.88824 60.2837L5.83053 59.9932C5.79227 59.7729 5.88329 59.6469 6.10354 59.6153C8.49593 59.3242 10.5044 58.26 12.9286 57.7291C19.5136 56.2878 25.8032 55.0907 31.7976 54.138C47.8516 51.598 67.4401 48.8726 90.564 45.9617C93.5937 45.5856 96.4024 45.3378 98.9901 45.2182C99.4836 45.1955 99.9049 45.0388 100.254 44.7482C100.563 44.4973 100.524 44.327 100.138 44.2373C97.762 43.7085 96.163 44.8359 93.952 44.9584C89.5433 45.197 85.6474 45.5162 82.2641 45.9162C69.2983 47.4272 56.235 49.0875 43.0735 50.8969C37.6874 51.6444 32.5888 51.4542 27.1396 52.5912C26.0177 52.829 25.1235 52.5219 24.4568 51.67C24.239 51.3949 23.9663 51.3161 23.6387 51.4335C22.1747 51.9353 20.6067 52.0929 18.9348 51.9064C18.8035 51.8903 18.6706 51.9114 18.5516 51.9671C18.4326 52.0228 18.3322 52.1109 18.2623 52.2211C18.0396 52.5593 17.7726 52.6005 17.4613 52.3447C17.1765 52.1092 17.2175 51.9761 17.5844 51.9457C19.9061 51.7507 21.6782 51.068 22.9008 49.8976C23.1291 49.6861 23.4 49.5782 23.7134 49.574C24.9468 49.5705 26.0961 49.2428 27.1612 48.5912C27.5498 48.3543 27.9636 48.2976 28.4026 48.421C30.7509 49.0729 32.9045 48.6166 34.8636 47.052C34.9909 46.9517 35.074 46.8054 35.0958 46.6436C35.1176 46.4817 35.0763 46.3168 34.9805 46.1829C34.4659 45.4922 34.3716 44.778 34.6974 44.0406C34.8535 43.6885 34.738 43.5476 34.3507 43.6178C33.6696 43.7525 33.025 43.9174 32.4168 44.1126C31.989 44.2492 31.9709 44.4291 32.3625 44.6522L32.7407 44.8752C32.9863 45.0104 33.0814 45.2145 33.0259 45.4874C32.9567 45.8136 32.7019 45.9982 32.2615 46.0414C31.0072 46.1582 29.9664 45.8366 29.139 45.0767C28.8874 44.8547 28.5916 44.7524 28.2514 44.7697C27.5644 44.811 26.9068 44.9324 26.2785 45.1341C25.7438 45.3033 25.7425 45.4699 26.2746 45.6341C26.4607 45.6956 26.6605 45.7272 26.8738 45.7289C28.1536 45.759 28.2376 46.0963 27.1258 46.7409C26.5432 47.0763 25.8585 47.2409 25.0719 47.2347C24.5852 47.2309 24.3838 46.9893 24.4676 46.5099L24.5617 45.9806C24.6593 45.4414 24.4671 45.3065 23.9849 45.5761C22.8533 46.2005 21.7219 46.3682 20.5908 46.0793C20.2116 45.983 19.8381 46.0034 19.4703 46.1405C17.9993 46.6822 16.6019 46.7745 15.278 46.4174C14.9254 46.3212 14.5885 46.3519 14.2673 46.5094L12.0285 47.6118C11.8702 47.686 11.6988 47.7271 11.525 47.7326C11.3512 47.7381 11.1787 47.7079 11.0182 47.6438C9.40989 46.9977 7.77181 46.7548 6.10381 46.9149C5.69683 46.9517 5.31742 46.8754 4.96557 46.6859C3.83044 46.0636 2.6804 46.0679 1.51538 46.6987C1.47661 46.7196 1.43359 46.7314 1.38958 46.7332C1.34558 46.735 1.30175 46.7268 1.26141 46.7091C1.22107 46.6914 1.18525 46.6648 1.15674 46.6312C1.12822 46.5977 1.10772 46.5581 1.0968 46.5154L0.999477 46.1746C0.952205 45.9907 0.97086 45.7953 1.05231 45.6213C1.13376 45.4472 1.27308 45.3049 1.44705 45.2181C4.0638 43.9521 6.97537 42.9183 10.1818 42.117C10.2974 42.0877 10.4052 42.0335 10.4977 41.9583C10.5902 41.8831 10.6652 41.7887 10.7174 41.6815C10.7697 41.5743 10.798 41.457 10.8003 41.3378C10.8026 41.2186 10.7788 41.1004 10.7307 40.9913C10.1414 39.6333 10.4693 38.6358 11.7144 37.9989C12.444 37.6314 12.3987 37.451 11.5786 37.4579L10.1384 37.4765C9.70507 37.4797 9.46674 37.2679 9.42344 36.8408C8.9219 31.9668 4.28293 48.2306 4.50343 43.1022C4.51025 42.9677 4.56364 42.8401 4.6541 42.742C4.74457 42.6438 4.8663 42.5815 4.9977 42.5661C6.00544 42.434 7.00737 42.1919 8.00353 41.8398C13.5392 39.8834 19.439 38.65 24.7858 37.8221C39.2638 35.6064 53.9552 34.1923 68.6551 31.7483C68.7886 31.7293 68.8492 31.6565 68.8368 31.5297L68.8369 31.5197C68.8181 31.3729 68.7353 31.3022 68.5886 31.3078C58.1833 31.9323 47.848 32.9874 37.5826 34.4731C35.8806 34.7196 34.4659 34.0384 32.9913 33.3468C32.9 33.3052 32.8229 33.2375 32.7698 33.1523C32.7168 33.0671 32.69 32.9681 32.6929 32.8678C32.6959 32.7674 32.7283 32.6701 32.7863 32.5882C32.8443 32.5062 32.9251 32.4432 33.0188 32.407C34.3698 31.8643 35.6393 31.501 36.8275 31.317C49.6172 29.3113 62.7359 27.8081 76.1843 26.8076ZM84.5571 26.1829C84.5566 26.1658 84.4639 26.1516 84.2841 26.1409C84.1043 26.1303 83.8411 26.1236 83.5093 26.121C83.1776 26.1185 82.7839 26.1202 82.3508 26.1262C81.9176 26.1321 81.4535 26.1421 80.9848 26.1555C80.0385 26.1828 79.1314 26.2226 78.4629 26.2662C77.7944 26.3098 77.4193 26.3537 77.4201 26.3881C77.4205 26.4052 77.5133 26.4194 77.6931 26.43C77.8729 26.4407 78.1361 26.4474 78.4679 26.45C78.7996 26.4525 79.1933 26.4507 79.6264 26.4448C80.0596 26.4389 80.5237 26.4289 80.9924 26.4154C81.9387 26.3882 82.8458 26.3484 83.5143 26.3048C84.1828 26.2612 84.5579 26.2173 84.5571 26.1829ZM36.4537 44.5145C36.5319 44.6172 36.6407 44.6924 36.7644 44.7293C36.8882 44.7662 37.0204 44.7629 37.1421 44.7199C37.6233 44.5637 37.8557 44.2722 37.839 43.8454C37.8226 43.3919 37.5908 43.1967 37.1436 43.2599L36.2526 43.3929C35.8521 43.4497 35.7739 43.6391 36.018 43.961L36.4537 44.5145ZM41.3548 44.3932C41.0968 44.1445 40.9057 43.8529 40.7817 43.5186C40.6707 43.2177 40.4746 43.1495 40.1933 43.314L39.4598 43.7482C39.1651 43.9192 39.0732 44.1618 39.1841 44.476C40.3081 47.775 44.868 45.2709 47.0435 44.5781C47.0836 44.565 47.1171 44.542 47.1441 44.5089C47.2249 44.4095 47.2325 44.2929 47.1669 44.159C47.1351 44.0946 47.0837 44.0415 47.0196 44.007C46.9554 43.9725 46.8817 43.9583 46.8084 43.9662L42.0631 44.6188C41.9381 44.6365 41.8098 44.6255 41.6873 44.5865C41.5648 44.5475 41.4513 44.4815 41.3548 44.3932ZM162.952 45.2132C161.769 44.7505 160.99 44.6577 160.614 44.9348C159.628 45.6603 159.748 46.1246 160.973 46.3276C161.619 46.4394 162.246 46.4343 162.853 46.3125C164.122 46.0558 164.155 45.6894 162.952 45.2132ZM176.895 45.6147C176.9 45.5584 176.859 45.4992 176.776 45.4404C176.693 45.3815 176.569 45.3243 176.411 45.272C176.253 45.2196 176.064 45.1731 175.855 45.1352C175.646 45.0973 175.422 45.0686 175.194 45.0509C174.966 45.0331 174.74 45.0266 174.527 45.0318C174.315 45.0369 174.121 45.0536 173.957 45.0809C173.793 45.1082 173.662 45.1455 173.57 45.1907C173.479 45.2359 173.43 45.2882 173.426 45.3445C173.421 45.4008 173.462 45.46 173.545 45.5189C173.628 45.5777 173.752 45.6349 173.91 45.6872C174.068 45.7396 174.257 45.7861 174.466 45.824C174.674 45.862 174.899 45.8906 175.127 45.9083C175.355 45.9261 175.581 45.9326 175.793 45.9274C176.006 45.9223 176.199 45.9056 176.364 45.8783C176.528 45.851 176.659 45.8137 176.75 45.7685C176.842 45.7233 176.891 45.671 176.895 45.6147ZM167.772 47.7513C166.233 48.4592 164.368 48.7078 162.176 48.4972C161.057 48.3883 160.38 48.803 160.146 49.7412C160.116 49.866 160.122 49.997 160.163 50.1187C160.205 50.2403 160.28 50.3475 160.379 50.4274C160.479 50.5072 160.599 50.5564 160.725 50.569C160.851 50.5817 160.978 50.5573 161.09 50.4987C162.871 49.5994 164.674 49.1469 166.501 49.1414C166.841 49.1374 167.155 49.0432 167.444 48.8588C168.234 48.3317 168.966 47.7575 169.637 47.1361C169.845 46.9377 169.967 46.692 170.003 46.3989C170.046 46.0459 169.945 45.7518 169.7 45.5165C169.349 45.1737 169.106 45.2351 168.968 45.7007L168.66 46.7183C168.523 47.1973 168.227 47.5416 167.772 47.7513ZM147.817 46.9338C147.832 46.8258 147.813 46.7142 147.761 46.6054C147.709 46.4966 147.625 46.3927 147.514 46.2996C147.403 46.2065 147.268 46.126 147.115 46.0628C146.962 45.9996 146.795 45.9549 146.623 45.9312C146.451 45.9075 146.278 45.9053 146.114 45.9248C145.949 45.9442 145.797 45.9849 145.665 46.0445C145.533 46.1041 145.424 46.1815 145.345 46.2722C145.265 46.3629 145.217 46.4651 145.202 46.5731C145.187 46.6811 145.206 46.7927 145.258 46.9015C145.31 47.0103 145.394 47.1142 145.505 47.2073C145.616 47.3004 145.751 47.3809 145.904 47.4441C146.057 47.5073 146.224 47.552 146.396 47.5757C146.568 47.5994 146.741 47.6015 146.905 47.5821C147.069 47.5627 147.222 47.522 147.354 47.4624C147.486 47.4028 147.595 47.3254 147.674 47.2347C147.754 47.144 147.802 47.0418 147.817 46.9338ZM36.0604 46.2014C36.0138 46.1877 35.9705 46.1874 35.9304 46.2004C35.4692 46.3434 35.475 46.4602 35.9476 46.5506C36.5067 46.6683 37.0232 46.689 37.4972 46.6128C37.644 46.5873 37.7047 46.5011 37.6792 46.3542C37.6667 46.2541 37.6341 46.1639 37.5814 46.0834C37.4365 45.8556 37.2371 45.7807 36.9831 45.8587C36.7826 45.9238 36.5985 46.019 36.4308 46.1444C36.3169 46.2235 36.1934 46.2425 36.0604 46.2014ZM129.796 48.4015C130.315 48.5723 130.592 48.4178 130.63 47.9381C130.652 47.6516 130.52 47.4772 130.234 47.415C129.961 47.3528 129.744 47.4078 129.582 47.5798C129.524 47.6414 129.482 47.7169 129.461 47.7992C129.44 47.8814 129.44 47.9677 129.461 48.05C129.482 48.1322 129.524 48.2076 129.583 48.2692C129.642 48.3307 129.715 48.3762 129.796 48.4015ZM118.855 48.4952C117.404 48.1504 115.961 48.1223 114.525 48.411C114.475 48.4213 114.428 48.4445 114.389 48.4781C114.351 48.5117 114.321 48.5546 114.305 48.6023C114.288 48.65 114.285 48.7008 114.295 48.7496C114.305 48.7983 114.328 48.8432 114.362 48.8797C115.862 50.5449 117.362 50.5368 118.862 48.8552C118.929 48.7795 119.015 48.7235 119.111 48.6935C119.208 48.6635 119.31 48.6607 119.408 48.6852C119.506 48.7097 119.596 48.7607 119.666 48.8326C119.737 48.9045 119.787 48.9945 119.81 49.0927C119.901 49.4401 120.078 49.7415 120.343 49.997C120.588 50.2322 120.795 50.2038 120.964 49.9118C121.254 49.4341 121.716 49.1944 122.349 49.1928C122.609 49.1882 122.751 49.0593 122.773 48.8061L122.795 48.5463C122.802 48.5063 122.785 48.4829 122.745 48.4759C121.74 48.2413 120.737 48.2467 119.735 48.4921C119.441 48.5631 119.148 48.5641 118.855 48.4952ZM149.58 53.0779C149.918 53.2805 150.291 53.3768 150.697 53.3667C151.191 53.3573 151.235 53.2143 150.831 52.9377C150.486 52.7017 150.108 52.492 149.696 52.3088C149.516 52.2273 149.353 52.2027 149.206 52.2349C148.966 52.2863 148.821 52.4319 148.773 52.6715C148.752 52.7447 148.772 52.8048 148.831 52.8519C148.937 52.9328 149.067 52.9738 149.22 52.975C149.347 52.9827 149.467 53.017 149.58 53.0779ZM164.916 54.5681C164.987 54.4347 164.939 54.2448 164.783 54.0402C164.626 53.8357 164.374 53.6332 164.081 53.4773C163.936 53.4001 163.786 53.3366 163.638 53.2906C163.491 53.2445 163.35 53.2168 163.222 53.2089C163.095 53.201 162.984 53.2132 162.896 53.2447C162.808 53.2762 162.745 53.3264 162.71 53.3924C162.639 53.5259 162.687 53.7157 162.843 53.9203C163 54.1249 163.252 54.3274 163.545 54.4833C163.69 54.5605 163.84 54.6239 163.987 54.67C164.135 54.716 164.276 54.7438 164.403 54.7516C164.531 54.7595 164.642 54.7474 164.73 54.7159C164.818 54.6844 164.881 54.6342 164.916 54.5681ZM155.537 54.7249C155.972 55.2817 156.482 55.3158 157.066 54.827C157.129 54.7762 157.176 54.7083 157.202 54.6313C157.227 54.5544 157.23 54.4718 157.209 54.3934C157.189 54.315 157.146 54.2442 157.086 54.1896C157.026 54.135 156.952 54.0988 156.872 54.0855C156.393 54.0017 155.886 54.0143 155.352 54.1235C155.018 54.1942 154.98 54.3372 155.238 54.5526C155.324 54.6266 155.424 54.6841 155.537 54.7249Z" fill="#009400"/>
<path d="M168.547 22.2849V27.8849H176.067V31.4369H168.547V37.3569H177.027V41.0049H164.067V18.6369H177.027V22.2849H168.547ZM201.162 18.6689L192.97 41.0049H187.53L179.338 18.6689H184.138L190.282 36.4289L196.394 18.6689H201.162ZM235.825 18.6689V41.0049H231.345V26.4769L225.361 41.0049H221.969L215.953 26.4769V41.0049H211.473V18.6689H216.561L223.665 35.2769L230.769 18.6689H235.825ZM248.127 41.2929C246.42 41.2929 244.884 40.9195 243.519 40.1729C242.153 39.4049 241.076 38.3275 240.287 36.9409C239.519 35.5542 239.135 33.9542 239.135 32.1409C239.135 30.3275 239.529 28.7275 240.319 27.3409C241.129 25.9542 242.228 24.8875 243.615 24.1409C245.001 23.3729 246.548 22.9889 248.255 22.9889C249.961 22.9889 251.508 23.3729 252.895 24.1409C254.281 24.8875 255.369 25.9542 256.159 27.3409C256.969 28.7275 257.375 30.3275 257.375 32.1409C257.375 33.9542 256.959 35.5542 256.127 36.9409C255.316 38.3275 254.207 39.4049 252.799 40.1729C251.412 40.9195 249.855 41.2929 248.127 41.2929ZM248.127 37.3889C248.937 37.3889 249.695 37.1969 250.399 36.8129C251.124 36.4075 251.7 35.8102 252.127 35.0209C252.553 34.2315 252.767 33.2715 252.767 32.1409C252.767 30.4555 252.319 29.1649 251.423 28.2689C250.548 27.3515 249.471 26.8929 248.191 26.8929C246.911 26.8929 245.833 27.3515 244.959 28.2689C244.105 29.1649 243.679 30.4555 243.679 32.1409C243.679 33.8262 244.095 35.1275 244.927 36.0449C245.78 36.9409 246.847 37.3889 248.127 37.3889ZM259.509 32.0769C259.509 30.2849 259.861 28.6955 260.565 27.3089C261.29 25.9222 262.272 24.8555 263.509 24.1089C264.746 23.3622 266.122 22.9889 267.637 22.9889C268.789 22.9889 269.888 23.2449 270.933 23.7569C271.978 24.2475 272.81 24.9089 273.429 25.7409V17.3249H277.973V41.0049H273.429V38.3809C272.874 39.2555 272.096 39.9595 271.093 40.4929C270.09 41.0262 268.928 41.2929 267.605 41.2929C266.112 41.2929 264.746 40.9089 263.509 40.1409C262.272 39.3729 261.29 38.2955 260.565 36.9089C259.861 35.5009 259.509 33.8902 259.509 32.0769ZM273.461 32.1409C273.461 31.0529 273.248 30.1249 272.821 29.3569C272.394 28.5675 271.818 27.9702 271.093 27.5649C270.368 27.1382 269.589 26.9249 268.757 26.9249C267.925 26.9249 267.157 27.1275 266.453 27.5329C265.749 27.9382 265.173 28.5355 264.725 29.3249C264.298 30.0929 264.085 31.0102 264.085 32.0769C264.085 33.1435 264.298 34.0822 264.725 34.8929C265.173 35.6822 265.749 36.2902 266.453 36.7169C267.178 37.1435 267.946 37.3569 268.757 37.3569C269.589 37.3569 270.368 37.1542 271.093 36.7489C271.818 36.3222 272.394 35.7249 272.821 34.9569C273.248 34.1675 273.461 33.2289 273.461 32.1409ZM299.084 23.2769V41.0049H294.572V38.7649C293.996 39.5329 293.239 40.1409 292.3 40.5889C291.383 41.0155 290.38 41.2289 289.292 41.2289C287.906 41.2289 286.679 40.9409 285.612 40.3649C284.546 39.7675 283.703 38.9035 283.084 37.7729C282.487 36.6209 282.188 35.2555 282.188 33.6769V23.2769H286.668V33.0369C286.668 34.4449 287.02 35.5329 287.724 36.3009C288.428 37.0475 289.388 37.4209 290.604 37.4209C291.842 37.4209 292.812 37.0475 293.516 36.3009C294.22 35.5329 294.572 34.4449 294.572 33.0369V23.2769H299.084ZM307.985 17.3249V41.0049H303.505V17.3249H307.985ZM328.891 31.7569C328.891 32.3969 328.848 32.9729 328.763 33.4849H315.803C315.91 34.7649 316.358 35.7675 317.147 36.4929C317.936 37.2182 318.907 37.5809 320.059 37.5809C321.723 37.5809 322.907 36.8662 323.611 35.4369H328.443C327.931 37.1435 326.95 38.5515 325.499 39.6609C324.048 40.7489 322.267 41.2929 320.155 41.2929C318.448 41.2929 316.912 40.9195 315.547 40.1729C314.203 39.4049 313.147 38.3275 312.379 36.9409C311.632 35.5542 311.259 33.9542 311.259 32.1409C311.259 30.3062 311.632 28.6955 312.379 27.3089C313.126 25.9222 314.171 24.8555 315.515 24.1089C316.859 23.3622 318.406 22.9889 320.155 22.9889C321.84 22.9889 323.344 23.3515 324.667 24.0769C326.011 24.8022 327.046 25.8369 327.771 27.1809C328.518 28.5035 328.891 30.0289 328.891 31.7569ZM324.251 30.4769C324.23 29.3249 323.814 28.4075 323.003 27.7249C322.192 27.0209 321.2 26.6689 320.027 26.6689C318.918 26.6689 317.979 27.0102 317.211 27.6929C316.464 28.3542 316.006 29.2822 315.835 30.4769H324.251Z" fill="white"/>
</svg>
