<svg width="579" height="64" viewBox="0 0 579 64" fill="none" xmlns="http://www.w3.org/2000/svg">
<path d="M75.3249 25.0732C75.3354 25.072 75.3456 25.0688 75.3549 25.0636C75.3642 25.0585 75.3724 25.0516 75.3789 25.0433C75.3855 25.0349 75.3904 25.0254 75.3932 25.0152C75.3961 25.005 75.3969 24.9943 75.3956 24.9837L75.3775 24.7336C75.3718 24.6202 75.3122 24.5664 75.1988 24.5722C64.7144 25.0894 54.2185 25.8032 43.7109 26.7136C40.522 26.9885 37.7424 26.5032 35.3722 25.2578C35.0402 25.0818 34.8356 24.8135 34.7585 24.4529L34.566 23.5013C34.4955 23.1408 34.2942 22.8792 33.9622 22.7165C33.6301 22.5539 33.3954 22.3054 33.2581 21.971C33.0618 21.4961 33.2202 21.2773 33.7332 21.3147C34.0997 21.3376 34.437 21.2603 34.7451 21.0827C34.9308 20.9742 35.08 20.8122 35.1732 20.618C35.2664 20.4239 35.2993 20.2066 35.2674 19.9946C35.2356 19.7825 35.1406 19.5856 34.9949 19.4297C34.8491 19.2737 34.6594 19.1658 34.4506 19.1203C31.509 18.4637 29.005 17.2773 26.9385 15.5609C26.8634 15.4976 26.8078 15.4143 26.7781 15.3207C26.7484 15.2271 26.7458 15.127 26.7706 15.032C26.7954 14.937 26.8466 14.8509 26.9183 14.7838C26.99 14.7167 27.0792 14.6713 27.1756 14.6527C30.7811 13.9812 34.3781 13.0995 38.062 12.6186C56.0947 10.2609 74.1913 8.61374 92.3527 7.6771C120.945 6.20948 147.814 5.60159 172.96 5.85346C185.379 5.97819 533.581 3.35296 548 4.46016C550.858 4.67273 553.694 5.25513 556.53 5.76754C556.79 5.81638 557.027 5.94638 557.207 6.13851C557.387 6.33064 557.501 6.57485 557.531 6.83547C557.751 8.63725 557.656 10.4433 557.249 12.2534C556.758 14.4296 556.508 16.0744 556.5 17.1877C556.487 18.8476 556.473 20.5309 556.46 22.2375C556.461 22.3551 556.434 22.4713 556.383 22.5773C556.332 22.6834 556.257 22.7766 556.164 22.8499C556.071 22.9232 555.963 22.9748 555.847 23.0008C555.73 23.0267 555.61 23.0264 555.494 22.9999C554.635 22.8064 553.782 22.8364 552.933 23.0897C552.499 23.2262 552.454 23.4392 552.798 23.7286C553.116 23.9978 553.478 24.1673 553.884 24.2372C554.094 24.2786 554.291 24.3735 554.456 24.5129C554.622 24.6524 554.749 24.8319 554.828 25.0347C554.971 25.4092 554.999 25.7794 554.909 26.1454C554.798 26.6378 554.989 26.9194 555.482 26.9899C560.716 27.7713 566.496 28.6369 572.822 29.5869C573.841 29.7349 574.929 30.0102 576.086 30.4127C576.333 30.4994 576.552 30.651 576.719 30.8512C576.887 31.0515 576.997 31.2931 577.037 31.5502C577.495 34.2939 577.678 36.9655 577.584 39.5648C577.482 42.354 577.576 36.7747 577.584 39.5648C577.585 40.1848 577.907 38.3306 577.563 38.8146C577.361 39.0997 577.442 38.9506 577.593 39.2652L577.329 39.8128C577.506 40.1675 577.164 37.4514 576.988 37.81C576.201 39.4572 579.776 39.7488 577.584 39.5648C576.598 39.4837 576.946 38.8681 577.795 39.3681C578.346 39.6925 576.85 39.639 577.584 39.5648C578.157 39.5093 577.801 39.2898 577.577 39.8147C576.935 41.2997 578.934 38.2354 577.584 39.5648C576.872 40.2592 576.156 40.9469 575.438 41.6279C575.203 41.8527 575.12 42.1254 575.191 42.446C575.294 42.9068 575.188 43.276 574.873 43.5535C574.658 43.7452 574.4 43.8331 574.1 43.8174C572.474 43.7112 570.81 43.8248 569.108 44.158C569.011 44.1753 568.924 44.2235 568.859 44.2954C568.793 44.3672 568.753 44.459 568.745 44.5568C568.736 44.6547 568.759 44.7534 568.811 44.8382C568.862 44.923 568.939 44.9894 569.031 45.0274L574.105 47.0776C574.248 47.1357 574.376 47.226 574.479 47.3415C574.582 47.457 574.657 47.5947 574.699 47.7439C574.74 47.8931 574.747 48.0497 574.718 48.2018C574.689 48.3539 574.626 48.4973 574.533 48.621C574.142 49.1446 573.65 49.314 573.058 49.1294C572.746 49.0336 572.436 49.0378 572.128 49.142C565.029 51.606 556.39 51.4578 549.092 51.1602C545.606 51.0127 207.333 54.183 203.839 54.1887C199.139 54.1916 194.431 53.9045 189.82 54.0381C181.111 54.296 172.127 54.4317 162.866 54.4453C160.913 54.4432 158.932 54.5909 156.922 54.8883C155.16 55.1411 153.047 55.1044 150.583 54.7783C150.35 54.7498 150.264 54.6224 150.326 54.3962C150.354 54.3031 150.394 54.2134 150.448 54.1272C150.495 54.0542 150.566 54.0048 150.659 53.9789C151.121 53.8425 151.526 53.609 151.875 53.2784C152.191 52.9676 152.129 52.7904 151.689 52.7469C149.897 52.5661 148.28 52.6267 146.838 52.9286C146.51 52.9927 146.187 52.9768 145.868 52.881C144.358 52.4424 142.891 52.5342 141.466 53.1563C141.158 53.2938 140.841 53.3213 140.515 53.2388L139.088 52.8675C138.675 52.7575 138.68 52.6542 139.1 52.5576L140.773 52.1607C140.84 52.1462 140.899 52.1111 140.943 52.0609C140.986 52.0107 141.012 51.9481 141.016 51.8826L141.038 51.6228C141.045 51.5244 141.029 51.4257 140.99 51.3348C140.952 51.244 140.892 51.1636 140.816 51.1004C140.741 51.0372 140.651 50.993 140.555 50.9715C140.458 50.95 140.358 50.9518 140.263 50.9767C138.853 51.3456 137.355 51.5104 135.769 51.4712C135.602 51.4632 135.503 51.3791 135.471 51.2189L135.335 50.6778C135.271 50.3972 135.381 50.2815 135.668 50.3304C137.266 50.583 138.93 50.4861 140.66 50.0398C142.304 49.6228 143.84 50.1149 145.488 50.3479C145.834 50.3973 146.138 50.3131 146.4 50.0951C146.521 49.9894 146.622 49.8669 146.703 49.7275C146.858 49.4621 147.093 49.3472 147.406 49.383C149.304 49.618 151.178 49.5128 153.028 49.0674C154.057 48.8222 155.098 48.7171 156.151 48.7521C156.35 48.7588 156.547 48.7183 156.728 48.6339C156.908 48.5495 157.066 48.4236 157.188 48.2665C157.31 48.1094 157.393 47.9256 157.431 47.7301C157.468 47.5346 157.459 47.3331 157.404 47.1419C157.118 46.1796 156.542 45.6284 155.677 45.4882C155.602 45.4778 155.526 45.4825 155.453 45.5021C155.381 45.5218 155.313 45.5558 155.255 45.6023C155.196 45.6487 155.148 45.7065 155.113 45.772C155.079 45.8376 155.058 45.9095 155.053 45.9833C154.943 47.1625 154.257 47.9537 152.994 48.3571C152.646 48.4677 152.397 48.3558 152.247 48.0212L151.195 45.6629C151.025 45.2882 151.097 44.972 151.413 44.7145C151.963 44.2722 152.539 44.2701 153.143 44.7082C153.415 44.897 153.707 44.9493 154.021 44.8651C154.282 44.7872 154.493 44.6255 154.655 44.3801C154.689 44.3274 154.707 44.2663 154.709 44.2037C154.71 44.1411 154.694 44.0794 154.662 44.0253C154.631 43.9713 154.585 43.9271 154.529 43.8975C154.474 43.8679 154.412 43.8541 154.349 43.8577L148.058 44.078C147.957 44.0772 147.897 44.1301 147.876 44.2366L147.813 44.6761C147.771 44.9158 147.87 45.0366 148.11 45.0385L149.9 45.0926C150.024 45.0976 150.144 45.1394 150.245 45.2128C150.346 45.2862 150.423 45.3879 150.466 45.505C150.509 45.622 150.516 45.7492 150.487 45.8704C150.457 45.9916 150.393 46.1014 150.301 46.1858L147.672 48.5751C147.383 48.8328 147.066 48.877 146.721 48.7076C145.917 48.3012 145.088 48.1647 144.234 48.298C144.071 48.324 143.905 48.2873 143.768 48.1952C143.632 48.1032 143.535 47.9627 143.498 47.8021L142.84 45.0269C142.756 44.6728 142.534 44.4911 142.174 44.4816C140.761 44.4371 139.489 44.6937 138.358 45.2515C138.063 45.3958 137.787 45.3737 137.528 45.1849C136.686 44.5916 135.922 44.7889 135.234 45.7768C135.031 46.0819 134.778 46.1299 134.473 45.9208C134.26 45.7858 134.125 45.5981 134.067 45.3576C134.032 45.2151 133.949 45.0887 133.832 44.9988C133.715 44.9089 133.57 44.8609 133.421 44.8625L132.921 44.8785C132.501 44.8885 132.379 45.0843 132.556 45.4657C132.772 45.9207 133.063 46.3197 133.427 46.6626C133.771 46.992 133.706 47.1881 133.232 47.2511C132.611 47.3262 131.976 47.5445 131.327 47.906C131.045 48.0705 130.752 48.0915 130.446 47.9691C130.32 47.9214 130.194 47.8771 130.067 47.8361C129.741 47.7335 129.491 47.8249 129.315 48.1102C128.761 49.0058 128.054 49.1002 127.193 48.3934C126.795 48.0636 126.448 48.1075 126.152 48.5252C125.761 49.0688 125.211 49.4012 124.504 49.5222C124.23 49.5734 123.97 49.5513 123.724 49.4561C122.953 49.1433 122.985 48.9969 123.818 49.0168C125.058 49.0399 125.784 48.2323 125.997 46.5939C126.075 46.0212 125.856 45.8728 125.34 46.1487C125.247 46.2013 125.15 46.2572 125.049 46.3164C124.868 46.4283 124.727 46.5739 124.626 46.7531C124.173 47.5562 123.501 47.8076 122.61 47.5072C122.553 47.4911 122.494 47.4869 122.437 47.4951C122.38 47.5033 122.326 47.5236 122.279 47.5546C122.112 47.6666 122.041 47.8061 122.066 47.9729C122.105 48.1533 122.034 48.2493 121.854 48.2613C120.746 48.3392 120.292 48.9356 120.489 50.0506C120.573 50.5112 120.398 50.6532 119.966 50.4764C119.415 50.2454 118.835 50.1775 118.228 50.2727C115.918 50.6345 113.785 50.5576 111.829 50.0422C111.74 50.0181 111.659 49.9701 111.595 49.9036C111.531 49.8371 111.487 49.7546 111.467 49.6654C111.447 49.5761 111.452 49.4836 111.482 49.398C111.512 49.3125 111.565 49.2372 111.636 49.1806C112.092 48.8042 112.343 48.3362 112.387 47.7765C112.417 47.4234 112.251 47.2388 111.892 47.2226C109.212 47.0948 106.738 47.2186 104.468 47.594C98.0797 48.6569 91.8442 49.3444 85.7615 49.6563C84.6944 49.7079 83.8156 49.981 83.125 50.4756C83.0255 50.5442 82.9066 50.5787 82.7858 50.5742C82.6651 50.5696 82.5491 50.5262 82.4552 50.4503C82.2895 50.3223 82.1574 50.1646 82.0589 49.9771C81.8947 49.6625 81.6324 49.5337 81.2719 49.5909C79.8369 49.7996 78.4468 49.8019 77.1017 49.598C75.9131 49.4186 75.0073 50.1515 73.8763 50.2725C67.2302 51.0101 60.7118 52.0587 54.0884 52.4564C51.6406 52.5971 49.0585 52.8533 46.3421 53.2252C41.6169 53.8579 36.806 53.96 31.9093 54.7913C29.7731 55.1478 27.6475 55.4244 25.5325 55.621C19.9083 56.1366 13.1865 57.1903 5.36694 58.7819C5.29287 58.7957 5.21616 58.7791 5.15304 58.7357C5.08992 58.6923 5.04535 58.6254 5.02877 58.5492L4.97107 58.2588C4.93281 58.0385 5.02382 57.9125 5.24408 57.8809C7.63647 57.5898 9.6449 56.5256 12.0692 55.9947C18.6542 54.5534 24.9437 53.3563 30.9381 52.4036C46.9921 49.8636 66.5807 47.1381 89.7045 44.2273C92.7342 43.8512 95.5429 43.6034 98.1306 43.4838C98.6242 43.461 99.0454 43.3044 99.3944 43.0138C99.7031 42.7629 99.6644 42.5926 99.2784 42.5029C96.9025 41.9741 95.3036 43.1015 93.0925 43.224C88.6838 43.4626 84.7879 43.7818 81.4046 44.1818C68.4388 45.6928 55.3755 47.353 42.2141 49.1625C36.828 49.91 31.7294 49.7198 26.2802 50.8568C25.1583 51.0946 24.264 50.7875 23.5974 49.9356C23.3795 49.6605 23.1068 49.5817 22.7792 49.6991C21.3152 50.2009 19.7473 50.3585 18.0753 50.172C17.944 50.1559 17.8112 50.177 17.6922 50.2327C17.5731 50.2884 17.4728 50.3765 17.4028 50.4867C17.1801 50.8249 16.9131 50.8661 16.6018 50.6103C16.317 50.3748 16.3581 50.2417 16.725 50.2113C19.0466 50.0163 20.8187 49.3336 22.0413 48.1632C22.2697 47.9517 22.5405 47.8438 22.8539 47.8396C24.0873 47.836 25.2366 47.5084 26.3018 46.8568C26.6903 46.6199 27.1041 46.5632 27.5431 46.6866C29.8914 47.3385 32.045 46.8822 34.0041 45.3176C34.1314 45.2173 34.2146 45.071 34.2363 44.9092C34.2581 44.7473 34.2168 44.5824 34.121 44.4485C33.6065 43.7578 33.5121 43.0436 33.8379 42.3062C33.9941 41.9541 33.8785 41.8132 33.4913 41.8834C32.8102 42.0181 32.1655 42.183 31.5573 42.3782C31.1295 42.5148 31.1114 42.6947 31.503 42.9178L31.8813 43.1408C32.1269 43.276 32.2219 43.4801 32.1665 43.753C32.0972 44.0792 31.8424 44.2638 31.4021 44.307C30.1477 44.4238 29.1069 44.1022 28.2796 43.3423C28.028 43.1203 27.7321 43.018 27.392 43.0353C26.705 43.0766 26.0473 43.198 25.419 43.3997C24.8844 43.5689 24.883 43.7355 25.4151 43.8997C25.6013 43.9612 25.801 43.9928 26.0143 43.9945C27.2941 44.0246 27.3782 44.3619 26.2664 45.0065C25.6837 45.3419 24.9991 45.5065 24.2124 45.5003C23.7258 45.4965 23.5243 45.2549 23.6081 44.7755L23.7023 44.2462C23.7999 43.707 23.6076 43.5721 23.1255 43.8417C21.9938 44.4661 20.8625 44.6338 19.7314 44.3449C19.3521 44.2486 18.9786 44.269 18.6109 44.4061C17.1399 44.9478 15.7424 45.0401 14.4185 44.683C14.066 44.5868 13.7291 44.6175 13.4078 44.775L11.169 45.8773C11.0107 45.9516 10.8393 45.9927 10.6655 45.9982C10.4918 46.0037 10.3193 45.9735 10.1587 45.9093C8.55043 45.2633 6.91234 45.0204 5.24434 45.1805C4.83737 45.2173 4.45795 45.141 4.1061 44.9515C2.97097 44.3292 1.82094 44.3335 0.655912 44.9643C0.617146 44.9852 0.574122 44.997 0.530117 44.9988C0.486112 45.0006 0.442289 44.9923 0.401946 44.9747C0.361604 44.957 0.325791 44.9304 0.297272 44.8968C0.268753 44.8633 0.248259 44.8237 0.237332 44.781L0.140014 44.4402C0.0927416 44.2563 0.111396 44.0609 0.192846 43.8869C0.274296 43.7128 0.413617 43.5705 0.587582 43.4837C3.20434 42.2177 6.1159 41.1839 9.32236 40.3826C9.43794 40.3533 9.54572 40.2991 9.63823 40.2239C9.73074 40.1487 9.80573 40.0543 9.85798 39.9471C9.91024 39.8399 9.93852 39.7226 9.94081 39.6034C9.94309 39.4842 9.91934 39.366 9.87124 39.2569C9.28194 37.8989 9.60985 36.9014 10.8549 36.2645C11.5845 35.897 11.5393 35.7166 10.7192 35.7234L9.27898 35.7421C8.8456 35.7453 8.60727 35.5335 8.56397 35.1064C8.06244 30.2324 3.42347 46.4962 3.64396 41.3678C3.65079 41.2333 3.70417 41.1057 3.79464 41.0076C3.88511 40.9094 4.00684 40.8471 4.13823 40.8316C5.14598 40.6996 6.14791 40.4575 7.14406 40.1054C12.6797 38.149 18.5796 36.9156 23.9263 36.0877C38.4044 33.872 53.0958 32.4579 67.7956 30.0139C67.9291 29.9949 67.9897 29.9221 67.9774 29.7953L67.9774 29.7853C67.9586 29.6385 67.8758 29.5678 67.7291 29.5734C57.3238 30.1979 46.9886 31.253 36.7231 32.7387C35.0211 32.9852 33.6065 32.304 32.1319 31.6124C32.0405 31.5708 31.9635 31.5031 31.9104 31.4179C31.8573 31.3327 31.8305 31.2337 31.8335 31.1334C31.8364 31.033 31.8689 30.9357 31.9268 30.8538C31.9848 30.7718 32.0657 30.7088 32.1593 30.6726C33.5103 30.1299 34.7799 29.7666 35.968 29.5826C48.7577 27.5769 61.8764 26.0737 75.3249 25.0732ZM83.6976 24.4485C83.6972 24.4314 83.6044 24.4172 83.4246 24.4065C83.2448 24.3959 82.9816 24.3892 82.6499 24.3866C82.3182 24.3841 81.9245 24.3858 81.4913 24.3918C81.0581 24.3977 80.594 24.4077 80.1254 24.4211C79.1791 24.4484 78.2719 24.4882 77.6034 24.5318C76.9349 24.5754 76.5598 24.6193 76.5606 24.6537C76.5611 24.6708 76.6539 24.685 76.8336 24.6956C77.0134 24.7062 77.2767 24.713 77.6084 24.7156C77.9401 24.7181 78.3338 24.7163 78.767 24.7104C79.2001 24.7045 79.6643 24.6945 80.1329 24.681C81.0792 24.6538 81.9863 24.614 82.6548 24.5704C83.3233 24.5268 83.6984 24.4829 83.6976 24.4485ZM35.5942 42.7801C35.6725 42.8827 35.7813 42.958 35.905 42.9949C36.0287 43.0318 36.1609 43.0285 36.2826 42.9855C36.7639 42.8293 36.9962 42.5378 36.9796 42.111C36.9631 41.6575 36.7313 41.4623 36.2842 41.5255L35.3931 41.6585C34.9926 41.7153 34.9144 41.9047 35.1586 42.2266L35.5942 42.7801ZM40.4953 42.6588C40.2373 42.41 40.0463 42.1185 39.9222 41.7842C39.8113 41.4833 39.6151 41.4151 39.3338 41.5795L38.6004 42.0138C38.3057 42.1848 38.2138 42.4274 38.3246 42.7416C39.4486 46.0406 44.0085 43.5365 46.1841 42.8437C46.2242 42.8306 46.2577 42.8076 46.2846 42.7745C46.3654 42.6751 46.373 42.5585 46.3074 42.4246C46.2757 42.3602 46.2242 42.3071 46.1601 42.2726C46.096 42.2381 46.0222 42.2239 45.9489 42.2318L41.2036 42.8844C41.0786 42.9021 40.9503 42.8911 40.8278 42.8521C40.7054 42.8131 40.5918 42.747 40.4953 42.6588ZM162.093 43.4788C160.91 43.0161 160.13 42.9233 159.755 43.2003C158.769 43.9259 158.889 44.3902 160.114 44.5932C160.76 44.705 161.386 44.6999 161.994 44.5781C163.263 44.3214 163.296 43.955 162.093 43.4788ZM176.036 43.8803C176.04 43.824 176 43.7648 175.917 43.706C175.833 43.6471 175.709 43.5899 175.551 43.5376C175.393 43.4852 175.205 43.4387 174.996 43.4008C174.787 43.3629 174.562 43.3342 174.334 43.3165C174.107 43.2987 173.88 43.2922 173.668 43.2974C173.456 43.3025 173.262 43.3192 173.098 43.3465C172.934 43.3738 172.802 43.4111 172.711 43.4563C172.62 43.5015 172.571 43.5538 172.566 43.6101C172.562 43.6664 172.602 43.7256 172.685 43.7844C172.768 43.8433 172.893 43.9005 173.051 43.9528C173.209 44.0052 173.397 44.0517 173.606 44.0896C173.815 44.1275 174.04 44.1562 174.268 44.1739C174.495 44.1917 174.722 44.1982 174.934 44.193C175.146 44.1879 175.34 44.1712 175.504 44.1439C175.668 44.1166 175.8 44.0793 175.891 44.0341C175.982 43.9889 176.031 43.9366 176.036 43.8803ZM166.913 46.0169C165.374 46.7248 163.508 46.9734 161.317 46.7628C160.198 46.6539 159.521 47.0686 159.287 48.0068C159.257 48.1316 159.263 48.2626 159.304 48.3843C159.345 48.5059 159.42 48.6131 159.52 48.693C159.619 48.7728 159.739 48.822 159.865 48.8346C159.991 48.8473 160.118 48.8229 160.231 48.7643C162.011 47.865 163.815 47.4125 165.642 47.407C165.982 47.403 166.296 47.3088 166.584 47.1244C167.375 46.5973 168.106 46.0231 168.778 45.4017C168.986 45.2033 169.108 44.9576 169.144 44.6645C169.186 44.3115 169.085 44.0174 168.84 43.7821C168.49 43.4393 168.246 43.5007 168.109 43.9663L167.801 44.9839C167.664 45.4629 167.368 45.8072 166.913 46.0169ZM146.958 45.1994C146.973 45.0914 146.953 44.9798 146.901 44.871C146.85 44.7622 146.766 44.6583 146.655 44.5652C146.544 44.4721 146.408 44.3916 146.255 44.3284C146.102 44.2652 145.935 44.2205 145.763 44.1968C145.592 44.1731 145.419 44.1709 145.254 44.1904C145.09 44.2098 144.937 44.2505 144.806 44.3101C144.674 44.3697 144.565 44.4471 144.485 44.5378C144.406 44.6285 144.357 44.7307 144.342 44.8387C144.328 44.9467 144.347 45.0583 144.399 45.1671C144.45 45.2759 144.534 45.3798 144.645 45.4729C144.756 45.566 144.892 45.6465 145.045 45.7097C145.198 45.7729 145.365 45.8176 145.537 45.8413C145.708 45.8649 145.881 45.8671 146.046 45.8477C146.21 45.8283 146.363 45.7876 146.494 45.728C146.626 45.6684 146.735 45.591 146.815 45.5003C146.894 45.4096 146.943 45.3074 146.958 45.1994ZM35.2009 44.467C35.1543 44.4533 35.111 44.453 35.0709 44.466C34.6098 44.609 34.6155 44.7258 35.0882 44.8162C35.6472 44.9339 36.1637 44.9546 36.6377 44.8784C36.7846 44.8529 36.8453 44.7667 36.8198 44.6198C36.8072 44.5197 36.7746 44.4295 36.7219 44.349C36.577 44.1212 36.3776 44.0463 36.1236 44.1243C35.9231 44.1894 35.739 44.2846 35.5714 44.41C35.4574 44.4891 35.3339 44.5081 35.2009 44.467ZM128.936 46.6671C129.455 46.8379 129.733 46.6834 129.77 46.2037C129.792 45.9172 129.66 45.7428 129.374 45.6806C129.101 45.6184 128.884 45.6734 128.723 45.8454C128.664 45.907 128.623 45.9825 128.601 46.0648C128.58 46.147 128.58 46.2333 128.601 46.3156C128.623 46.3978 128.665 46.4732 128.723 46.5348C128.782 46.5963 128.855 46.6418 128.936 46.6671ZM117.995 46.7608C116.545 46.416 115.102 46.3879 113.666 46.6766C113.616 46.6869 113.569 46.7101 113.53 46.7437C113.491 46.7773 113.462 46.8202 113.445 46.8679C113.429 46.9156 113.425 46.9664 113.435 47.0152C113.445 47.0639 113.468 47.1088 113.502 47.1453C115.002 48.8105 116.503 48.8024 118.003 47.1208C118.069 47.0451 118.156 46.9891 118.252 46.9591C118.348 46.9291 118.451 46.9263 118.549 46.9508C118.647 46.9753 118.736 47.0263 118.807 47.0982C118.878 47.1701 118.928 47.2601 118.951 47.3583C119.041 47.7057 119.219 48.0071 119.484 48.2626C119.728 48.4978 119.935 48.4694 120.104 48.1774C120.395 47.6997 120.857 47.46 121.49 47.4584C121.75 47.4538 121.891 47.3249 121.913 47.0717L121.935 46.8119C121.942 46.7719 121.926 46.7485 121.886 46.7415C120.881 46.5069 119.877 46.5123 118.875 46.7577C118.582 46.8287 118.288 46.8297 117.995 46.7608ZM148.72 51.3435C149.059 51.5461 149.431 51.6424 149.838 51.6323C150.331 51.6229 150.376 51.4799 149.971 51.2033C149.626 50.9673 149.248 50.7576 148.836 50.5744C148.657 50.4929 148.494 50.4683 148.347 50.5005C148.106 50.5519 147.962 50.6975 147.913 50.9371C147.893 51.0103 147.912 51.0704 147.972 51.1175C148.078 51.1984 148.208 51.2394 148.361 51.2406C148.488 51.2483 148.607 51.2826 148.72 51.3435ZM164.057 52.8337C164.128 52.7003 164.08 52.5104 163.923 52.3058C163.766 52.1013 163.514 51.8988 163.222 51.7429C163.077 51.6657 162.926 51.6022 162.779 51.5562C162.632 51.5101 162.49 51.4824 162.363 51.4745C162.236 51.4666 162.125 51.4788 162.037 51.5103C161.949 51.5418 161.885 51.592 161.85 51.658C161.779 51.7915 161.827 51.9813 161.984 52.1859C162.141 52.3905 162.393 52.593 162.685 52.7489C162.83 52.8261 162.981 52.8895 163.128 52.9356C163.275 52.9816 163.417 53.0094 163.544 53.0172C163.671 53.0251 163.782 53.0129 163.87 52.9815C163.958 52.95 164.021 52.8998 164.057 52.8337ZM154.677 52.9905C155.113 53.5473 155.623 53.5814 156.207 53.0926C156.27 53.0418 156.317 52.9739 156.342 52.8969C156.368 52.82 156.37 52.7374 156.35 52.659C156.329 52.5806 156.286 52.5098 156.227 52.4552C156.167 52.4006 156.092 52.3644 156.012 52.3511C155.533 52.2673 155.026 52.2799 154.492 52.3891C154.158 52.4598 154.12 52.6028 154.379 52.8182C154.465 52.8922 154.564 52.9497 154.677 52.9905Z" fill="#009400"/>
<path d="M201.759 41.1621H197.279L187.135 25.8341V41.1621H182.655V18.7941H187.135L197.279 34.1541V18.7941H201.759V41.1621ZM214.058 41.4501C212.352 41.4501 210.816 41.0768 209.45 40.3301C208.085 39.5621 207.008 38.4848 206.218 37.0981C205.45 35.7114 205.066 34.1114 205.066 32.2981C205.066 30.4848 205.461 28.8848 206.25 27.4981C207.061 26.1114 208.16 25.0448 209.546 24.2981C210.933 23.5301 212.48 23.1461 214.186 23.1461C215.893 23.1461 217.44 23.5301 218.826 24.2981C220.213 25.0448 221.301 26.1114 222.09 27.4981C222.901 28.8848 223.306 30.4848 223.306 32.2981C223.306 34.1114 222.89 35.7114 222.058 37.0981C221.248 38.4848 220.138 39.5621 218.73 40.3301C217.344 41.0768 215.786 41.4501 214.058 41.4501ZM214.058 37.5461C214.869 37.5461 215.626 37.3541 216.33 36.9701C217.056 36.5648 217.632 35.9674 218.058 35.1781C218.485 34.3888 218.698 33.4288 218.698 32.2981C218.698 30.6128 218.25 29.3221 217.354 28.4261C216.48 27.5088 215.402 27.0501 214.122 27.0501C212.842 27.0501 211.765 27.5088 210.89 28.4261C210.037 29.3221 209.61 30.6128 209.61 32.2981C209.61 33.9834 210.026 35.2848 210.858 36.2021C211.712 37.0981 212.778 37.5461 214.058 37.5461ZM236.417 23.1781C238.529 23.1781 240.235 23.8501 241.537 25.1941C242.838 26.5168 243.489 28.3728 243.489 30.7621V41.1621H239.009V31.3701C239.009 29.9621 238.657 28.8848 237.953 28.1381C237.249 27.3701 236.289 26.9861 235.073 26.9861C233.835 26.9861 232.854 27.3701 232.129 28.1381C231.425 28.8848 231.073 29.9621 231.073 31.3701V41.1621H226.593V23.4341H231.073V25.6421C231.67 24.8741 232.427 24.2768 233.345 23.8501C234.283 23.4021 235.307 23.1781 236.417 23.1781ZM261.381 27.8501V31.6261H247.813V27.8501H261.381ZM270.885 22.4421V28.0421H278.405V31.5941H270.885V37.5141H279.365V41.1621H266.405V18.7941H279.365V22.4421H270.885ZM303.5 18.8261L295.308 41.1621H289.868L281.676 18.8261H286.476L292.62 36.5861L298.732 18.8261H303.5ZM338.163 18.8261V41.1621H333.683V26.6341L327.699 41.1621H324.307L318.291 26.6341V41.1621H313.811V18.8261H318.899L326.003 35.4341L333.107 18.8261H338.163ZM350.465 41.4501C348.758 41.4501 347.222 41.0768 345.857 40.3301C344.491 39.5621 343.414 38.4848 342.625 37.0981C341.857 35.7114 341.473 34.1114 341.473 32.2981C341.473 30.4848 341.867 28.8848 342.657 27.4981C343.467 26.1114 344.566 25.0448 345.953 24.2981C347.339 23.5301 348.886 23.1461 350.593 23.1461C352.299 23.1461 353.846 23.5301 355.233 24.2981C356.619 25.0448 357.707 26.1114 358.497 27.4981C359.307 28.8848 359.713 30.4848 359.713 32.2981C359.713 34.1114 359.297 35.7114 358.465 37.0981C357.654 38.4848 356.545 39.5621 355.137 40.3301C353.75 41.0768 352.193 41.4501 350.465 41.4501ZM350.465 37.5461C351.275 37.5461 352.033 37.3541 352.737 36.9701C353.462 36.5648 354.038 35.9674 354.465 35.1781C354.891 34.3888 355.105 33.4288 355.105 32.2981C355.105 30.6128 354.657 29.3221 353.761 28.4261C352.886 27.5088 351.809 27.0501 350.529 27.0501C349.249 27.0501 348.171 27.5088 347.297 28.4261C346.443 29.3221 346.017 30.6128 346.017 32.2981C346.017 33.9834 346.433 35.2848 347.265 36.2021C348.118 37.0981 349.185 37.5461 350.465 37.5461ZM361.847 32.2341C361.847 30.4421 362.199 28.8528 362.903 27.4661C363.628 26.0794 364.61 25.0128 365.847 24.2661C367.084 23.5194 368.46 23.1461 369.975 23.1461C371.127 23.1461 372.226 23.4021 373.271 23.9141C374.316 24.4048 375.148 25.0661 375.767 25.8981V17.4821H380.311V41.1621H375.767V38.5381C375.212 39.4128 374.434 40.1168 373.431 40.6501C372.428 41.1834 371.266 41.4501 369.943 41.4501C368.45 41.4501 367.084 41.0661 365.847 40.2981C364.61 39.5301 363.628 38.4528 362.903 37.0661C362.199 35.6581 361.847 34.0474 361.847 32.2341ZM375.799 32.2981C375.799 31.2101 375.586 30.2821 375.159 29.5141C374.732 28.7248 374.156 28.1274 373.431 27.7221C372.706 27.2954 371.927 27.0821 371.095 27.0821C370.263 27.0821 369.495 27.2848 368.791 27.6901C368.087 28.0954 367.511 28.6928 367.063 29.4821C366.636 30.2501 366.423 31.1674 366.423 32.2341C366.423 33.3008 366.636 34.2394 367.063 35.0501C367.511 35.8394 368.087 36.4474 368.791 36.8741C369.516 37.3008 370.284 37.5141 371.095 37.5141C371.927 37.5141 372.706 37.3114 373.431 36.9061C374.156 36.4794 374.732 35.8821 375.159 35.1141C375.586 34.3248 375.799 33.3861 375.799 32.2981ZM401.422 23.4341V41.1621H396.91V38.9221C396.334 39.6901 395.577 40.2981 394.638 40.7461C393.721 41.1728 392.718 41.3861 391.63 41.3861C390.244 41.3861 389.017 41.0981 387.95 40.5221C386.884 39.9248 386.041 39.0608 385.422 37.9301C384.825 36.7781 384.526 35.4128 384.526 33.8341V23.4341H389.006V33.1941C389.006 34.6021 389.358 35.6901 390.062 36.4581C390.766 37.2048 391.726 37.5781 392.942 37.5781C394.18 37.5781 395.15 37.2048 395.854 36.4581C396.558 35.6901 396.91 34.6021 396.91 33.1941V23.4341H401.422ZM410.323 17.4821V41.1621H405.843V17.4821H410.323ZM431.229 31.9141C431.229 32.5541 431.186 33.1301 431.101 33.6421H418.141C418.248 34.9221 418.696 35.9248 419.485 36.6501C420.274 37.3754 421.245 37.7381 422.397 37.7381C424.061 37.7381 425.245 37.0234 425.949 35.5941H430.781C430.269 37.3008 429.288 38.7088 427.837 39.8181C426.386 40.9061 424.605 41.4501 422.493 41.4501C420.786 41.4501 419.25 41.0768 417.885 40.3301C416.541 39.5621 415.485 38.4848 414.717 37.0981C413.97 35.7114 413.597 34.1114 413.597 32.2981C413.597 30.4634 413.97 28.8528 414.717 27.4661C415.464 26.0794 416.509 25.0128 417.853 24.2661C419.197 23.5194 420.744 23.1461 422.493 23.1461C424.178 23.1461 425.682 23.5088 427.005 24.2341C428.349 24.9594 429.384 25.9941 430.109 27.3381C430.856 28.6608 431.229 30.1861 431.229 31.9141ZM426.589 30.6341C426.568 29.4821 426.152 28.5648 425.341 27.8821C424.53 27.1781 423.538 26.8261 422.365 26.8261C421.256 26.8261 420.317 27.1674 419.549 27.8501C418.802 28.5114 418.344 29.4394 418.173 30.6341H426.589Z" fill="white"/>
</svg>
