<svg width="579" height="64" viewBox="0 0 579 64" fill="none" xmlns="http://www.w3.org/2000/svg">
<path d="M75.7438 25.3505C75.7544 25.3494 75.7646 25.3461 75.7739 25.341C75.7832 25.3359 75.7913 25.3289 75.7979 25.3206C75.8045 25.3123 75.8093 25.3027 75.8122 25.2925C75.8151 25.2823 75.8159 25.2716 75.8145 25.2611L75.7965 25.0109C75.7907 24.8975 75.7312 24.8437 75.6178 24.8495C65.1333 25.3667 54.6375 26.0806 44.1299 26.991C40.9409 27.2658 38.1614 26.7805 35.7911 25.5351C35.4592 25.3591 35.2546 25.0909 35.1775 24.7302L34.9849 23.7787C34.9145 23.4181 34.7132 23.1565 34.3811 22.9939C34.0491 22.8313 33.8144 22.5827 33.677 22.2483C33.4808 21.7734 33.6392 21.5547 34.1522 21.592C34.5187 21.6149 34.856 21.5376 35.1641 21.36C35.3498 21.2515 35.499 21.0895 35.5922 20.8954C35.6854 20.7012 35.7182 20.4839 35.6864 20.2719C35.6546 20.0599 35.5596 19.863 35.4138 19.707C35.2681 19.551 35.0784 19.4432 34.8695 19.3976C31.9279 18.7411 29.424 17.5546 27.3574 15.8382C27.2824 15.7749 27.2268 15.6917 27.1971 15.5981C27.1674 15.5045 27.1647 15.4044 27.1895 15.3094C27.2144 15.2144 27.2656 15.1283 27.3373 15.0612C27.4089 14.994 27.4982 14.9486 27.5946 14.9301C31.2 14.2585 34.797 13.3769 38.481 12.896C56.5136 10.5383 74.6103 8.89108 92.7717 7.95445C121.364 6.48682 148.233 5.87894 173.379 6.1308C185.798 6.25553 534 3.63031 548.419 4.7375C551.277 4.95008 554.113 5.53248 556.949 6.04488C557.209 6.09373 557.446 6.22372 557.626 6.41586C557.806 6.60799 557.92 6.85219 557.95 7.11282C558.17 8.91459 558.075 10.7206 557.668 12.5308C557.177 14.7069 556.927 16.3517 556.919 17.465C556.906 19.1249 556.892 20.8082 556.879 22.5148C556.879 22.6324 556.853 22.7486 556.802 22.8547C556.751 22.9607 556.676 23.0539 556.583 23.1272C556.49 23.2006 556.382 23.2521 556.265 23.2781C556.149 23.3041 556.029 23.3038 555.913 23.2772C555.054 23.0838 554.201 23.1137 553.352 23.367C552.918 23.5036 552.873 23.7166 553.217 24.006C553.535 24.2751 553.897 24.4447 554.303 24.5145C554.513 24.556 554.71 24.6508 554.875 24.7903C555.04 24.9297 555.168 25.1092 555.247 25.312C555.39 25.6865 555.417 26.0567 555.328 26.4227C555.217 26.9152 555.408 27.1967 555.901 27.2673C561.135 28.0486 566.915 28.9143 573.241 29.8642C574.26 30.0123 575.348 30.2875 576.505 30.69C576.752 30.7767 576.971 30.9283 577.138 31.1286C577.306 31.3289 577.416 31.5704 577.456 31.8276C577.914 34.5712 578.097 37.2428 578.003 39.8421C577.901 42.6314 577.995 37.052 578.003 39.8421C578.004 40.4622 578.326 38.608 577.982 39.0919C577.78 39.377 577.861 39.228 578.012 39.5425L577.748 40.0901C577.925 40.4449 577.583 37.7287 577.406 38.0874C576.62 39.7345 580.195 40.0261 578.003 39.8421C577.017 39.761 577.365 39.1454 578.214 39.6455C578.765 39.9698 577.269 39.9163 578.003 39.8421C578.576 39.7867 578.22 39.5672 577.996 40.0921C577.354 41.577 579.353 38.5128 578.003 39.8421C577.29 40.5365 576.575 41.2243 575.857 41.9053C575.622 42.1301 575.539 42.4028 575.61 42.7234C575.713 43.1842 575.607 43.5533 575.291 43.8309C575.077 44.0225 574.819 44.1105 574.519 44.0948C572.893 43.9886 571.229 44.1021 569.527 44.4354C569.43 44.4526 569.343 44.5008 569.278 44.5727C569.212 44.6446 569.172 44.7363 569.164 44.8342C569.155 44.932 569.178 45.0307 569.23 45.1156C569.281 45.2004 569.358 45.2668 569.45 45.3048L574.524 47.3549C574.667 47.413 574.795 47.5033 574.898 47.6189C575.001 47.7344 575.076 47.8721 575.118 48.0212C575.159 48.1704 575.166 48.3271 575.137 48.4792C575.108 48.6312 575.045 48.7747 574.951 48.8983C574.561 49.4219 574.069 49.5914 573.477 49.4067C573.165 49.3109 572.855 49.3151 572.547 49.4194C565.448 51.8834 556.809 51.7352 549.511 51.4375C546.025 51.29 207.752 54.4603 204.258 54.4661C199.558 54.469 194.85 54.1818 190.239 54.3154C181.53 54.5733 172.546 54.709 163.285 54.7226C161.332 54.7205 159.35 54.8682 157.341 55.1657C155.579 55.4184 153.466 55.3818 151.002 55.0556C150.769 55.0271 150.683 54.8998 150.745 54.6736C150.772 54.5805 150.813 54.4908 150.867 54.4045C150.914 54.3316 150.985 54.2821 151.078 54.2562C151.539 54.1199 151.945 53.8864 152.294 53.5558C152.61 53.2449 152.548 53.0678 152.108 53.0243C150.316 52.8435 148.699 52.904 147.257 53.206C146.929 53.2701 146.606 53.2542 146.287 53.1583C144.777 52.7197 143.31 52.8115 141.885 53.4336C141.577 53.5712 141.26 53.5987 140.934 53.5161L139.507 53.1448C139.094 53.0349 139.098 52.9316 139.519 52.8349L141.192 52.4381C141.258 52.4235 141.318 52.3885 141.362 52.3383C141.405 52.288 141.431 52.2254 141.435 52.16L141.457 51.9002C141.464 51.8018 141.448 51.703 141.409 51.6122C141.371 51.5213 141.311 51.4409 141.235 51.3777C141.16 51.3145 141.07 51.2703 140.974 51.2488C140.877 51.2273 140.777 51.2291 140.682 51.254C139.272 51.6229 137.774 51.7878 136.188 51.7486C136.021 51.7406 135.922 51.6565 135.89 51.4962L135.754 50.9551C135.69 50.6746 135.8 50.5588 136.087 50.6077C137.685 50.8604 139.349 50.7635 141.079 50.3171C142.723 49.9001 144.259 50.3922 145.907 50.6253C146.253 50.6747 146.557 50.5904 146.819 50.3725C146.94 50.2667 147.041 50.1442 147.122 50.0048C147.277 49.7394 147.512 49.6246 147.825 49.6604C149.723 49.8954 151.597 49.7901 153.447 49.3447C154.476 49.0995 155.517 48.9944 156.57 49.0294C156.769 49.0361 156.966 48.9956 157.147 48.9112C157.327 48.8268 157.485 48.7009 157.607 48.5439C157.729 48.3868 157.812 48.2029 157.85 48.0075C157.887 47.812 157.878 47.6104 157.823 47.4193C157.537 46.457 156.961 45.9058 156.096 45.7656C156.021 45.7551 155.945 45.7599 155.872 45.7795C155.8 45.7991 155.732 45.8332 155.674 45.8796C155.615 45.926 155.567 45.9838 155.532 46.0494C155.498 46.1149 155.477 46.1868 155.472 46.2607C155.362 47.4398 154.676 48.2311 153.413 48.6345C153.065 48.7451 152.816 48.6331 152.665 48.2986L151.614 45.9402C151.444 45.5655 151.516 45.2494 151.832 44.9919C152.382 44.5495 152.958 44.5474 153.562 44.9855C153.833 45.1743 154.126 45.2267 154.44 45.1425C154.701 45.0645 154.912 44.9029 155.074 44.6575C155.108 44.6047 155.126 44.5436 155.128 44.481C155.129 44.4184 155.113 44.3567 155.081 44.3027C155.05 44.2487 155.004 44.2044 154.948 44.1748C154.893 44.1452 154.831 44.1315 154.768 44.135L148.476 44.3554C148.376 44.3546 148.316 44.4074 148.295 44.5139L148.232 44.9535C148.19 45.1931 148.289 45.3139 148.529 45.3158L150.319 45.3699C150.443 45.3749 150.563 45.4167 150.664 45.4901C150.765 45.5635 150.842 45.6652 150.885 45.7823C150.928 45.8994 150.935 46.0266 150.906 46.1478C150.876 46.269 150.812 46.3787 150.72 46.4632L148.091 48.8525C147.802 49.1102 147.485 49.1543 147.14 48.9849C146.336 48.5786 145.507 48.4421 144.653 48.5753C144.49 48.6013 144.324 48.5646 144.187 48.4726C144.051 48.3805 143.954 48.24 143.917 48.0795L143.259 45.3042C143.175 44.9502 142.953 44.7684 142.593 44.7589C141.18 44.7144 139.908 44.9711 138.777 45.5288C138.482 45.6732 138.206 45.651 137.947 45.4623C137.105 44.869 136.34 45.0662 135.653 46.0542C135.45 46.3592 135.197 46.4072 134.891 46.1982C134.679 46.0631 134.544 45.8754 134.486 45.635C134.451 45.4925 134.368 45.366 134.251 45.2761C134.134 45.1862 133.989 45.1382 133.84 45.1398L133.34 45.1559C132.92 45.1659 132.798 45.3616 132.975 45.743C133.191 46.1981 133.482 46.597 133.846 46.9399C134.19 47.2693 134.125 47.4655 133.651 47.5284C133.03 47.6035 132.395 47.8218 131.746 48.1834C131.464 48.3478 131.171 48.3689 130.865 48.2464C130.739 48.1988 130.613 48.1544 130.486 48.1134C130.16 48.0109 129.91 48.1022 129.734 48.3875C129.18 49.2832 128.473 49.3776 127.612 48.6708C127.214 48.3409 126.867 48.3849 126.571 48.8025C126.18 49.3461 125.63 49.6785 124.923 49.7996C124.649 49.8508 124.389 49.8287 124.143 49.7334C123.372 49.4206 123.404 49.2742 124.237 49.2941C125.477 49.3173 126.203 48.5096 126.416 46.8713C126.494 46.2986 126.275 46.1501 125.759 46.4261C125.666 46.4787 125.569 46.5346 125.468 46.5938C125.287 46.7057 125.146 46.8512 125.045 47.0305C124.592 47.8336 123.92 48.0849 123.029 47.7846C122.972 47.7684 122.913 47.7643 122.856 47.7725C122.799 47.7806 122.745 47.8009 122.698 47.832C122.531 47.944 122.46 48.0834 122.485 48.2503C122.523 48.4306 122.453 48.5267 122.273 48.5386C121.165 48.6165 120.711 49.213 120.908 50.3279C120.991 50.7886 120.817 50.9305 120.385 50.7538C119.834 50.5227 119.254 50.4548 118.647 50.55C116.337 50.9118 114.204 50.835 112.248 50.3195C112.159 50.2954 112.078 50.2474 112.014 50.1809C111.95 50.1144 111.906 50.032 111.886 49.9427C111.866 49.8535 111.871 49.7609 111.901 49.6754C111.931 49.5898 111.984 49.5145 112.055 49.458C112.511 49.0816 112.762 48.6135 112.806 48.0538C112.836 47.7007 112.67 47.5161 112.311 47.4999C109.631 47.3721 107.157 47.4959 104.887 47.8713C98.4987 48.9342 92.2632 49.6217 86.1805 49.9337C85.1134 49.9853 84.2345 50.2584 83.5439 50.7529C83.4445 50.8215 83.3255 50.8561 83.2048 50.8515C83.0841 50.847 82.9681 50.8035 82.8741 50.7276C82.7085 50.5996 82.5764 50.4419 82.4778 50.2545C82.3137 49.9398 82.0513 49.8111 81.6909 49.8682C80.2558 50.0769 78.8658 50.0793 77.5207 49.8753C76.332 49.6959 75.4262 50.4288 74.2952 50.5499C67.6491 51.2874 61.1308 52.336 54.5074 52.7337C52.0595 52.8744 49.4774 53.1307 46.7611 53.5026C42.0359 54.1353 37.225 54.2373 32.3283 55.0687C30.192 55.4252 28.0665 55.7017 25.9515 55.8984C20.3272 56.414 13.6054 57.4676 5.7859 59.0592C5.71183 59.073 5.63512 59.0565 5.572 59.013C5.50888 58.9696 5.46431 58.9027 5.44773 58.8266L5.39003 58.5361C5.35177 58.3158 5.44278 58.1899 5.66304 58.1583C8.05543 57.8671 10.0639 56.803 12.4881 56.2721C19.0731 54.8307 25.3627 53.6336 31.3571 52.6809C47.4111 50.141 66.9996 47.4155 90.1235 44.5047C93.1532 44.1286 95.9619 43.8807 98.5496 43.7612C99.0431 43.7384 99.4644 43.5817 99.8134 43.2911C100.122 43.0402 100.083 42.8699 99.6974 42.7802C97.3215 42.2514 95.7225 43.3788 93.5115 43.5014C89.1028 43.7399 85.2069 44.0592 81.8236 44.4591C68.8578 45.9701 55.7945 47.6304 42.633 49.4399C37.2469 50.1874 32.1483 49.9971 26.6991 51.1341C25.5772 51.3719 24.683 51.0649 24.0163 50.2129C23.7985 49.9379 23.5258 49.859 23.1982 49.9764C21.7342 50.4782 20.1662 50.6359 18.4943 50.4493C18.363 50.4333 18.2301 50.4543 18.1111 50.51C17.9921 50.5657 17.8917 50.6538 17.8218 50.764C17.5991 51.1023 17.3321 51.1435 17.0208 50.8877C16.736 50.6521 16.777 50.5191 17.1439 50.4886C19.4656 50.2936 21.2377 49.6109 22.4603 48.4406C22.6886 48.229 22.9595 48.1212 23.2729 48.117C24.5063 48.1134 25.6556 47.7858 26.7207 47.1342C27.1093 46.8972 27.5231 46.8405 27.9621 46.964C30.3104 47.6159 32.464 47.1595 34.4231 45.5949C34.5504 45.4947 34.6335 45.3484 34.6553 45.1865C34.6771 45.0247 34.6358 44.8597 34.54 44.7258C34.0254 44.0351 33.9311 43.321 34.2569 42.5835C34.413 42.2314 34.2975 42.0905 33.9102 42.1608C33.2291 42.2954 32.5845 42.4603 31.9763 42.6555C31.5485 42.7922 31.5304 42.972 31.922 43.1951L32.3002 43.4181C32.5458 43.5534 32.6409 43.7575 32.5854 44.0304C32.5162 44.3565 32.2614 44.5412 31.821 44.5844C30.5667 44.7011 29.5259 44.3796 28.6985 43.6197C28.4469 43.3977 28.1511 43.2954 27.8109 43.3127C27.1239 43.3539 26.4663 43.4754 25.838 43.6771C25.3033 43.8462 25.302 44.0129 25.8341 44.1771C26.0202 44.2385 26.22 44.2701 26.4333 44.2718C27.7131 44.3019 27.7971 44.6393 26.6853 45.2838C26.1027 45.6192 25.418 45.7839 24.6314 45.7776C24.1447 45.7738 23.9433 45.5322 24.0271 45.0528L24.1212 44.5236C24.2188 43.9843 24.0266 43.8495 23.5444 44.119C22.4128 44.7434 21.2814 44.9112 20.1503 44.6222C19.7711 44.5259 19.3976 44.5463 19.0298 44.6834C17.5588 45.2251 16.1614 45.3174 14.8375 44.9603C14.4849 44.8642 14.148 44.8948 13.8268 45.0523L11.588 46.1547C11.4297 46.2289 11.2583 46.2701 11.0845 46.2756C10.9107 46.2811 10.7382 46.2508 10.5777 46.1867C8.96939 45.5406 7.3313 45.2977 5.66331 45.4579C5.25633 45.4947 4.87691 45.4183 4.52506 45.2289C3.38993 44.6066 2.2399 44.6108 1.07487 45.2416C1.03611 45.2625 0.993082 45.2743 0.949077 45.2761C0.905072 45.2779 0.861249 45.2697 0.820907 45.252C0.780564 45.2344 0.744752 45.2077 0.716232 45.1742C0.687713 45.1406 0.66722 45.101 0.656293 45.0583L0.558974 44.7176C0.511702 44.5336 0.530357 44.3383 0.611807 44.1642C0.693257 43.9901 0.832577 43.8478 1.00654 43.761C3.6233 42.495 6.53486 41.4613 9.74132 40.6599C9.8569 40.6306 9.96468 40.5765 10.0572 40.5013C10.1497 40.4261 10.2247 40.3316 10.2769 40.2244C10.3292 40.1173 10.3575 40 10.3598 39.8808C10.3621 39.7616 10.3383 39.6433 10.2902 39.5342C9.7009 38.1762 10.0288 37.1787 11.2739 36.5419C12.0035 36.1743 11.9582 35.9939 11.1381 36.0008L9.69794 36.0194C9.26456 36.0227 9.02623 35.8108 8.98293 35.3838C8.4814 30.5097 3.84243 46.7735 4.06292 41.6451C4.06975 41.5107 4.12313 41.383 4.2136 41.2849C4.30407 41.1868 4.4258 41.1245 4.55719 41.109C5.56494 40.9769 6.56687 40.7348 7.56302 40.3827C13.0987 38.4264 18.9985 37.1929 24.3453 36.3651C38.8233 34.1493 53.5147 32.7352 68.2146 30.2912C68.3481 30.2723 68.4087 30.1994 68.3963 30.0727L68.3964 30.0627C68.3776 29.9158 68.2948 29.8452 68.1481 29.8507C57.7428 30.4752 47.4075 31.5303 37.1421 33.016C35.4401 33.2626 34.0254 32.5814 32.5508 31.8897C32.4595 31.8481 32.3824 31.7805 32.3293 31.6952C32.2763 31.61 32.2495 31.511 32.2524 31.4107C32.2554 31.3103 32.2878 31.2131 32.3458 31.1311C32.4038 31.0491 32.4846 30.9861 32.5783 30.9499C33.9293 30.4072 35.1988 30.0439 36.387 29.8599C49.1767 27.8542 62.2954 26.351 75.7438 25.3505ZM84.1166 24.7258C84.1161 24.7087 84.0234 24.6945 83.8436 24.6839C83.6638 24.6733 83.4006 24.6665 83.0688 24.664C82.7371 24.6614 82.3434 24.6632 81.9103 24.6691C81.4771 24.675 81.013 24.685 80.5443 24.6985C79.598 24.7257 78.6909 24.7655 78.0224 24.8091C77.3539 24.8527 76.9788 24.8966 76.9796 24.9311C76.98 24.9481 77.0728 24.9624 77.2526 24.973C77.4324 24.9836 77.6956 24.9904 78.0274 24.9929C78.3591 24.9954 78.7528 24.9937 79.1859 24.9878C79.6191 24.9818 80.0832 24.9719 80.5519 24.9584C81.4982 24.9312 82.4053 24.8914 83.0738 24.8477C83.7423 24.8041 84.1174 24.7603 84.1166 24.7258ZM36.0132 43.0574C36.0914 43.1601 36.2002 43.2353 36.3239 43.2722C36.4477 43.3091 36.5799 43.3058 36.7016 43.2628C37.1828 43.1066 37.4152 42.8151 37.3985 42.3883C37.3821 41.9349 37.1503 41.7397 36.7031 41.8028L35.812 41.9358C35.4116 41.9926 35.3334 42.182 35.5775 42.5039L36.0132 43.0574ZM40.9143 42.9361C40.6562 42.6874 40.4652 42.3959 40.3412 42.0616C40.2302 41.7607 40.0341 41.6924 39.7528 41.8569L39.0193 42.2911C38.7246 42.4621 38.6327 42.7048 38.7436 43.019C39.8676 46.3179 44.4275 43.8138 46.603 43.121C46.6431 43.108 46.6766 43.0849 46.7036 43.0518C46.7844 42.9525 46.792 42.8358 46.7264 42.702C46.6946 42.6375 46.6432 42.5844 46.5791 42.5499C46.5149 42.5154 46.4412 42.5012 46.3678 42.5091L41.6226 43.1617C41.4976 43.1795 41.3693 43.1684 41.2468 43.1294C41.1243 43.0904 41.0108 43.0244 40.9143 42.9361ZM162.512 43.7561C161.329 43.2935 160.549 43.2006 160.174 43.4777C159.188 44.2033 159.308 44.6675 160.533 44.8706C161.179 44.9823 161.805 44.9773 162.413 44.8554C163.682 44.5987 163.715 44.2323 162.512 43.7561ZM176.455 44.1576C176.459 44.1013 176.419 44.0421 176.335 43.9833C176.252 43.9245 176.128 43.8673 175.97 43.8149C175.812 43.7626 175.623 43.7161 175.415 43.6781C175.206 43.6402 174.981 43.6116 174.753 43.5938C174.525 43.5761 174.299 43.5696 174.087 43.5747C173.875 43.5799 173.681 43.5966 173.517 43.6238C173.353 43.6511 173.221 43.6884 173.13 43.7336C173.039 43.7789 172.989 43.8311 172.985 43.8874C172.981 43.9437 173.021 44.003 173.104 44.0618C173.187 44.1206 173.312 44.1778 173.47 44.2302C173.628 44.2825 173.816 44.329 174.025 44.367C174.234 44.4049 174.459 44.4335 174.687 44.4513C174.914 44.469 175.141 44.4755 175.353 44.4704C175.565 44.4652 175.759 44.4485 175.923 44.4212C176.087 44.394 176.219 44.3567 176.31 44.3114C176.401 44.2662 176.45 44.2139 176.455 44.1576ZM167.332 46.2943C165.793 47.0021 163.927 47.2508 161.736 47.0401C160.616 46.9313 159.94 47.346 159.706 48.2841C159.676 48.4089 159.682 48.5399 159.723 48.6616C159.764 48.7833 159.839 48.8904 159.939 48.9703C160.038 49.0502 160.158 49.0993 160.284 49.112C160.41 49.1246 160.537 49.1002 160.65 49.0416C162.43 48.1423 164.234 47.6899 166.061 47.6843C166.401 47.6803 166.715 47.5861 167.003 47.4017C167.794 46.8746 168.525 46.3004 169.197 45.679C169.405 45.4807 169.527 45.2349 169.562 44.9418C169.605 44.5888 169.504 44.2947 169.259 44.0594C168.909 43.7166 168.665 43.7781 168.528 44.2437L168.22 45.2613C168.083 45.7402 167.787 46.0845 167.332 46.2943ZM147.377 45.4767C147.391 45.3687 147.372 45.2571 147.32 45.1483C147.268 45.0395 147.185 44.9356 147.074 44.8425C146.963 44.7494 146.827 44.669 146.674 44.6058C146.521 44.5426 146.354 44.4978 146.182 44.4742C146.011 44.4505 145.838 44.4483 145.673 44.4677C145.509 44.4872 145.356 44.5278 145.224 44.5875C145.093 44.6471 144.984 44.7244 144.904 44.8151C144.825 44.9058 144.776 45.0081 144.761 45.116C144.746 45.224 144.766 45.3356 144.817 45.4444C144.869 45.5533 144.953 45.6572 145.064 45.7503C145.175 45.8434 145.311 45.9238 145.464 45.987C145.617 46.0502 145.784 46.0949 145.956 46.1186C146.127 46.1423 146.3 46.1445 146.465 46.125C146.629 46.1056 146.781 46.0649 146.913 46.0053C147.045 45.9457 147.154 45.8683 147.234 45.7777C147.313 45.687 147.362 45.5847 147.377 45.4767ZM35.6199 44.7444C35.5733 44.7307 35.53 44.7303 35.4899 44.7434C35.0287 44.8864 35.0345 45.0031 35.5071 45.0935C36.0662 45.2113 36.5827 45.232 37.0567 45.1557C37.2035 45.1302 37.2642 45.044 37.2387 44.8971C37.2262 44.797 37.1936 44.7068 37.1409 44.6264C36.996 44.3986 36.7966 44.3236 36.5426 44.4016C36.3421 44.4667 36.158 44.562 35.9903 44.6873C35.8764 44.7664 35.7529 44.7854 35.6199 44.7444ZM129.355 46.9445C129.874 47.1153 130.152 46.9608 130.189 46.4811C130.211 46.1946 130.079 46.0202 129.793 45.9579C129.52 45.8958 129.303 45.9507 129.142 46.1228C129.083 46.1844 129.042 46.2599 129.02 46.3421C128.999 46.4244 128.999 46.5107 129.02 46.5929C129.042 46.6752 129.084 46.7506 129.142 46.8121C129.201 46.8736 129.274 46.9192 129.355 46.9445ZM118.414 47.0381C116.964 46.6933 115.521 46.6653 114.085 46.9539C114.035 46.9643 113.988 46.9874 113.949 47.0211C113.91 47.0547 113.881 47.0976 113.864 47.1452C113.848 47.1929 113.844 47.2438 113.854 47.2925C113.864 47.3412 113.887 47.3862 113.921 47.4226C115.421 49.0879 116.922 49.0797 118.422 47.3982C118.488 47.3224 118.574 47.2665 118.671 47.2365C118.767 47.2065 118.87 47.2036 118.968 47.2281C119.066 47.2527 119.155 47.3037 119.226 47.3755C119.297 47.4474 119.347 47.5374 119.37 47.6357C119.46 47.983 119.638 48.2845 119.903 48.5399C120.147 48.7752 120.354 48.7468 120.523 48.4548C120.814 47.9771 121.276 47.7374 121.909 47.7357C122.169 47.7311 122.31 47.6022 122.332 47.349L122.354 47.0892C122.361 47.0493 122.345 47.0258 122.305 47.0188C121.3 46.7842 120.296 46.7896 119.294 47.0351C119 47.1061 118.707 47.1071 118.414 47.0381ZM149.139 51.6208C149.478 51.8235 149.85 51.9198 150.257 51.9096C150.75 51.9002 150.795 51.7572 150.39 51.4807C150.045 51.2446 149.667 51.035 149.255 50.8517C149.076 50.7703 148.913 50.7457 148.766 50.7778C148.525 50.8293 148.381 50.9748 148.332 51.2144C148.312 51.2876 148.331 51.3477 148.391 51.3949C148.497 51.4757 148.627 51.5168 148.78 51.518C148.907 51.5257 149.026 51.5599 149.139 51.6208ZM164.476 53.111C164.547 52.9776 164.499 52.7877 164.342 52.5832C164.185 52.3786 163.933 52.1761 163.641 52.0202C163.496 51.943 163.345 51.8796 163.198 51.8335C163.051 51.7875 162.909 51.7597 162.782 51.7519C162.655 51.744 162.544 51.7561 162.456 51.7876C162.368 51.8191 162.304 51.8693 162.269 51.9354C162.198 52.0688 162.246 52.2587 162.403 52.4632C162.559 52.6678 162.812 52.8703 163.104 53.0262C163.249 53.1034 163.4 53.1669 163.547 53.2129C163.694 53.2589 163.836 53.2867 163.963 53.2946C164.09 53.3025 164.201 53.2903 164.289 53.2588C164.377 53.2273 164.44 53.1771 164.476 53.111ZM155.096 53.2679C155.532 53.8247 156.042 53.8587 156.626 53.37C156.689 53.3192 156.736 53.2512 156.761 53.1743C156.787 53.0973 156.789 53.0147 156.769 52.9363C156.748 52.8579 156.705 52.7872 156.646 52.7325C156.586 52.6779 156.511 52.6417 156.431 52.6284C155.952 52.5446 155.445 52.5573 154.911 52.6664C154.577 52.7371 154.539 52.8802 154.798 53.0955C154.884 53.1696 154.983 53.227 155.096 53.2679Z" fill="#009400"/>
<path d="M205.18 18.1035V21.7195H199.228V40.4395H194.748V21.7195H188.796V18.1035H205.18ZM207.297 31.5115C207.297 29.7195 207.649 28.1301 208.353 26.7435C209.078 25.3568 210.049 24.2901 211.265 23.5435C212.502 22.7968 213.878 22.4235 215.393 22.4235C216.716 22.4235 217.868 22.6901 218.849 23.2235C219.852 23.7568 220.652 24.4288 221.249 25.2395V22.7115H225.761V40.4395H221.249V37.8475C220.673 38.6795 219.873 39.3728 218.849 39.9275C217.846 40.4608 216.684 40.7275 215.361 40.7275C213.868 40.7275 212.502 40.3435 211.265 39.5755C210.049 38.8075 209.078 37.7301 208.353 36.3435C207.649 34.9355 207.297 33.3248 207.297 31.5115ZM221.249 31.5755C221.249 30.4875 221.036 29.5595 220.609 28.7915C220.182 28.0021 219.606 27.4048 218.881 26.9995C218.156 26.5728 217.377 26.3595 216.545 26.3595C215.713 26.3595 214.945 26.5621 214.241 26.9675C213.537 27.3728 212.961 27.9701 212.513 28.7595C212.086 29.5275 211.873 30.4448 211.873 31.5115C211.873 32.5781 212.086 33.5168 212.513 34.3275C212.961 35.1168 213.537 35.7248 214.241 36.1515C214.966 36.5781 215.734 36.7915 216.545 36.7915C217.377 36.7915 218.156 36.5888 218.881 36.1835C219.606 35.7568 220.182 35.1595 220.609 34.3915C221.036 33.6021 221.249 32.6635 221.249 31.5755ZM234.617 25.4635C235.193 24.5248 235.939 23.7888 236.857 23.2555C237.795 22.7221 238.862 22.4555 240.057 22.4555V27.1595H238.873C237.465 27.1595 236.398 27.4901 235.673 28.1515C234.969 28.8128 234.617 29.9648 234.617 31.6075V40.4395H230.137V22.7115H234.617V25.4635ZM250.018 22.4235C251.341 22.4235 252.503 22.6901 253.506 23.2235C254.509 23.7355 255.298 24.4075 255.874 25.2395V22.7115H260.386V40.5675C260.386 42.2101 260.055 43.6715 259.394 44.9515C258.733 46.2528 257.741 47.2768 256.418 48.0235C255.095 48.7915 253.495 49.1755 251.618 49.1755C249.101 49.1755 247.031 48.5888 245.41 47.4155C243.81 46.2421 242.903 44.6421 242.69 42.6155H247.138C247.373 43.4261 247.874 44.0661 248.642 44.5355C249.431 45.0261 250.381 45.2715 251.49 45.2715C252.791 45.2715 253.847 44.8768 254.658 44.0875C255.469 43.3195 255.874 42.1461 255.874 40.5675V37.8155C255.298 38.6475 254.498 39.3408 253.474 39.8955C252.471 40.4501 251.319 40.7275 250.018 40.7275C248.525 40.7275 247.159 40.3435 245.922 39.5755C244.685 38.8075 243.703 37.7301 242.978 36.3435C242.274 34.9355 241.922 33.3248 241.922 31.5115C241.922 29.7195 242.274 28.1301 242.978 26.7435C243.703 25.3568 244.674 24.2901 245.89 23.5435C247.127 22.7968 248.503 22.4235 250.018 22.4235ZM255.874 31.5755C255.874 30.4875 255.661 29.5595 255.234 28.7915C254.807 28.0021 254.231 27.4048 253.506 26.9995C252.781 26.5728 252.002 26.3595 251.17 26.3595C250.338 26.3595 249.57 26.5621 248.866 26.9675C248.162 27.3728 247.586 27.9701 247.138 28.7595C246.711 29.5275 246.498 30.4448 246.498 31.5115C246.498 32.5781 246.711 33.5168 247.138 34.3275C247.586 35.1168 248.162 35.7248 248.866 36.1515C249.591 36.5781 250.359 36.7915 251.17 36.7915C252.002 36.7915 252.781 36.5888 253.506 36.1835C254.231 35.7568 254.807 35.1595 255.234 34.3915C255.661 33.6021 255.874 32.6635 255.874 31.5755ZM281.242 31.1915C281.242 31.8315 281.199 32.4075 281.114 32.9195H268.154C268.26 34.1995 268.708 35.2021 269.498 35.9275C270.287 36.6528 271.258 37.0155 272.41 37.0155C274.074 37.0155 275.258 36.3008 275.962 34.8715H280.794C280.282 36.5781 279.3 37.9861 277.85 39.0955C276.399 40.1835 274.618 40.7275 272.506 40.7275C270.799 40.7275 269.263 40.3541 267.898 39.6075C266.554 38.8395 265.498 37.7621 264.73 36.3755C263.983 34.9888 263.61 33.3888 263.61 31.5755C263.61 29.7408 263.983 28.1301 264.73 26.7435C265.476 25.3568 266.522 24.2901 267.866 23.5435C269.21 22.7968 270.756 22.4235 272.506 22.4235C274.191 22.4235 275.695 22.7861 277.018 23.5115C278.362 24.2368 279.396 25.2715 280.122 26.6155C280.868 27.9381 281.242 29.4635 281.242 31.1915ZM276.602 29.9115C276.58 28.7595 276.164 27.8421 275.354 27.1595C274.543 26.4555 273.551 26.1035 272.378 26.1035C271.268 26.1035 270.33 26.4448 269.562 27.1275C268.815 27.7888 268.356 28.7168 268.186 29.9115H276.602ZM289.728 26.3915V34.9675C289.728 35.5648 289.866 36.0021 290.144 36.2795C290.442 36.5355 290.933 36.6635 291.616 36.6635H293.696V40.4395H290.88C287.104 40.4395 285.216 38.6048 285.216 34.9355V26.3915H283.104V22.7115H285.216V18.3275H289.728V22.7115H293.696V26.3915H289.728ZM308.959 18.1035V31.9275C308.959 33.4421 309.354 34.6048 310.143 35.4155C310.932 36.2048 312.042 36.5995 313.471 36.5995C314.922 36.5995 316.042 36.2048 316.831 35.4155C317.62 34.6048 318.015 33.4421 318.015 31.9275V18.1035H322.527V31.8955C322.527 33.7941 322.111 35.4048 321.279 36.7275C320.468 38.0288 319.37 39.0101 317.983 39.6715C316.618 40.3328 315.092 40.6635 313.407 40.6635C311.743 40.6635 310.228 40.3328 308.863 39.6715C307.519 39.0101 306.452 38.0288 305.663 36.7275C304.874 35.4048 304.479 33.7941 304.479 31.8955V18.1035H308.959ZM333.639 40.7275C332.189 40.7275 330.887 40.4715 329.735 39.9595C328.583 39.4261 327.666 38.7115 326.983 37.8155C326.322 36.9195 325.959 35.9275 325.895 34.8395H330.407C330.493 35.5221 330.823 36.0875 331.399 36.5355C331.997 36.9835 332.733 37.2075 333.607 37.2075C334.461 37.2075 335.122 37.0368 335.591 36.6955C336.082 36.3541 336.327 35.9168 336.327 35.3835C336.327 34.8075 336.029 34.3808 335.431 34.1035C334.855 33.8048 333.927 33.4848 332.647 33.1435C331.325 32.8235 330.237 32.4928 329.383 32.1515C328.551 31.8101 327.826 31.2875 327.207 30.5835C326.61 29.8795 326.311 28.9301 326.311 27.7355C326.311 26.7541 326.589 25.8581 327.143 25.0475C327.719 24.2368 328.53 23.5968 329.575 23.1275C330.642 22.6581 331.89 22.4235 333.319 22.4235C335.431 22.4235 337.117 22.9568 338.375 24.0235C339.634 25.0688 340.327 26.4875 340.455 28.2795H336.167C336.103 27.5755 335.805 27.0208 335.271 26.6155C334.759 26.1888 334.066 25.9755 333.191 25.9755C332.381 25.9755 331.751 26.1248 331.303 26.4235C330.877 26.7221 330.663 27.1381 330.663 27.6715C330.663 28.2688 330.962 28.7275 331.559 29.0475C332.157 29.3461 333.085 29.6555 334.343 29.9755C335.623 30.2955 336.679 30.6261 337.511 30.9675C338.343 31.3088 339.058 31.8421 339.655 32.5675C340.274 33.2715 340.594 34.2101 340.615 35.3835C340.615 36.4075 340.327 37.3248 339.751 38.1355C339.197 38.9461 338.386 39.5861 337.319 40.0555C336.274 40.5035 335.047 40.7275 333.639 40.7275ZM360.773 31.1915C360.773 31.8315 360.73 32.4075 360.645 32.9195H347.685C347.792 34.1995 348.24 35.2021 349.029 35.9275C349.818 36.6528 350.789 37.0155 351.941 37.0155C353.605 37.0155 354.789 36.3008 355.493 34.8715H360.325C359.813 36.5781 358.832 37.9861 357.381 39.0955C355.93 40.1835 354.149 40.7275 352.037 40.7275C350.33 40.7275 348.794 40.3541 347.429 39.6075C346.085 38.8395 345.029 37.7621 344.261 36.3755C343.514 34.9888 343.141 33.3888 343.141 31.5755C343.141 29.7408 343.514 28.1301 344.261 26.7435C345.008 25.3568 346.053 24.2901 347.397 23.5435C348.741 22.7968 350.288 22.4235 352.037 22.4235C353.722 22.4235 355.226 22.7861 356.549 23.5115C357.893 24.2368 358.928 25.2715 359.653 26.6155C360.4 27.9381 360.773 29.4635 360.773 31.1915ZM356.133 29.9115C356.112 28.7595 355.696 27.8421 354.885 27.1595C354.074 26.4555 353.082 26.1035 351.909 26.1035C350.8 26.1035 349.861 26.4448 349.093 27.1275C348.346 27.7888 347.888 28.7168 347.717 29.9115H356.133ZM368.523 25.4635C369.099 24.5248 369.846 23.7888 370.763 23.2555C371.702 22.7221 372.768 22.4555 373.963 22.4555V27.1595H372.779C371.371 27.1595 370.304 27.4901 369.579 28.1515C368.875 28.8128 368.523 29.9648 368.523 31.6075V40.4395H364.043V22.7115H368.523V25.4635ZM383.764 40.7275C382.314 40.7275 381.012 40.4715 379.86 39.9595C378.708 39.4261 377.791 38.7115 377.108 37.8155C376.447 36.9195 376.084 35.9275 376.02 34.8395H380.532C380.618 35.5221 380.948 36.0875 381.524 36.5355C382.122 36.9835 382.858 37.2075 383.732 37.2075C384.586 37.2075 385.247 37.0368 385.716 36.6955C386.207 36.3541 386.452 35.9168 386.452 35.3835C386.452 34.8075 386.154 34.3808 385.556 34.1035C384.98 33.8048 384.052 33.4848 382.772 33.1435C381.45 32.8235 380.362 32.4928 379.508 32.1515C378.676 31.8101 377.951 31.2875 377.332 30.5835C376.735 29.8795 376.436 28.9301 376.436 27.7355C376.436 26.7541 376.714 25.8581 377.268 25.0475C377.844 24.2368 378.655 23.5968 379.7 23.1275C380.767 22.6581 382.015 22.4235 383.444 22.4235C385.556 22.4235 387.242 22.9568 388.5 24.0235C389.759 25.0688 390.452 26.4875 390.58 28.2795H386.292C386.228 27.5755 385.93 27.0208 385.396 26.6155C384.884 26.1888 384.191 25.9755 383.316 25.9755C382.506 25.9755 381.876 26.1248 381.428 26.4235C381.002 26.7221 380.788 27.1381 380.788 27.6715C380.788 28.2688 381.087 28.7275 381.684 29.0475C382.282 29.3461 383.21 29.6555 384.468 29.9755C385.748 30.2955 386.804 30.6261 387.636 30.9675C388.468 31.3088 389.183 31.8421 389.78 32.5675C390.399 33.2715 390.719 34.2101 390.74 35.3835C390.74 36.4075 390.452 37.3248 389.876 38.1355C389.322 38.9461 388.511 39.5861 387.444 40.0555C386.399 40.5035 385.172 40.7275 383.764 40.7275Z" fill="white"/>
</svg>
