<svg width="579" height="64" viewBox="0 0 579 64" fill="none" xmlns="http://www.w3.org/2000/svg">
<path d="M75.7428 25.1493C75.7534 25.1482 75.7636 25.145 75.7729 25.1398C75.7822 25.1347 75.7903 25.1278 75.7969 25.1194C75.8035 25.1111 75.8083 25.1016 75.8112 25.0914C75.814 25.0811 75.8149 25.0704 75.8135 25.0599L75.7955 24.8098C75.7897 24.6964 75.7302 24.6426 75.6168 24.6483C65.1323 25.1656 54.6365 25.8794 44.1289 26.7898C40.9399 27.0646 38.1604 26.5793 35.7901 25.3339C35.4581 25.158 35.2536 24.8897 35.1764 24.5291L34.9839 23.5775C34.9135 23.2169 34.7122 22.9553 34.3801 22.7927C34.0481 22.6301 33.8134 22.3816 33.676 22.0471C33.4797 21.5723 33.6381 21.3535 34.1512 21.3909C34.5177 21.4138 34.855 21.3364 35.163 21.1589C35.3488 21.0503 35.498 20.8884 35.5912 20.6942C35.6844 20.5001 35.7172 20.2828 35.6854 20.0707C35.6536 19.8587 35.5586 19.6618 35.4128 19.5058C35.2671 19.3498 35.0774 19.242 34.8685 19.1965C31.9269 18.5399 29.423 17.3534 27.3564 15.6371C27.2814 15.5738 27.2258 15.4905 27.1961 15.3969C27.1663 15.3033 27.1637 15.2032 27.1885 15.1082C27.2133 15.0132 27.2646 14.9271 27.3363 14.86C27.4079 14.7929 27.4971 14.7474 27.5936 14.7289C31.199 14.0574 34.796 13.1757 38.48 12.6948C56.5126 10.3371 74.6093 8.68991 92.7707 7.75328C121.363 6.28565 148.232 5.67776 173.378 5.92963C185.797 6.05436 533.999 3.42914 548.418 4.53633C551.276 4.74891 554.112 5.3313 556.948 5.84371C557.208 5.89256 557.445 6.02255 557.625 6.21468C557.805 6.40681 557.919 6.65102 557.949 6.91165C558.169 8.71342 558.074 10.5194 557.667 12.3296C557.176 14.5058 556.926 16.1505 556.918 17.2638C556.905 18.9238 556.891 20.6071 556.878 22.3137C556.878 22.4313 556.852 22.5475 556.801 22.6535C556.75 22.7596 556.675 22.8527 556.582 22.9261C556.489 22.9994 556.381 23.051 556.264 23.0769C556.148 23.1029 556.028 23.1026 555.912 23.076C555.053 22.8826 554.2 22.9125 553.351 23.1658C552.917 23.3024 552.872 23.5154 553.216 23.8048C553.534 24.074 553.896 24.2435 554.302 24.3134C554.512 24.3548 554.709 24.4497 554.874 24.5891C555.039 24.7285 555.167 24.908 555.246 25.1109C555.389 25.4853 555.416 25.8556 555.327 26.2215C555.216 26.714 555.407 26.9955 555.9 27.0661C561.134 27.8474 566.914 28.7131 573.24 29.6631C574.259 29.8111 575.347 30.0864 576.504 30.4888C576.751 30.5756 576.97 30.7271 577.137 30.9274C577.305 31.1277 577.415 31.3693 577.455 31.6264C577.913 34.3701 578.096 37.0416 578.002 39.641C577.9 42.4302 577.994 36.8508 578.002 39.641C578.003 40.261 578.325 38.4068 577.981 38.8908C577.779 39.1758 577.86 39.0268 578.011 39.3413L577.747 39.8889C577.924 40.2437 577.582 37.5276 577.405 37.8862C576.619 39.5333 580.194 39.8249 578.002 39.641C577.016 39.5598 577.364 38.9443 578.213 39.4443C578.764 39.7687 577.268 39.7152 578.002 39.641C578.575 39.5855 578.219 39.366 577.995 39.8909C577.353 41.3759 579.352 38.3116 578.002 39.641C577.289 40.3354 576.574 41.0231 575.856 41.7041C575.621 41.9289 575.538 42.2016 575.609 42.5222C575.712 42.983 575.606 43.3522 575.29 43.6297C575.076 43.8213 574.818 43.9093 574.518 43.8936C572.892 43.7874 571.228 43.9009 569.526 44.2342C569.429 44.2515 569.342 44.2996 569.277 44.3715C569.211 44.4434 569.171 44.5351 569.163 44.633C569.154 44.7308 569.177 44.8296 569.229 44.9144C569.28 44.9992 569.357 45.0656 569.449 45.1036L574.523 47.1537C574.666 47.2118 574.794 47.3021 574.897 47.4177C575 47.5332 575.075 47.6709 575.117 47.8201C575.158 47.9692 575.165 48.1259 575.136 48.278C575.107 48.4301 575.044 48.5735 574.95 48.6972C574.56 49.2208 574.068 49.3902 573.476 49.2055C573.164 49.1097 572.854 49.114 572.546 49.2182C565.447 51.6822 556.808 51.534 549.51 51.2364C546.024 51.0889 207.751 54.2591 204.257 54.2649C199.557 54.2678 194.849 53.9806 190.238 54.1142C181.529 54.3721 172.545 54.5079 163.284 54.5214C161.331 54.5193 159.349 54.667 157.34 54.9645C155.578 55.2173 153.465 55.1806 151.001 54.8545C150.768 54.8259 150.682 54.6986 150.744 54.4724C150.771 54.3793 150.812 54.2896 150.866 54.2034C150.913 54.1304 150.984 54.081 151.077 54.055C151.538 53.9187 151.944 53.6852 152.293 53.3546C152.609 53.0438 152.547 52.8666 152.107 52.8231C150.315 52.6423 148.698 52.7029 147.256 53.0048C146.928 53.0689 146.605 53.053 146.286 52.9572C144.776 52.5186 143.309 52.6103 141.884 53.2324C141.576 53.37 141.259 53.3975 140.933 53.3149L139.506 52.9436C139.093 52.8337 139.097 52.7304 139.518 52.6337L141.191 52.2369C141.257 52.2224 141.317 52.1873 141.361 52.1371C141.404 52.0869 141.43 52.0243 141.434 51.9588L141.456 51.699C141.463 51.6006 141.447 51.5019 141.408 51.411C141.37 51.3201 141.31 51.2397 141.234 51.1766C141.159 51.1134 141.069 51.0692 140.973 51.0477C140.876 51.0261 140.776 51.0279 140.681 51.0529C139.271 51.4217 137.773 51.5866 136.187 51.5474C136.02 51.5394 135.921 51.4553 135.889 51.295L135.753 50.7539C135.689 50.4734 135.799 50.3576 136.086 50.4066C137.684 50.6592 139.348 50.5623 141.078 50.116C142.722 49.6989 144.258 50.1911 145.906 50.4241C146.252 50.4735 146.556 50.3892 146.818 50.1713C146.939 50.0656 147.04 49.943 147.121 49.8037C147.276 49.5382 147.51 49.4234 147.824 49.4592C149.722 49.6942 151.596 49.589 153.446 49.1436C154.475 48.8984 155.516 48.7932 156.569 48.8282C156.768 48.835 156.965 48.7945 157.146 48.7101C157.326 48.6257 157.484 48.4998 157.606 48.3427C157.728 48.1856 157.811 48.0018 157.849 47.8063C157.886 47.6108 157.877 47.4092 157.822 47.2181C157.536 46.2558 156.96 45.7046 156.095 45.5644C156.02 45.554 155.944 45.5587 155.871 45.5783C155.799 45.5979 155.731 45.632 155.673 45.6784C155.614 45.7249 155.566 45.7826 155.531 45.8482C155.496 45.9137 155.476 45.9857 155.471 46.0595C155.361 47.2387 154.675 48.0299 153.412 48.4333C153.064 48.5439 152.815 48.4319 152.664 48.0974L151.613 45.739C151.443 45.3643 151.515 45.0482 151.831 44.7907C152.381 44.3484 152.957 44.3463 153.561 44.7844C153.832 44.9732 154.125 45.0255 154.439 44.9413C154.7 44.8634 154.911 44.7017 155.073 44.4563C155.107 44.4035 155.125 44.3425 155.127 44.2799C155.128 44.2173 155.112 44.1555 155.08 44.1015C155.049 44.0475 155.003 44.0032 154.947 43.9737C154.892 43.9441 154.83 43.9303 154.767 43.9338L148.475 44.1542C148.375 44.1534 148.315 44.2063 148.294 44.3128L148.231 44.7523C148.189 44.992 148.288 45.1127 148.528 45.1146L150.318 45.1688C150.442 45.1737 150.562 45.2156 150.663 45.289C150.764 45.3624 150.841 45.4641 150.884 45.5811C150.927 45.6982 150.934 45.8254 150.905 45.9466C150.875 46.0678 150.811 46.1776 150.719 46.262L148.09 48.6513C147.801 48.909 147.484 48.9532 147.139 48.7838C146.335 48.3774 145.506 48.2409 144.652 48.3741C144.489 48.4002 144.323 48.3634 144.186 48.2714C144.05 48.1793 143.953 48.0388 143.916 47.8783L143.258 45.103C143.174 44.749 142.952 44.5673 142.592 44.5577C141.179 44.5133 139.907 44.7699 138.776 45.3277C138.481 45.472 138.205 45.4498 137.946 45.2611C137.104 44.6678 136.339 44.8651 135.652 45.853C135.449 46.1581 135.196 46.2061 134.89 45.997C134.678 45.862 134.543 45.6742 134.485 45.4338C134.45 45.2913 134.367 45.1649 134.25 45.075C134.133 44.9851 133.988 44.937 133.839 44.9387L133.339 44.9547C132.919 44.9647 132.797 45.1604 132.974 45.5418C133.19 45.9969 133.481 46.3959 133.845 46.7388C134.189 47.0681 134.124 47.2643 133.65 47.3272C133.029 47.4023 132.394 47.6207 131.745 47.9822C131.463 48.1467 131.17 48.1677 130.864 48.0453C130.738 47.9976 130.612 47.9533 130.485 47.9123C130.159 47.8097 129.909 47.9011 129.733 48.1863C129.179 49.082 128.472 49.1764 127.611 48.4696C127.213 48.1398 126.866 48.1837 126.57 48.6014C126.179 49.145 125.629 49.4773 124.922 49.5984C124.648 49.6496 124.388 49.6275 124.142 49.5322C123.371 49.2195 123.403 49.0731 124.236 49.093C125.476 49.1161 126.202 48.3085 126.415 46.6701C126.493 46.0974 126.274 45.949 125.758 46.2249C125.665 46.2775 125.568 46.3334 125.467 46.3926C125.286 46.5045 125.145 46.6501 125.044 46.8293C124.591 47.6324 123.919 47.8838 123.028 47.5834C122.971 47.5672 122.912 47.5631 122.855 47.5713C122.798 47.5795 122.744 47.5998 122.697 47.6308C122.53 47.7428 122.459 47.8822 122.484 48.0491C122.522 48.2294 122.452 48.3255 122.272 48.3374C121.164 48.4154 120.71 49.0118 120.907 50.1267C120.99 50.5874 120.816 50.7294 120.384 50.5526C119.833 50.3216 119.253 50.2537 118.646 50.3489C116.336 50.7106 114.203 50.6338 112.247 50.1184C112.158 50.0942 112.077 50.0463 112.013 49.9798C111.949 49.9132 111.905 49.8308 111.885 49.7415C111.865 49.6523 111.87 49.5598 111.9 49.4742C111.93 49.3886 111.983 49.3134 112.054 49.2568C112.51 48.8804 112.761 48.4123 112.805 47.8527C112.835 47.4996 112.669 47.3149 112.31 47.2988C109.63 47.1709 107.156 47.2947 104.886 47.6702C98.4977 48.7331 92.2622 49.4205 86.1795 49.7325C85.1124 49.7841 84.2335 50.0572 83.5429 50.5517C83.4435 50.6203 83.3245 50.6549 83.2038 50.6504C83.0831 50.6458 82.9671 50.6023 82.8731 50.5264C82.7074 50.3985 82.5754 50.2407 82.4768 50.0533C82.3126 49.7387 82.0503 49.6099 81.6899 49.6671C80.2548 49.8757 78.8648 49.8781 77.5197 49.6741C76.331 49.4948 75.4252 50.2276 74.2942 50.3487C67.6481 51.0863 61.1298 52.1348 54.5064 52.5325C52.0585 52.6732 49.4764 52.9295 46.7601 53.3014C42.0349 53.9341 37.224 54.0362 32.3272 54.8675C30.191 55.224 28.0655 55.5005 25.9505 55.6972C20.3262 56.2128 13.6044 57.2664 5.7849 58.8581C5.71083 58.8719 5.63411 58.8553 5.57099 58.8119C5.50787 58.7684 5.46331 58.7016 5.44673 58.6254L5.38902 58.3349C5.35076 58.1146 5.44177 57.9887 5.66203 57.9571C8.05442 57.666 10.0629 56.6018 12.4871 56.0709C19.0721 54.6295 25.3617 53.4325 31.3561 52.4798C47.4101 49.9398 66.9986 47.2143 90.1224 44.3035C93.1522 43.9274 95.9609 43.6796 98.5486 43.56C99.0421 43.5372 99.4634 43.3805 99.8124 43.0899C100.121 42.839 100.082 42.6687 99.6964 42.579C97.3205 42.0503 95.7215 43.1777 93.5105 43.3002C89.1018 43.5387 85.2058 43.858 81.8226 44.258C68.8568 45.769 55.7935 47.4292 42.632 49.2387C37.2459 49.9862 32.1473 49.7959 26.6981 50.9329C25.5762 51.1708 24.6819 50.8637 24.0153 50.0117C23.7975 49.7367 23.5248 49.6579 23.1972 49.7753C21.7332 50.2771 20.1652 50.4347 18.4933 50.2481C18.362 50.2321 18.2291 50.2531 18.1101 50.3088C17.9911 50.3645 17.8907 50.4526 17.8208 50.5629C17.5981 50.9011 17.3311 50.9423 17.0198 50.6865C16.735 50.4509 16.776 50.3179 17.1429 50.2875C19.4646 50.0925 21.2367 49.4098 22.4593 48.2394C22.6876 48.0279 22.9585 47.92 23.2719 47.9158C24.5053 47.9122 25.6545 47.5846 26.7197 46.933C27.1083 46.6961 27.5221 46.6393 27.9611 46.7628C30.3094 47.4147 32.463 46.9583 34.4221 45.3938C34.5494 45.2935 34.6325 45.1472 34.6543 44.9854C34.6761 44.8235 34.6348 44.6585 34.539 44.5247C34.0244 43.8339 33.9301 43.1198 34.2559 42.3824C34.412 42.0303 34.2964 41.8893 33.9092 41.9596C33.2281 42.0942 32.5835 42.2592 31.9753 42.4544C31.5475 42.591 31.5294 42.7708 31.921 42.9939L32.2992 43.2169C32.5448 43.3522 32.6399 43.5563 32.5844 43.8292C32.5152 44.1553 32.2604 44.34 31.82 44.3832C30.5657 44.5 29.5249 44.1784 28.6975 43.4185C28.4459 43.1965 28.1501 43.0942 27.8099 43.1115C27.1229 43.1527 26.4653 43.2742 25.837 43.4759C25.3023 43.645 25.301 43.8117 25.833 43.9759C26.0192 44.0374 26.219 44.069 26.4323 44.0707C27.7121 44.1008 27.7961 44.4381 26.6843 45.0827C26.1016 45.4181 25.417 45.5827 24.6304 45.5765C24.1437 45.5726 23.9423 45.331 24.0261 44.8517L24.1202 44.3224C24.2178 43.7832 24.0256 43.6483 23.5434 43.9178C22.4118 44.5422 21.2804 44.71 20.1493 44.4211C19.7701 44.3247 19.3966 44.3451 19.0288 44.4822C17.5578 45.024 16.1604 45.1163 14.8365 44.7591C14.4839 44.663 14.147 44.6937 13.8258 44.8511L11.587 45.9535C11.4286 46.0278 11.2573 46.0689 11.0835 46.0744C10.9097 46.0799 10.7372 46.0496 10.5767 45.9855C8.96838 45.3395 7.3303 45.0965 5.6623 45.2567C5.25532 45.2935 4.87591 45.2171 4.52406 45.0277C3.38893 44.4054 2.23889 44.4096 1.07387 45.0405C1.0351 45.0614 0.992075 45.0732 0.94807 45.075C0.904065 45.0768 0.860242 45.0685 0.8199 45.0509C0.779557 45.0332 0.743745 45.0066 0.715225 44.973C0.686706 44.9394 0.666213 44.8998 0.655286 44.8572L0.557967 44.5164C0.510695 44.3324 0.52935 44.1371 0.6108 43.963C0.69225 43.789 0.83157 43.6467 1.00554 43.5599C3.62229 42.2938 6.53386 41.2601 9.74031 40.4587C9.85589 40.4295 9.96367 40.3753 10.0562 40.3001C10.1487 40.2249 10.2237 40.1304 10.2759 40.0233C10.3282 39.9161 10.3565 39.7988 10.3588 39.6796C10.361 39.5604 10.3373 39.4421 10.2892 39.333C9.6999 37.975 10.0278 36.9776 11.2729 36.3407C12.0025 35.9731 11.9572 35.7928 11.1371 35.7996L9.69693 35.8182C9.26356 35.8215 9.02522 35.6096 8.98193 35.1826C8.48039 30.3085 3.84142 46.5723 4.06192 41.4439C4.06874 41.3095 4.12213 41.1819 4.21259 41.0837C4.30306 40.9856 4.42479 40.9233 4.55619 40.9078C5.56393 40.7758 6.56586 40.5337 7.56202 40.1815C13.0977 38.2252 18.9975 36.9917 24.3443 36.1639C38.8223 33.9482 53.5137 32.5341 68.2136 30.0901C68.3471 30.0711 68.4077 29.9983 68.3953 29.8715L68.3954 29.8615C68.3766 29.7147 68.2938 29.644 68.1471 29.6495C57.7417 30.2741 47.4065 31.3292 37.1411 32.8148C35.4391 33.0614 34.0244 32.3802 32.5498 31.6885C32.4585 31.6469 32.3814 31.5793 32.3283 31.4941C32.2753 31.4089 32.2485 31.3099 32.2514 31.2095C32.2543 31.1092 32.2868 31.0119 32.3448 30.9299C32.4028 30.848 32.4836 30.7849 32.5773 30.7487C33.9283 30.2061 35.1978 29.8427 36.386 29.6588C49.1757 27.653 62.2944 26.1499 75.7428 25.1493ZM84.1156 24.5246C84.1151 24.5076 84.0224 24.4933 83.8426 24.4827C83.6628 24.4721 83.3996 24.4653 83.0678 24.4628C82.7361 24.4603 82.3424 24.462 81.9093 24.4679C81.4761 24.4739 81.012 24.4838 80.5433 24.4973C79.597 24.5245 78.6899 24.5644 78.0214 24.608C77.3529 24.6516 76.9778 24.6954 76.9786 24.7299C76.979 24.747 77.0718 24.7612 77.2516 24.7718C77.4314 24.7824 77.6946 24.7892 78.0264 24.7917C78.3581 24.7943 78.7518 24.7925 79.1849 24.7866C79.6181 24.7807 80.0822 24.7707 80.5509 24.7572C81.4972 24.73 82.4043 24.6902 83.0728 24.6466C83.7413 24.603 84.1164 24.5591 84.1156 24.5246ZM36.0122 42.8562C36.0904 42.9589 36.1992 43.0341 36.3229 43.071C36.4466 43.108 36.5789 43.1047 36.7006 43.0617C37.1818 42.9055 37.4141 42.614 37.3975 42.1872C37.3811 41.7337 37.1493 41.5385 36.7021 41.6016L35.811 41.7346C35.4106 41.7915 35.3324 41.9808 35.5765 42.3028L36.0122 42.8562ZM40.9133 42.7349C40.6552 42.4862 40.4642 42.1947 40.3402 41.8604C40.2292 41.5595 40.0331 41.4913 39.7518 41.6557L39.0183 42.0899C38.7236 42.261 38.6317 42.5036 38.7426 42.8178C39.8666 46.1168 44.4265 43.6127 46.602 42.9198C46.6421 42.9068 46.6756 42.8838 46.7026 42.8506C46.7834 42.7513 46.791 42.6347 46.7253 42.5008C46.6936 42.4363 46.6422 42.3833 46.578 42.3488C46.5139 42.3143 46.4402 42.3 46.3668 42.308L41.6216 42.9605C41.4966 42.9783 41.3682 42.9672 41.2458 42.9282C41.1233 42.8892 41.0098 42.8232 40.9133 42.7349ZM162.511 43.555C161.328 43.0923 160.548 42.9995 160.173 43.2765C159.187 44.0021 159.307 44.4664 160.532 44.6694C161.178 44.7812 161.804 44.7761 162.412 44.6542C163.681 44.3976 163.714 44.0311 162.511 43.555ZM176.454 43.9565C176.458 43.9002 176.418 43.8409 176.334 43.7821C176.251 43.7233 176.127 43.6661 175.969 43.6137C175.811 43.5614 175.622 43.5149 175.414 43.477C175.205 43.439 174.98 43.4104 174.752 43.3926C174.524 43.3749 174.298 43.3684 174.086 43.3736C173.874 43.3787 173.68 43.3954 173.516 43.4227C173.352 43.4499 173.22 43.4872 173.129 43.5325C173.038 43.5777 172.988 43.63 172.984 43.6863C172.98 43.7426 173.02 43.8018 173.103 43.8606C173.186 43.9194 173.311 43.9766 173.469 44.029C173.627 44.0814 173.815 44.1278 174.024 44.1658C174.233 44.2037 174.458 44.2324 174.686 44.2501C174.913 44.2678 175.14 44.2744 175.352 44.2692C175.564 44.264 175.758 44.2473 175.922 44.2201C176.086 44.1928 176.218 44.1555 176.309 44.1103C176.4 44.065 176.449 44.0128 176.454 43.9565ZM167.331 46.0931C165.792 46.801 163.926 47.0496 161.735 46.839C160.615 46.7301 159.939 47.1448 159.705 48.083C159.675 48.2077 159.681 48.3388 159.722 48.4604C159.763 48.5821 159.838 48.6893 159.938 48.7691C160.037 48.849 160.157 48.8982 160.283 48.9108C160.409 48.9234 160.536 48.899 160.649 48.8404C162.429 47.9411 164.233 47.4887 166.06 47.4831C166.4 47.4792 166.714 47.385 167.002 47.2006C167.793 46.6735 168.524 46.0992 169.196 45.4778C169.404 45.2795 169.526 45.0337 169.561 44.7407C169.604 44.3877 169.503 44.0935 169.258 43.8582C168.908 43.5155 168.664 43.5769 168.527 44.0425L168.219 45.0601C168.082 45.539 167.786 45.8834 167.331 46.0931ZM147.376 45.2756C147.39 45.1676 147.371 45.056 147.319 44.9472C147.267 44.8383 147.184 44.7344 147.073 44.6413C146.962 44.5482 146.826 44.4678 146.673 44.4046C146.52 44.3414 146.353 44.2967 146.181 44.273C146.01 44.2493 145.837 44.2471 145.672 44.2666C145.508 44.286 145.355 44.3267 145.223 44.3863C145.092 44.4459 144.983 44.5233 144.903 44.614C144.824 44.7046 144.775 44.8069 144.76 44.9149C144.745 45.0228 144.765 45.1344 144.816 45.2433C144.868 45.3521 144.952 45.456 145.063 45.5491C145.174 45.6422 145.31 45.7226 145.463 45.7858C145.616 45.849 145.783 45.8938 145.955 45.9174C146.126 45.9411 146.299 45.9433 146.464 45.9239C146.628 45.9044 146.78 45.8638 146.912 45.8041C147.044 45.7445 147.153 45.6672 147.233 45.5765C147.312 45.4858 147.361 45.3835 147.376 45.2756ZM35.6188 44.5432C35.5723 44.5295 35.529 44.5292 35.4889 44.5422C35.0277 44.6852 35.0335 44.8019 35.5061 44.8923C36.0652 45.0101 36.5817 45.0308 37.0556 44.9545C37.2025 44.929 37.2632 44.8429 37.2377 44.696C37.2252 44.5959 37.1925 44.5056 37.1398 44.4252C36.995 44.1974 36.7956 44.1225 36.5416 44.2005C36.3411 44.2655 36.157 44.3608 35.9893 44.4861C35.8754 44.5652 35.7519 44.5843 35.6188 44.5432ZM129.354 46.7433C129.873 46.9141 130.151 46.7596 130.188 46.2799C130.21 45.9934 130.078 45.819 129.792 45.7567C129.519 45.6946 129.302 45.7495 129.141 45.9216C129.082 45.9832 129.041 46.0587 129.019 46.1409C128.998 46.2232 128.998 46.3095 129.019 46.3917C129.041 46.474 129.083 46.5494 129.141 46.6109C129.2 46.6724 129.273 46.718 129.354 46.7433ZM118.413 46.8369C116.963 46.4921 115.52 46.4641 114.084 46.7528C114.034 46.7631 113.987 46.7863 113.948 46.8199C113.909 46.8535 113.88 46.8964 113.863 46.9441C113.847 46.9918 113.843 47.0426 113.853 47.0913C113.863 47.1401 113.886 47.185 113.92 47.2215C115.42 48.8867 116.921 48.8785 118.42 47.197C118.487 47.1213 118.573 47.0653 118.67 47.0353C118.766 47.0053 118.869 47.0024 118.967 47.027C119.065 47.0515 119.154 47.1025 119.225 47.1744C119.296 47.2462 119.346 47.3362 119.369 47.4345C119.459 47.7819 119.637 48.0833 119.902 48.3387C120.146 48.574 120.353 48.5456 120.522 48.2536C120.813 47.7759 121.275 47.5362 121.908 47.5345C122.168 47.5299 122.309 47.401 122.331 47.1479L122.353 46.8881C122.36 46.8481 122.344 46.8246 122.304 46.8177C121.299 46.5831 120.295 46.5885 119.293 46.8339C118.999 46.9049 118.706 46.9059 118.413 46.8369ZM149.138 51.4196C149.477 51.6223 149.849 51.7186 150.256 51.7085C150.749 51.699 150.794 51.556 150.389 51.2795C150.044 51.0434 149.666 50.8338 149.254 50.6505C149.075 50.5691 148.912 50.5445 148.765 50.5767C148.524 50.6281 148.38 50.7736 148.331 51.0133C148.311 51.0864 148.33 51.1466 148.39 51.1937C148.496 51.2745 148.626 51.3156 148.779 51.3168C148.906 51.3245 149.025 51.3587 149.138 51.4196ZM164.475 52.9099C164.546 52.7764 164.498 52.5866 164.341 52.382C164.184 52.1774 163.932 51.9749 163.64 51.819C163.495 51.7418 163.344 51.6784 163.197 51.6323C163.05 51.5863 162.908 51.5586 162.781 51.5507C162.654 51.5428 162.543 51.555 162.455 51.5864C162.367 51.6179 162.303 51.6681 162.268 51.7342C162.197 51.8676 162.245 52.0575 162.402 52.2621C162.558 52.4666 162.811 52.6691 163.103 52.825C163.248 52.9022 163.399 52.9657 163.546 53.0117C163.693 53.0578 163.835 53.0855 163.962 53.0934C164.089 53.1013 164.2 53.0891 164.288 53.0576C164.376 53.0261 164.439 52.9759 164.475 52.9099ZM155.095 53.0667C155.531 53.6235 156.041 53.6575 156.625 53.1688C156.688 53.118 156.735 53.0501 156.76 52.9731C156.786 52.8962 156.788 52.8135 156.768 52.7352C156.747 52.6568 156.704 52.586 156.644 52.5314C156.585 52.4767 156.51 52.4406 156.43 52.4272C155.951 52.3435 155.444 52.3561 154.91 52.4652C154.576 52.5359 154.538 52.679 154.797 52.8944C154.883 52.9684 154.982 53.0258 155.095 53.0667Z" fill="#009400"/>
<path d="M146.835 16.5087L140.595 38.8447H135.315L131.123 22.9407L126.739 38.8447L121.491 38.8767L115.475 16.5087H120.275L124.211 33.8527L128.755 16.5087H133.747L138.035 33.7567L142.003 16.5087H146.835ZM159.744 20.8607C161.088 20.8607 162.282 21.1594 163.328 21.7567C164.373 22.3327 165.184 23.1967 165.76 24.3487C166.357 25.4794 166.656 26.8447 166.656 28.4447V38.8447H162.176V29.0527C162.176 27.6447 161.824 26.5674 161.12 25.8207C160.416 25.0527 159.456 24.6687 158.24 24.6687C157.002 24.6687 156.021 25.0527 155.296 25.8207C154.592 26.5674 154.24 27.6447 154.24 29.0527V38.8447H149.76V15.1647H154.24V23.3247C154.816 22.5567 155.584 21.9594 156.544 21.5327C157.504 21.0847 158.57 20.8607 159.744 20.8607ZM187.876 21.1167L176.9 47.2287H172.132L175.972 38.3967L168.868 21.1167H173.892L178.468 33.5007L183.108 21.1167H187.876ZM214.204 23.4207C214.204 24.6154 213.916 25.7354 213.34 26.7807C212.785 27.8261 211.9 28.6687 210.684 29.3087C209.489 29.9487 207.975 30.2687 206.14 30.2687H202.396V38.8447H197.916V16.5087H206.14C207.868 16.5087 209.34 16.8074 210.556 17.4047C211.772 18.0021 212.679 18.8234 213.276 19.8687C213.895 20.9141 214.204 22.0981 214.204 23.4207ZM205.948 26.6527C207.185 26.6527 208.103 26.3754 208.7 25.8207C209.297 25.2447 209.596 24.4447 209.596 23.4207C209.596 21.2447 208.38 20.1567 205.948 20.1567H202.396V26.6527H205.948ZM219.657 19.0047C218.867 19.0047 218.206 18.7594 217.673 18.2687C217.161 17.7567 216.905 17.1274 216.905 16.3807C216.905 15.6341 217.161 15.0154 217.673 14.5247C218.206 14.0127 218.867 13.7567 219.657 13.7567C220.446 13.7567 221.097 14.0127 221.609 14.5247C222.142 15.0154 222.409 15.6341 222.409 16.3807C222.409 17.1274 222.142 17.7567 221.609 18.2687C221.097 18.7594 220.446 19.0047 219.657 19.0047ZM221.865 21.1167V38.8447H217.385V21.1167H221.865ZM239.923 25.5327V29.3087H226.355V25.5327H239.923ZM243.859 27.6447C243.859 25.4474 244.35 23.4847 245.331 21.7567C246.334 20.0074 247.689 18.6527 249.395 17.6927C251.123 16.7114 253.054 16.2207 255.187 16.2207C257.683 16.2207 259.87 16.8607 261.747 18.1407C263.625 19.4207 264.937 21.1914 265.683 23.4527H260.531C260.019 22.3861 259.294 21.5861 258.355 21.0527C257.438 20.5194 256.371 20.2527 255.155 20.2527C253.854 20.2527 252.691 20.5621 251.667 21.1807C250.665 21.7781 249.875 22.6314 249.299 23.7407C248.745 24.8501 248.467 26.1514 248.467 27.6447C248.467 29.1167 248.745 30.4181 249.299 31.5487C249.875 32.6581 250.665 33.5221 251.667 34.1407C252.691 34.7381 253.854 35.0367 255.155 35.0367C256.371 35.0367 257.438 34.7701 258.355 34.2367C259.294 33.6821 260.019 32.8714 260.531 31.8047H265.683C264.937 34.0874 263.625 35.8687 261.747 37.1487C259.891 38.4074 257.705 39.0367 255.187 39.0367C253.054 39.0367 251.123 38.5567 249.395 37.5967C247.689 36.6154 246.334 35.2607 245.331 33.5327C244.35 31.8047 243.859 29.8421 243.859 27.6447ZM283.206 34.5887H274.31L272.838 38.8447H268.134L276.166 16.4767H281.382L289.414 38.8447H284.678L283.206 34.5887ZM281.99 31.0047L278.758 21.6607L275.526 31.0047H281.99ZM300.224 16.5087C302.571 16.5087 304.629 16.9674 306.4 17.8847C308.192 18.8021 309.568 20.1141 310.528 21.8207C311.509 23.5061 312 25.4687 312 27.7087C312 29.9487 311.509 31.9114 310.528 33.5967C309.568 35.2607 308.192 36.5514 306.4 37.4687C304.629 38.3861 302.571 38.8447 300.224 38.8447H292.416V16.5087H300.224ZM300.064 35.0367C302.411 35.0367 304.224 34.3967 305.504 33.1167C306.784 31.8367 307.424 30.0341 307.424 27.7087C307.424 25.3834 306.784 23.5701 305.504 22.2687C304.224 20.9461 302.411 20.2847 300.064 20.2847H296.896V35.0367H300.064ZM323.066 39.0687C321.508 39.0687 320.1 38.8021 318.842 38.2687C317.604 37.7354 316.623 36.9674 315.898 35.9647C315.172 34.9621 314.799 33.7781 314.778 32.4127H319.578C319.642 33.3301 319.962 34.0554 320.538 34.5887C321.135 35.1221 321.946 35.3887 322.97 35.3887C324.015 35.3887 324.836 35.1434 325.434 34.6527C326.031 34.1407 326.33 33.4794 326.33 32.6687C326.33 32.0074 326.127 31.4634 325.722 31.0367C325.316 30.6101 324.804 30.2794 324.186 30.0447C323.588 29.7887 322.756 29.5114 321.69 29.2127C320.239 28.7861 319.055 28.3701 318.138 27.9647C317.242 27.5381 316.463 26.9087 315.802 26.0767C315.162 25.2234 314.842 24.0927 314.842 22.6847C314.842 21.3621 315.172 20.2101 315.834 19.2287C316.495 18.2474 317.423 17.5007 318.618 16.9887C319.812 16.4554 321.178 16.1887 322.714 16.1887C325.018 16.1887 326.884 16.7541 328.314 17.8847C329.764 18.9941 330.564 20.5514 330.714 22.5567H325.786C325.743 21.7887 325.412 21.1594 324.794 20.6687C324.196 20.1567 323.396 19.9007 322.394 19.9007C321.519 19.9007 320.815 20.1247 320.282 20.5727C319.77 21.0207 319.514 21.6714 319.514 22.5247C319.514 23.1221 319.706 23.6234 320.09 24.0287C320.495 24.4127 320.986 24.7327 321.562 24.9887C322.159 25.2234 322.991 25.5007 324.058 25.8207C325.508 26.2474 326.692 26.6741 327.61 27.1007C328.527 27.5274 329.316 28.1674 329.978 29.0207C330.639 29.8741 330.97 30.9941 330.97 32.3807C330.97 33.5754 330.66 34.6847 330.042 35.7087C329.423 36.7327 328.516 37.5541 327.322 38.1727C326.127 38.7701 324.708 39.0687 323.066 39.0687ZM360.207 25.5327V29.3087H342.799V25.5327H360.207ZM396.924 16.5087V38.8447H392.444V24.3167L386.46 38.8447H383.068L377.052 24.3167V38.8447H372.572V16.5087H377.66L384.764 33.1167L391.868 16.5087H396.924ZM409.226 39.1327C407.519 39.1327 405.983 38.7594 404.618 38.0127C403.252 37.2447 402.175 36.1674 401.386 34.7807C400.618 33.3941 400.234 31.7941 400.234 29.9807C400.234 28.1674 400.628 26.5674 401.418 25.1807C402.228 23.7941 403.327 22.7274 404.714 21.9807C406.1 21.2127 407.647 20.8287 409.354 20.8287C411.06 20.8287 412.607 21.2127 413.994 21.9807C415.38 22.7274 416.468 23.7941 417.258 25.1807C418.068 26.5674 418.474 28.1674 418.474 29.9807C418.474 31.7941 418.058 33.3941 417.226 34.7807C416.415 36.1674 415.306 37.2447 413.898 38.0127C412.511 38.7594 410.954 39.1327 409.226 39.1327ZM409.226 35.2287C410.036 35.2287 410.794 35.0367 411.498 34.6527C412.223 34.2474 412.799 33.6501 413.226 32.8607C413.652 32.0714 413.866 31.1114 413.866 29.9807C413.866 28.2954 413.418 27.0047 412.522 26.1087C411.647 25.1914 410.57 24.7327 409.29 24.7327C408.01 24.7327 406.932 25.1914 406.058 26.1087C405.204 27.0047 404.778 28.2954 404.778 29.9807C404.778 31.6661 405.194 32.9674 406.026 33.8847C406.879 34.7807 407.946 35.2287 409.226 35.2287ZM426.976 24.7967V33.3727C426.976 33.9701 427.114 34.4074 427.392 34.6847C427.69 34.9407 428.181 35.0687 428.864 35.0687H430.944V38.8447H428.128C424.352 38.8447 422.464 37.0101 422.464 33.3407V24.7967H420.352V21.1167H422.464V16.7327H426.976V21.1167H430.944V24.7967H426.976ZM442.038 39.1327C440.331 39.1327 438.795 38.7594 437.43 38.0127C436.065 37.2447 434.987 36.1674 434.198 34.7807C433.43 33.3941 433.046 31.7941 433.046 29.9807C433.046 28.1674 433.441 26.5674 434.23 25.1807C435.041 23.7941 436.139 22.7274 437.526 21.9807C438.913 21.2127 440.459 20.8287 442.166 20.8287C443.873 20.8287 445.419 21.2127 446.806 21.9807C448.193 22.7274 449.281 23.7941 450.07 25.1807C450.881 26.5674 451.286 28.1674 451.286 29.9807C451.286 31.7941 450.87 33.3941 450.038 34.7807C449.227 36.1674 448.118 37.2447 446.71 38.0127C445.323 38.7594 443.766 39.1327 442.038 39.1327ZM442.038 35.2287C442.849 35.2287 443.606 35.0367 444.31 34.6527C445.035 34.2474 445.611 33.6501 446.038 32.8607C446.465 32.0714 446.678 31.1114 446.678 29.9807C446.678 28.2954 446.23 27.0047 445.334 26.1087C444.459 25.1914 443.382 24.7327 442.102 24.7327C440.822 24.7327 439.745 25.1914 438.87 26.1087C438.017 27.0047 437.59 28.2954 437.59 29.9807C437.59 31.6661 438.006 32.9674 438.838 33.8847C439.691 34.7807 440.758 35.2287 442.038 35.2287ZM459.052 23.8687C459.628 22.9301 460.375 22.1941 461.292 21.6607C462.231 21.1274 463.298 20.8607 464.492 20.8607V25.5647H463.308C461.9 25.5647 460.834 25.8954 460.108 26.5567C459.404 27.2181 459.052 28.3701 459.052 30.0127V38.8447H454.572V21.1167H459.052V23.8687ZM473.75 15.7407C475.968 15.7407 477.75 16.3487 479.094 17.5647C480.459 18.7594 481.142 20.4127 481.142 22.5247C481.142 24.6154 480.47 26.2154 479.126 27.3247C477.782 28.4127 476 28.9567 473.782 28.9567L473.654 31.4207H469.718L469.558 25.9807H470.998C472.854 25.9807 474.283 25.7354 475.286 25.2447C476.288 24.7541 476.79 23.8581 476.79 22.5567C476.79 21.6181 476.512 20.8714 475.958 20.3167C475.424 19.7621 474.688 19.4847 473.75 19.4847C472.768 19.4847 472 19.7514 471.446 20.2847C470.912 20.8181 470.646 21.5541 470.646 22.4927H466.422C466.4 21.1914 466.678 20.0287 467.254 19.0047C467.83 17.9807 468.672 17.1807 469.782 16.6047C470.912 16.0287 472.235 15.7407 473.75 15.7407ZM471.67 39.0687C470.859 39.0687 470.187 38.8234 469.654 38.3327C469.142 37.8207 468.886 37.1914 468.886 36.4447C468.886 35.6981 469.142 35.0794 469.654 34.5887C470.187 34.0767 470.859 33.8207 471.67 33.8207C472.459 33.8207 473.11 34.0767 473.622 34.5887C474.134 35.0794 474.39 35.6981 474.39 36.4447C474.39 37.1914 474.134 37.8207 473.622 38.3327C473.11 38.8234 472.459 39.0687 471.67 39.0687Z" fill="white"/>
</svg>
